{"glyphs":{"0":{"ha":803,"x_min":69,"x_max":733,"o":"m 401 0 q 222 65 296 0 q 108 251 147 129 q 69 543 69 372 q 108 835 69 714 q 222 1022 147 957 q 401 1086 296 1086 q 581 1020 507 1086 q 694 833 656 954 q 733 543 733 711 q 694 253 733 375 q 581 66 656 132 q 401 0 507 0 m 401 144 q 507 197 465 144 q 569 339 549 249 q 590 543 590 429 q 569 747 590 657 q 507 890 549 838 q 401 943 465 943 q 296 891 338 943 q 233 749 254 839 q 213 543 213 658 q 233 338 213 428 q 297 196 254 247 q 401 144 339 144 z "},"1":{"ha":546,"x_min":49,"x_max":407,"o":"m 335 0 q 286 21 307 0 q 265 71 265 42 l 265 918 l 164 875 q 119 865 140 865 q 69 885 89 865 q 49 935 49 904 q 60 975 49 957 q 94 1001 71 993 l 311 1079 q 325 1083 318 1082 q 338 1085 332 1085 q 388 1065 369 1085 q 407 1013 407 1044 l 407 71 q 386 21 407 42 q 335 0 365 0 z "},"2":{"ha":817,"x_min":90,"x_max":747,"o":"m 161 0 q 110 21 131 0 q 90 71 90 42 q 110 121 90 101 l 504 582 q 569 674 546 631 q 592 756 592 717 q 571 861 592 817 q 511 930 550 906 q 418 954 472 954 q 323 927 365 954 q 256 855 281 900 q 232 756 232 810 q 212 707 232 728 q 161 686 192 686 q 111 707 132 686 q 90 756 90 728 q 133 924 90 850 q 251 1042 176 999 q 418 1085 325 1085 q 582 1044 513 1085 q 690 931 651 1004 q 728 756 728 857 q 709 665 728 711 q 662 578 690 619 q 604 503 633 536 l 286 142 l 675 142 q 726 120 706 142 q 747 71 747 99 q 726 21 747 42 q 675 0 706 0 l 161 0 z "},"3":{"ha":832,"x_min":76,"x_max":769,"o":"m 433 0 q 249 44 329 0 q 122 163 168 88 q 76 333 76 239 q 95 385 76 365 q 140 406 114 406 q 186 385 168 406 q 204 333 204 365 q 233 228 204 276 q 313 152 263 181 q 425 124 363 124 q 573 174 517 124 q 629 317 629 225 q 604 422 629 375 q 536 496 579 468 q 439 524 493 524 q 388 544 408 524 q 368 596 368 565 q 388 647 368 626 q 439 667 408 667 q 514 687 478 667 q 574 741 550 707 q 597 818 597 775 q 553 921 597 879 q 439 963 508 963 q 342 942 386 963 q 273 886 299 921 q 247 808 247 851 q 229 755 247 776 q 183 733 211 733 q 138 753 157 733 q 119 804 119 774 q 161 949 119 885 q 275 1049 203 1013 q 436 1086 347 1086 q 584 1051 518 1086 q 688 955 650 1015 q 726 818 726 894 q 702 722 726 764 q 640 651 678 681 q 561 601 603 621 q 681 534 635 576 q 748 436 726 492 q 769 315 769 381 q 724 153 769 225 q 601 41 678 82 q 433 0 525 0 z "},"4":{"ha":907,"x_min":26,"x_max":851,"o":"m 628 0 q 581 21 600 0 q 561 71 561 42 l 561 246 l 99 246 q 49 265 67 246 q 28 310 31 285 q 42 357 26 336 l 574 1054 q 599 1076 585 1068 q 632 1085 614 1085 q 679 1064 661 1085 q 697 1013 697 1043 l 697 374 l 781 374 q 831 360 810 374 q 851 310 851 346 q 831 265 851 283 q 781 246 810 246 l 697 246 l 697 71 q 678 21 697 42 q 628 0 658 0 m 182 335 l 144 374 l 561 374 l 561 946 l 604 890 l 182 335 z "},"5":{"ha":874,"x_min":90,"x_max":797,"o":"m 443 0 q 263 47 343 0 q 137 174 183 93 q 90 354 90 254 q 110 405 90 385 q 160 425 129 425 q 211 405 190 425 q 232 354 232 385 q 260 246 232 294 q 335 169 288 197 q 443 142 383 142 q 552 169 504 142 q 628 246 600 197 q 656 354 656 294 q 628 463 656 415 q 552 539 600 511 q 443 567 504 567 l 211 567 q 161 587 181 567 q 142 638 142 607 l 142 1013 q 161 1064 142 1043 q 211 1085 181 1085 l 675 1085 q 725 1063 704 1085 q 746 1013 746 1042 q 726 964 746 985 q 675 943 706 943 l 282 943 l 282 708 l 443 708 q 624 662 544 708 q 751 535 704 615 q 797 354 797 456 q 751 174 797 254 q 624 47 704 93 q 443 0 544 0 z "},"6":{"ha":807,"x_min":90,"x_max":744,"o":"m 418 0 q 248 42 322 0 q 132 159 174 85 q 90 329 90 233 q 132 501 90 426 q 248 617 174 575 q 418 660 322 660 q 588 617 514 660 q 703 501 661 575 q 744 329 744 426 q 703 159 744 233 q 588 42 661 85 q 418 0 514 0 m 417 125 q 517 151 474 125 q 586 223 561 176 q 611 329 611 269 q 586 436 611 390 q 517 508 561 482 q 417 535 474 535 q 316 508 360 535 q 248 436 272 482 q 224 329 224 390 q 248 223 224 269 q 316 151 272 176 q 417 125 360 125 m 136 507 l 458 1044 q 522 1083 483 1083 q 571 1067 551 1083 q 595 1025 590 1050 q 585 975 600 1000 l 388 647 l 136 507 z "},"7":{"ha":760,"x_min":47,"x_max":718,"o":"m 199 0 q 150 21 171 0 q 129 71 129 42 q 133 92 129 82 q 142 115 136 103 l 540 943 l 118 943 q 67 963 88 943 q 47 1014 47 983 q 67 1065 47 1044 q 118 1085 88 1085 l 647 1085 q 697 1064 676 1085 q 718 1014 718 1043 q 715 995 718 1004 q 708 976 713 986 l 264 39 q 199 0 242 0 z "},"8":{"ha":807,"x_min":83,"x_max":725,"o":"m 404 1 q 240 45 313 1 q 125 165 167 89 q 83 335 83 240 q 125 499 83 426 q 240 614 167 572 q 404 656 313 656 q 568 614 496 656 q 683 499 640 572 q 724 335 725 426 q 681 165 724 240 q 567 45 639 89 q 404 1 494 1 m 404 129 q 497 157 456 129 q 561 231 538 185 q 585 335 585 278 q 563 434 586 390 q 498 503 539 478 q 404 529 457 529 q 311 503 353 529 q 246 434 269 478 q 222 335 222 390 q 245 231 222 278 q 310 157 268 185 q 404 129 351 129 m 404 554 q 263 589 325 554 q 165 683 201 624 q 129 817 129 742 q 165 958 129 896 q 263 1056 201 1019 q 404 1093 325 1093 q 545 1058 483 1094 q 643 960 607 1022 q 678 817 679 897 q 642 683 678 742 q 544 589 606 624 q 404 554 482 554 m 404 669 q 474 690 443 669 q 522 745 504 711 q 540 821 540 779 q 524 894 542 863 q 475 945 506 926 q 404 964 444 964 q 307 924 346 964 q 267 821 268 883 q 305 714 265 758 q 404 669 344 669 z "},"9":{"ha":807,"x_min":63,"x_max":717,"o":"m 389 1086 q 560 1044 486 1086 q 675 927 633 1001 q 717 757 717 853 q 675 586 717 661 q 560 469 633 511 q 389 426 486 426 q 220 469 294 426 q 104 586 146 511 q 63 757 63 661 q 104 927 63 853 q 219 1044 146 1001 q 389 1086 293 1086 m 390 961 q 290 935 333 961 q 221 864 246 910 q 196 757 196 818 q 221 651 196 697 q 290 578 246 604 q 390 551 333 551 q 491 578 447 551 q 559 651 535 604 q 583 757 583 697 q 559 864 583 818 q 491 935 535 910 q 390 961 447 961 m 671 579 l 349 42 q 285 3 324 3 q 237 19 257 3 q 212 62 217 36 q 222 111 207 88 l 419 439 l 671 579 z "},"A":{"ha":976,"x_min":15,"x_max":965,"o":"m 96 0 q 36 33 57 0 q 32 104 15 67 l 422 1036 q 490 1085 443 1085 q 558 1036 540 1085 l 950 101 q 945 31 965 63 q 885 0 925 0 q 845 12 864 0 q 818 44 826 24 l 474 900 l 513 900 l 163 44 q 134 11 153 22 q 96 0 115 0 m 169 239 l 225 358 l 769 358 l 825 239 l 169 239 z "},"Á":{"ha":976,"x_min":15,"x_max":965,"o":"m 96 0 q 36 33 57 0 q 32 104 15 67 l 422 1036 q 490 1085 443 1085 q 558 1036 540 1085 l 950 101 q 945 31 965 63 q 885 0 925 0 q 845 12 864 0 q 818 44 826 24 l 474 900 l 513 900 l 163 44 q 134 11 153 22 q 96 0 115 0 m 169 239 l 225 358 l 769 358 l 825 239 l 169 239 m 494 1204 q 444 1224 464 1204 q 424 1275 424 1244 q 440 1322 424 1304 l 576 1458 q 626 1479 597 1479 q 678 1458 658 1479 q 697 1407 697 1438 q 693 1381 697 1393 q 678 1358 689 1368 l 543 1224 q 494 1204 524 1204 z "},"Ă":{"ha":976,"x_min":15,"x_max":965,"o":"m 96 0 q 36 33 57 0 q 32 104 15 67 l 422 1036 q 490 1085 443 1085 q 558 1036 540 1085 l 950 101 q 945 31 965 63 q 885 0 925 0 q 845 12 864 0 q 818 44 826 24 l 474 900 l 513 900 l 163 44 q 134 11 153 22 q 96 0 115 0 m 169 239 l 225 358 l 769 358 l 825 239 l 169 239 m 489 1165 q 375 1188 426 1165 q 293 1251 324 1211 q 263 1339 263 1290 q 281 1390 263 1369 q 329 1410 299 1410 q 375 1394 354 1410 q 396 1353 396 1379 q 426 1300 396 1321 q 489 1279 456 1279 q 556 1300 532 1279 q 581 1353 581 1321 q 601 1394 581 1379 q 649 1410 622 1410 q 697 1390 679 1410 q 714 1339 714 1369 q 683 1251 714 1290 q 602 1188 653 1211 q 489 1165 551 1165 z "},"Ắ":{"ha":976,"x_min":15,"x_max":965,"o":"m 96 0 q 36 33 57 0 q 32 104 15 67 l 422 1036 q 490 1085 443 1085 q 558 1036 540 1085 l 950 101 q 945 31 965 63 q 885 0 925 0 q 845 12 864 0 q 818 44 826 24 l 474 900 l 513 900 l 163 44 q 134 11 153 22 q 96 0 115 0 m 169 239 l 225 358 l 769 358 l 825 239 l 169 239 m 489 1165 q 375 1188 426 1165 q 293 1251 324 1211 q 263 1339 263 1290 q 281 1390 263 1369 q 329 1410 299 1410 q 375 1394 354 1410 q 396 1353 396 1379 q 426 1300 396 1321 q 489 1279 456 1279 q 556 1300 532 1279 q 581 1353 581 1321 q 601 1394 581 1379 q 649 1410 622 1410 q 697 1390 679 1410 q 714 1339 714 1369 q 683 1251 714 1290 q 602 1188 653 1211 q 489 1165 551 1165 m 494 1446 q 444 1466 464 1446 q 424 1517 424 1486 q 440 1564 424 1546 l 576 1700 q 626 1721 597 1721 q 678 1700 658 1721 q 697 1649 697 1679 q 693 1622 697 1635 q 678 1600 689 1610 l 543 1465 q 494 1446 524 1446 z "},"Ặ":{"ha":976,"x_min":15,"x_max":965,"o":"m 96 0 q 36 33 57 0 q 32 104 15 67 l 422 1036 q 490 1085 443 1085 q 558 1036 540 1085 l 950 101 q 945 31 965 63 q 885 0 925 0 q 845 12 864 0 q 818 44 826 24 l 474 900 l 513 900 l 163 44 q 134 11 153 22 q 96 0 115 0 m 169 239 l 225 358 l 769 358 l 825 239 l 169 239 m 489 1165 q 375 1188 426 1165 q 293 1251 324 1211 q 263 1339 263 1290 q 281 1390 263 1369 q 329 1410 299 1410 q 375 1394 354 1410 q 396 1353 396 1379 q 426 1300 396 1321 q 489 1279 456 1279 q 556 1300 532 1279 q 581 1353 581 1321 q 601 1394 581 1379 q 649 1410 622 1410 q 697 1390 679 1410 q 714 1339 714 1369 q 683 1251 714 1290 q 602 1188 653 1211 q 489 1165 551 1165 m 489 -311 q 424 -284 451 -311 q 397 -219 397 -257 q 424 -155 397 -182 q 489 -128 451 -128 q 553 -155 526 -128 q 581 -219 581 -182 q 553 -284 581 -257 q 489 -311 526 -311 z "},"Ằ":{"ha":976,"x_min":15,"x_max":965,"o":"m 96 0 q 36 33 57 0 q 32 104 15 67 l 422 1036 q 490 1085 443 1085 q 558 1036 540 1085 l 950 101 q 945 31 965 63 q 885 0 925 0 q 845 12 864 0 q 818 44 826 24 l 474 900 l 513 900 l 163 44 q 134 11 153 22 q 96 0 115 0 m 169 239 l 225 358 l 769 358 l 825 239 l 169 239 m 489 1165 q 375 1188 426 1165 q 293 1251 324 1211 q 263 1339 263 1290 q 281 1390 263 1369 q 329 1410 299 1410 q 375 1394 354 1410 q 396 1353 396 1379 q 426 1300 396 1321 q 489 1279 456 1279 q 556 1300 532 1279 q 581 1353 581 1321 q 601 1394 581 1379 q 649 1410 622 1410 q 697 1390 679 1410 q 714 1339 714 1369 q 683 1251 714 1290 q 602 1188 653 1211 q 489 1165 551 1165 m 485 1446 q 436 1465 454 1446 l 300 1600 q 282 1649 282 1618 q 301 1700 282 1679 q 351 1721 321 1721 q 403 1700 381 1721 l 538 1564 q 556 1517 556 1546 q 535 1466 556 1486 q 485 1446 515 1446 z "},"Ẳ":{"ha":976,"x_min":15,"x_max":965,"o":"m 96 0 q 36 33 57 0 q 32 104 15 67 l 422 1036 q 490 1085 443 1085 q 558 1036 540 1085 l 950 101 q 945 31 965 63 q 885 0 925 0 q 845 12 864 0 q 818 44 826 24 l 474 900 l 513 900 l 163 44 q 134 11 153 22 q 96 0 115 0 m 169 239 l 225 358 l 769 358 l 825 239 l 169 239 m 489 1165 q 375 1188 426 1165 q 293 1251 324 1211 q 263 1339 263 1290 q 281 1390 263 1369 q 329 1410 299 1410 q 375 1394 354 1410 q 396 1353 396 1379 q 426 1300 396 1321 q 489 1279 456 1279 q 556 1300 532 1279 q 581 1353 581 1321 q 601 1394 581 1379 q 649 1410 622 1410 q 697 1390 679 1410 q 714 1339 714 1369 q 683 1251 714 1290 q 602 1188 653 1211 q 489 1165 551 1165 m 489 1401 q 444 1419 463 1401 q 426 1464 426 1438 l 426 1494 q 482 1563 426 1550 l 518 1571 q 558 1590 542 1576 q 575 1626 575 1604 q 558 1667 575 1654 q 515 1679 542 1679 q 478 1672 496 1679 q 450 1657 461 1665 q 428 1646 442 1650 q 404 1642 415 1642 q 368 1653 383 1642 q 353 1690 353 1665 q 375 1739 353 1721 q 436 1773 403 1761 q 513 1785 469 1785 q 635 1740 588 1785 q 682 1631 682 1696 q 637 1529 683 1561 q 525 1489 590 1497 l 551 1492 q 533 1423 551 1444 q 489 1401 515 1401 z "},"Ẵ":{"ha":976,"x_min":15,"x_max":965,"o":"m 96 0 q 36 33 57 0 q 32 104 15 67 l 422 1036 q 490 1085 443 1085 q 558 1036 540 1085 l 950 101 q 945 31 965 63 q 885 0 925 0 q 845 12 864 0 q 818 44 826 24 l 474 900 l 513 900 l 163 44 q 134 11 153 22 q 96 0 115 0 m 169 239 l 225 358 l 769 358 l 825 239 l 169 239 m 490 1165 q 376 1188 428 1165 q 294 1251 325 1211 q 264 1339 264 1290 q 282 1390 264 1369 q 331 1410 300 1410 q 376 1394 356 1410 q 397 1353 397 1379 q 427 1300 397 1321 q 490 1279 457 1279 q 558 1300 533 1279 q 582 1353 582 1321 q 603 1394 582 1379 q 650 1410 624 1410 q 698 1390 681 1410 q 715 1339 715 1369 q 685 1251 715 1290 q 603 1188 654 1211 q 490 1165 553 1165 m 588 1439 q 522 1455 551 1439 q 467 1496 493 1471 q 439 1520 450 1511 q 414 1529 428 1529 q 390 1519 400 1529 q 369 1490 381 1508 q 335 1460 357 1469 q 289 1461 313 1451 q 256 1495 265 1472 q 261 1542 247 1518 q 325 1619 290 1594 q 403 1643 360 1643 q 479 1620 451 1643 q 525 1582 507 1597 q 552 1563 542 1568 q 572 1557 563 1557 q 603 1578 589 1557 q 641 1610 618 1600 q 686 1610 664 1619 q 721 1574 713 1597 q 714 1526 729 1550 q 656 1460 688 1481 q 588 1439 625 1439 z "},"Â":{"ha":976,"x_min":15,"x_max":965,"o":"m 96 0 q 36 33 57 0 q 32 104 15 67 l 422 1036 q 490 1085 443 1085 q 558 1036 540 1085 l 950 101 q 945 31 965 63 q 885 0 925 0 q 845 12 864 0 q 818 44 826 24 l 474 900 l 513 900 l 163 44 q 134 11 153 22 q 96 0 115 0 m 169 239 l 225 358 l 769 358 l 825 239 l 169 239 m 335 1179 q 284 1195 304 1179 q 264 1236 264 1211 q 297 1297 264 1272 l 453 1399 q 489 1410 471 1410 q 508 1408 500 1410 q 526 1399 517 1406 l 681 1297 q 714 1236 714 1272 q 694 1195 714 1211 q 644 1179 675 1179 q 620 1183 631 1179 q 599 1194 610 1186 l 489 1272 l 379 1194 q 335 1179 360 1179 z "},"Ấ":{"ha":976,"x_min":15,"x_max":965,"o":"m 96 0 q 36 33 57 0 q 32 104 15 67 l 422 1036 q 490 1085 443 1085 q 558 1036 540 1085 l 950 101 q 945 31 965 63 q 885 0 925 0 q 845 12 864 0 q 818 44 826 24 l 474 900 l 513 900 l 163 44 q 134 11 153 22 q 96 0 115 0 m 169 239 l 225 358 l 769 358 l 825 239 l 169 239 m 335 1179 q 284 1195 304 1179 q 264 1236 264 1211 q 297 1297 264 1272 l 453 1399 q 489 1410 471 1410 q 508 1408 500 1410 q 526 1399 517 1406 l 681 1297 q 714 1236 714 1272 q 694 1195 714 1211 q 644 1179 675 1179 q 620 1183 631 1179 q 599 1194 610 1186 l 489 1272 l 379 1194 q 335 1179 360 1179 m 639 1404 q 588 1424 608 1404 q 568 1475 568 1444 q 585 1522 568 1504 l 721 1658 q 771 1679 742 1679 q 822 1658 803 1679 q 842 1607 842 1638 q 838 1581 842 1593 q 822 1558 833 1568 l 688 1424 q 639 1404 668 1404 z "},"Ậ":{"ha":976,"x_min":15,"x_max":965,"o":"m 96 0 q 36 33 57 0 q 32 104 15 67 l 422 1036 q 490 1085 443 1085 q 558 1036 540 1085 l 950 101 q 945 31 965 63 q 885 0 925 0 q 845 12 864 0 q 818 44 826 24 l 474 900 l 513 900 l 163 44 q 134 11 153 22 q 96 0 115 0 m 169 239 l 225 358 l 769 358 l 825 239 l 169 239 m 335 1179 q 284 1195 304 1179 q 264 1236 264 1211 q 297 1297 264 1272 l 453 1399 q 489 1410 471 1410 q 508 1408 500 1410 q 526 1399 517 1406 l 681 1297 q 714 1236 714 1272 q 694 1195 714 1211 q 644 1179 675 1179 q 620 1183 631 1179 q 599 1194 610 1186 l 489 1272 l 379 1194 q 335 1179 360 1179 m 489 -311 q 424 -284 451 -311 q 397 -219 397 -257 q 424 -155 397 -182 q 489 -128 451 -128 q 553 -155 526 -128 q 581 -219 581 -182 q 553 -284 581 -257 q 489 -311 526 -311 z "},"Ầ":{"ha":976,"x_min":15,"x_max":965,"o":"m 96 0 q 36 33 57 0 q 32 104 15 67 l 422 1036 q 490 1085 443 1085 q 558 1036 540 1085 l 950 101 q 945 31 965 63 q 885 0 925 0 q 845 12 864 0 q 818 44 826 24 l 474 900 l 513 900 l 163 44 q 134 11 153 22 q 96 0 115 0 m 169 239 l 225 358 l 769 358 l 825 239 l 169 239 m 335 1179 q 284 1195 304 1179 q 264 1236 264 1211 q 297 1297 264 1272 l 453 1399 q 489 1410 471 1410 q 508 1408 500 1410 q 526 1399 517 1406 l 681 1297 q 714 1236 714 1272 q 694 1195 714 1211 q 644 1179 675 1179 q 620 1183 631 1179 q 599 1194 610 1186 l 489 1272 l 379 1194 q 335 1179 360 1179 m 629 1404 q 581 1424 599 1404 l 444 1558 q 426 1607 426 1576 q 446 1658 426 1638 q 496 1679 465 1679 q 547 1658 525 1679 l 682 1522 q 700 1475 700 1504 q 680 1424 700 1444 q 629 1404 660 1404 z "},"Ẩ":{"ha":976,"x_min":15,"x_max":965,"o":"m 96 0 q 36 33 57 0 q 32 104 15 67 l 422 1036 q 490 1085 443 1085 q 558 1036 540 1085 l 950 101 q 945 31 965 63 q 885 0 925 0 q 845 12 864 0 q 818 44 826 24 l 474 900 l 513 900 l 163 44 q 134 11 153 22 q 96 0 115 0 m 169 239 l 225 358 l 769 358 l 825 239 l 169 239 m 342 1179 q 291 1195 311 1179 q 271 1236 271 1211 q 304 1297 271 1272 l 460 1399 q 496 1410 478 1410 q 515 1408 507 1410 q 533 1399 524 1406 l 688 1297 q 721 1236 721 1272 q 701 1195 721 1211 q 651 1179 682 1179 q 627 1183 638 1179 q 606 1194 617 1186 l 496 1272 l 386 1194 q 342 1179 367 1179 m 640 1360 q 596 1378 614 1360 q 578 1422 578 1396 l 578 1453 q 633 1521 578 1508 l 669 1529 q 710 1549 693 1535 q 726 1585 726 1563 q 710 1625 726 1613 q 667 1638 693 1638 q 630 1631 647 1638 q 601 1615 613 1624 q 580 1604 593 1608 q 556 1600 567 1600 q 519 1612 535 1600 q 504 1649 504 1624 q 526 1697 504 1679 q 588 1731 554 1719 q 664 1743 621 1743 q 786 1699 739 1743 q 833 1589 833 1654 q 788 1488 835 1519 q 676 1447 742 1456 l 703 1450 q 685 1381 703 1403 q 640 1360 667 1360 z "},"Ẫ":{"ha":976,"x_min":15,"x_max":965,"o":"m 96 0 q 36 33 57 0 q 32 104 15 67 l 422 1036 q 490 1085 443 1085 q 558 1036 540 1085 l 950 101 q 945 31 965 63 q 885 0 925 0 q 845 12 864 0 q 818 44 826 24 l 474 900 l 513 900 l 163 44 q 134 11 153 22 q 96 0 115 0 m 169 239 l 225 358 l 769 358 l 825 239 l 169 239 m 342 1179 q 291 1195 311 1179 q 271 1236 271 1211 q 304 1297 271 1272 l 460 1399 q 496 1410 478 1410 q 515 1408 507 1410 q 533 1399 524 1406 l 688 1297 q 721 1236 721 1272 q 701 1195 721 1211 q 651 1179 682 1179 q 627 1183 638 1179 q 606 1194 617 1186 l 496 1272 l 386 1194 q 342 1179 367 1179 m 576 1444 q 511 1460 540 1444 q 456 1501 482 1476 q 428 1526 439 1517 q 403 1535 417 1535 q 379 1524 389 1535 q 358 1496 369 1514 q 324 1466 346 1475 q 278 1467 301 1457 q 245 1501 254 1478 q 250 1547 236 1524 q 314 1624 279 1600 q 392 1649 349 1649 q 468 1626 440 1649 q 514 1588 496 1603 q 541 1568 531 1574 q 561 1563 551 1563 q 592 1583 578 1563 q 630 1615 607 1606 q 675 1615 653 1625 q 710 1579 701 1603 q 703 1532 718 1556 q 645 1465 676 1486 q 576 1444 614 1444 z "},"Ȁ":{"ha":976,"x_min":15,"x_max":965,"o":"m 96 0 q 36 33 57 0 q 32 104 15 67 l 422 1036 q 490 1085 443 1085 q 558 1036 540 1085 l 950 101 q 945 31 965 63 q 885 0 925 0 q 845 12 864 0 q 818 44 826 24 l 474 900 l 513 900 l 163 44 q 134 11 153 22 q 96 0 115 0 m 169 239 l 225 358 l 769 358 l 825 239 l 169 239 m 628 1182 q 575 1218 592 1182 l 497 1382 q 492 1408 492 1394 q 513 1458 492 1436 q 564 1479 533 1479 q 605 1467 586 1479 q 629 1435 624 1454 l 682 1263 q 686 1240 686 1250 q 667 1197 686 1213 q 628 1182 647 1182 m 429 1182 q 375 1218 394 1182 l 299 1382 q 294 1396 294 1389 q 292 1408 293 1403 q 313 1458 292 1436 q 364 1479 333 1479 q 405 1467 386 1479 q 429 1435 424 1454 l 483 1263 q 485 1251 485 1257 q 486 1240 486 1244 q 467 1197 486 1213 q 429 1182 449 1182 z "},"Ä":{"ha":976,"x_min":15,"x_max":965,"o":"m 96 0 q 36 33 57 0 q 32 104 15 67 l 422 1036 q 490 1085 443 1085 q 558 1036 540 1085 l 950 101 q 945 31 965 63 q 885 0 925 0 q 845 12 864 0 q 818 44 826 24 l 474 900 l 513 900 l 163 44 q 134 11 153 22 q 96 0 115 0 m 169 239 l 225 358 l 769 358 l 825 239 l 169 239 m 335 1201 q 275 1226 300 1201 q 250 1285 250 1250 q 275 1343 250 1318 q 335 1368 300 1368 q 393 1343 368 1368 q 418 1285 418 1318 q 393 1226 418 1250 q 335 1201 368 1201 m 643 1201 q 584 1226 608 1201 q 560 1285 560 1250 q 584 1343 560 1318 q 643 1368 608 1368 q 701 1343 676 1368 q 726 1285 726 1318 q 701 1226 726 1250 q 643 1201 676 1201 z "},"Ạ":{"ha":976,"x_min":15,"x_max":965,"o":"m 96 0 q 36 33 57 0 q 32 104 15 67 l 422 1036 q 490 1085 443 1085 q 558 1036 540 1085 l 950 101 q 945 31 965 63 q 885 0 925 0 q 845 12 864 0 q 818 44 826 24 l 474 900 l 513 900 l 163 44 q 134 11 153 22 q 96 0 115 0 m 169 239 l 225 358 l 769 358 l 825 239 l 169 239 m 489 -311 q 424 -284 451 -311 q 397 -219 397 -257 q 424 -155 397 -182 q 489 -128 451 -128 q 553 -155 526 -128 q 581 -219 581 -182 q 553 -284 581 -257 q 489 -311 526 -311 z "},"À":{"ha":976,"x_min":15,"x_max":965,"o":"m 96 0 q 36 33 57 0 q 32 104 15 67 l 422 1036 q 490 1085 443 1085 q 558 1036 540 1085 l 950 101 q 945 31 965 63 q 885 0 925 0 q 845 12 864 0 q 818 44 826 24 l 474 900 l 513 900 l 163 44 q 134 11 153 22 q 96 0 115 0 m 169 239 l 225 358 l 769 358 l 825 239 l 169 239 m 485 1204 q 436 1224 454 1204 l 300 1358 q 282 1407 282 1376 q 301 1458 282 1438 q 351 1479 321 1479 q 403 1458 381 1479 l 538 1322 q 556 1275 556 1304 q 535 1224 556 1244 q 485 1204 515 1204 z "},"Ả":{"ha":976,"x_min":15,"x_max":965,"o":"m 96 0 q 36 33 57 0 q 32 104 15 67 l 422 1036 q 490 1085 443 1085 q 558 1036 540 1085 l 950 101 q 945 31 965 63 q 885 0 925 0 q 845 12 864 0 q 818 44 826 24 l 474 900 l 513 900 l 163 44 q 134 11 153 22 q 96 0 115 0 m 169 239 l 225 358 l 769 358 l 825 239 l 169 239 m 489 1160 q 444 1178 463 1160 q 426 1222 426 1196 l 426 1253 q 482 1321 426 1308 l 518 1329 q 558 1349 542 1335 q 575 1385 575 1363 q 558 1425 575 1413 q 515 1438 542 1438 q 478 1431 496 1438 q 450 1415 461 1424 q 428 1404 442 1408 q 404 1400 415 1400 q 368 1412 383 1400 q 353 1449 353 1424 q 375 1497 353 1479 q 436 1531 403 1519 q 513 1543 469 1543 q 635 1499 588 1543 q 682 1389 682 1454 q 637 1288 683 1319 q 525 1247 590 1256 l 551 1250 q 533 1181 551 1203 q 489 1160 515 1160 z "},"Ȃ":{"ha":976,"x_min":15,"x_max":965,"o":"m 96 0 q 36 33 57 0 q 32 104 15 67 l 422 1036 q 490 1085 443 1085 q 558 1036 540 1085 l 950 101 q 945 31 965 63 q 885 0 925 0 q 845 12 864 0 q 818 44 826 24 l 474 900 l 513 900 l 163 44 q 134 11 153 22 q 96 0 115 0 m 169 239 l 225 358 l 769 358 l 825 239 l 169 239 m 329 1165 q 281 1185 299 1165 q 263 1236 263 1206 q 293 1325 263 1286 q 375 1387 324 1364 q 489 1410 426 1410 q 602 1387 551 1410 q 683 1325 653 1364 q 714 1236 714 1286 q 697 1185 714 1206 q 649 1165 679 1165 q 601 1181 622 1165 q 581 1222 581 1196 q 556 1275 581 1254 q 489 1296 532 1296 q 426 1275 456 1296 q 396 1222 396 1254 q 375 1181 396 1196 q 329 1165 354 1165 z "},"Ā":{"ha":976,"x_min":15,"x_max":965,"o":"m 96 0 q 36 33 57 0 q 32 104 15 67 l 422 1036 q 490 1085 443 1085 q 558 1036 540 1085 l 950 101 q 945 31 965 63 q 885 0 925 0 q 845 12 864 0 q 818 44 826 24 l 474 900 l 513 900 l 163 44 q 134 11 153 22 q 96 0 115 0 m 169 239 l 225 358 l 769 358 l 825 239 l 169 239 m 314 1224 q 263 1240 283 1224 q 243 1288 243 1257 q 263 1333 243 1318 q 314 1349 283 1349 l 661 1349 q 713 1333 692 1349 q 733 1288 733 1318 q 713 1240 733 1257 q 661 1224 692 1224 l 314 1224 z "},"Ą":{"ha":976,"x_min":15,"x_max":1053,"o":"m 96 0 q 36 33 57 0 q 32 104 15 67 l 422 1036 q 490 1085 443 1085 q 558 1036 540 1085 l 950 101 q 945 31 965 63 q 885 0 925 0 q 845 12 864 0 q 818 44 826 24 l 474 900 l 513 900 l 163 44 q 134 11 153 22 q 96 0 115 0 m 169 239 l 225 358 l 769 358 l 825 239 l 169 239 m 879 -342 q 793 -318 832 -342 q 730 -255 754 -294 q 706 -168 706 -215 q 778 -26 706 -86 q 802 -3 793 -15 q 817 18 811 8 q 879 56 836 56 q 928 36 908 56 q 950 -14 949 17 q 928 -77 950 -46 q 861 -140 906 -108 q 851 -153 854 -146 q 847 -168 847 -161 q 856 -191 847 -182 q 879 -200 865 -200 q 889 -199 885 -200 q 896 -194 893 -197 l 939 -162 q 982 -149 960 -149 q 1033 -169 1014 -149 q 1053 -219 1053 -189 q 1028 -276 1053 -253 l 975 -311 q 879 -342 932 -342 z "},"Å":{"ha":976,"x_min":15,"x_max":965,"o":"m 96 0 q 36 33 57 0 q 32 104 15 67 l 422 1036 q 490 1085 443 1085 q 558 1036 540 1085 l 950 101 q 945 31 965 63 q 885 0 925 0 q 845 12 864 0 q 818 44 826 24 l 474 900 l 513 900 l 163 44 q 134 11 153 22 q 96 0 115 0 m 169 239 l 225 358 l 769 358 l 825 239 l 169 239 m 489 1139 q 382 1181 424 1139 q 340 1288 340 1222 q 382 1395 340 1353 q 489 1438 424 1438 q 596 1395 554 1438 q 638 1288 638 1353 q 596 1181 638 1222 q 489 1139 554 1139 m 489 1217 q 540 1237 521 1217 q 560 1288 560 1257 q 540 1340 560 1319 q 489 1360 521 1360 q 438 1340 458 1360 q 417 1288 417 1319 q 438 1237 417 1257 q 489 1217 458 1217 z "},"Ǻ":{"ha":976,"x_min":15,"x_max":965,"o":"m 96 0 q 36 33 57 0 q 32 104 15 67 l 422 1036 q 490 1085 443 1085 q 558 1036 540 1085 l 950 101 q 945 31 965 63 q 885 0 925 0 q 845 12 864 0 q 818 44 826 24 l 474 900 l 513 900 l 163 44 q 134 11 153 22 q 96 0 115 0 m 169 239 l 225 358 l 769 358 l 825 239 l 169 239 m 489 1139 q 382 1181 424 1139 q 340 1288 340 1222 q 382 1395 340 1353 q 489 1438 424 1438 q 596 1395 554 1438 q 638 1288 638 1353 q 596 1181 638 1222 q 489 1139 554 1139 m 489 1217 q 540 1237 521 1217 q 560 1288 560 1257 q 540 1340 560 1319 q 489 1360 521 1360 q 438 1340 458 1360 q 417 1288 417 1319 q 438 1237 417 1257 q 489 1217 458 1217 m 494 1488 q 444 1508 464 1488 q 424 1558 424 1528 q 440 1606 424 1588 l 576 1742 q 626 1763 597 1763 q 678 1742 658 1763 q 697 1690 697 1721 q 693 1664 697 1676 q 678 1642 689 1651 l 543 1507 q 494 1488 524 1488 z "},"Ã":{"ha":976,"x_min":15,"x_max":965,"o":"m 96 0 q 36 33 57 0 q 32 104 15 67 l 422 1036 q 490 1085 443 1085 q 558 1036 540 1085 l 950 101 q 945 31 965 63 q 885 0 925 0 q 845 12 864 0 q 818 44 826 24 l 474 900 l 513 900 l 163 44 q 134 11 153 22 q 96 0 115 0 m 169 239 l 225 358 l 769 358 l 825 239 l 169 239 m 586 1197 q 521 1213 550 1197 q 465 1254 492 1229 q 438 1278 449 1269 q 413 1288 426 1288 q 389 1277 399 1288 q 368 1249 379 1267 q 333 1219 356 1228 q 288 1219 311 1210 q 255 1253 264 1231 q 260 1300 246 1276 q 324 1377 289 1353 q 401 1401 358 1401 q 478 1378 450 1401 q 524 1340 506 1356 q 551 1321 540 1326 q 571 1315 561 1315 q 601 1336 586 1315 q 639 1368 617 1358 q 685 1368 661 1378 q 719 1332 711 1356 q 713 1285 728 1308 q 654 1218 685 1239 q 586 1197 624 1197 z "},"Æ":{"ha":1390,"x_min":21,"x_max":1328,"o":"m 99 0 q 53 16 72 0 q 27 56 33 32 q 35 104 21 81 l 618 1040 q 649 1072 631 1060 q 694 1085 668 1085 l 1257 1085 q 1308 1066 1289 1085 q 1328 1017 1328 1047 q 1308 969 1328 988 q 1257 951 1289 951 l 757 951 l 757 614 l 1100 614 q 1151 595 1132 614 q 1171 547 1171 576 q 1151 499 1171 518 q 1100 481 1132 481 l 757 481 l 757 133 l 1257 133 q 1308 115 1289 133 q 1328 68 1328 97 q 1308 19 1328 38 q 1257 0 1289 0 l 685 0 q 633 21 654 0 q 613 72 613 42 l 613 239 l 285 239 l 165 44 q 99 0 139 0 m 358 358 l 613 358 l 613 832 l 646 836 l 358 358 z "},"Ǽ":{"ha":1390,"x_min":21,"x_max":1328,"o":"m 99 0 q 53 16 72 0 q 27 56 33 32 q 35 104 21 81 l 618 1040 q 649 1072 631 1060 q 694 1085 668 1085 l 1257 1085 q 1308 1066 1289 1085 q 1328 1017 1328 1047 q 1308 969 1328 988 q 1257 951 1289 951 l 757 951 l 757 614 l 1100 614 q 1151 595 1132 614 q 1171 547 1171 576 q 1151 499 1171 518 q 1100 481 1132 481 l 757 481 l 757 133 l 1257 133 q 1308 115 1289 133 q 1328 68 1328 97 q 1308 19 1328 38 q 1257 0 1289 0 l 685 0 q 633 21 654 0 q 613 72 613 42 l 613 239 l 285 239 l 165 44 q 99 0 139 0 m 358 358 l 613 358 l 613 832 l 646 836 l 358 358 m 896 1204 q 845 1224 865 1204 q 825 1275 825 1244 q 842 1322 825 1304 l 978 1458 q 1028 1479 999 1479 q 1079 1458 1060 1479 q 1099 1407 1099 1438 q 1094 1381 1099 1393 q 1079 1358 1090 1368 l 944 1224 q 896 1204 925 1204 z "},"B":{"ha":1004,"x_min":139,"x_max":928,"o":"m 211 0 q 160 21 181 0 q 139 72 139 42 l 139 1013 q 160 1065 139 1044 q 211 1085 181 1085 l 543 1085 q 709 1048 638 1085 q 822 946 781 1011 q 863 796 863 881 q 826 673 863 728 q 725 586 789 618 q 872 499 817 564 q 928 328 928 433 q 883 158 928 232 q 757 42 838 85 q 572 0 676 0 l 211 0 m 283 133 l 572 133 q 685 156 636 133 q 761 221 733 178 q 789 328 789 264 q 761 426 789 388 q 685 485 733 465 q 572 506 636 506 l 283 506 l 283 133 m 283 639 l 543 639 q 673 678 622 639 q 724 796 724 717 q 673 913 724 875 q 543 951 622 951 l 283 951 l 283 639 z "},"C":{"ha":1079,"x_min":89,"x_max":992,"o":"m 625 -14 q 415 28 513 -14 q 244 147 317 71 q 130 324 171 222 q 89 543 89 425 q 130 760 89 660 q 244 937 171 861 q 414 1056 317 1013 q 625 1099 511 1099 q 809 1071 732 1099 q 964 979 886 1043 q 981 962 975 971 q 990 944 988 953 q 992 922 992 935 q 973 878 992 896 q 928 859 954 861 q 876 876 901 857 q 770 944 825 921 q 625 968 715 968 q 471 935 543 968 q 344 843 399 901 q 258 708 289 785 q 228 543 228 631 q 258 377 228 454 q 344 242 289 300 q 471 151 399 183 q 625 118 543 118 q 759 142 696 118 q 881 210 822 167 q 930 226 906 228 q 971 206 954 224 q 988 158 988 189 q 982 131 988 144 q 965 107 976 118 q 805 17 890 47 q 625 -14 719 -14 z "},"Ć":{"ha":1079,"x_min":89,"x_max":992,"o":"m 625 -14 q 415 28 513 -14 q 244 147 317 71 q 130 324 171 222 q 89 543 89 425 q 130 760 89 660 q 244 937 171 861 q 414 1056 317 1013 q 625 1099 511 1099 q 809 1071 732 1099 q 964 979 886 1043 q 981 962 975 971 q 990 944 988 953 q 992 922 992 935 q 973 878 992 896 q 928 859 954 861 q 876 876 901 857 q 770 944 825 921 q 625 968 715 968 q 471 935 543 968 q 344 843 399 901 q 258 708 289 785 q 228 543 228 631 q 258 377 228 454 q 344 242 289 300 q 471 151 399 183 q 625 118 543 118 q 759 142 696 118 q 881 210 822 167 q 930 226 906 228 q 971 206 954 224 q 988 158 988 189 q 982 131 988 144 q 965 107 976 118 q 805 17 890 47 q 625 -14 719 -14 m 629 1204 q 578 1224 599 1204 q 558 1275 558 1244 q 575 1322 558 1304 l 711 1458 q 761 1479 732 1479 q 813 1458 793 1479 q 832 1407 832 1438 q 828 1381 832 1393 q 813 1358 824 1368 l 678 1224 q 629 1204 658 1204 z "},"Č":{"ha":1079,"x_min":89,"x_max":992,"o":"m 625 -14 q 415 28 513 -14 q 244 147 317 71 q 130 324 171 222 q 89 543 89 425 q 130 760 89 660 q 244 937 171 861 q 414 1056 317 1013 q 625 1099 511 1099 q 809 1071 732 1099 q 964 979 886 1043 q 981 962 975 971 q 990 944 988 953 q 992 922 992 935 q 973 878 992 896 q 928 859 954 861 q 876 876 901 857 q 770 944 825 921 q 625 968 715 968 q 471 935 543 968 q 344 843 399 901 q 258 708 289 785 q 228 543 228 631 q 258 377 228 454 q 344 242 289 300 q 471 151 399 183 q 625 118 543 118 q 759 142 696 118 q 881 210 822 167 q 930 226 906 228 q 971 206 954 224 q 988 158 988 189 q 982 131 988 144 q 965 107 976 118 q 805 17 890 47 q 625 -14 719 -14 m 624 1193 q 588 1204 603 1193 l 432 1307 q 399 1367 399 1332 q 433 1408 399 1394 q 514 1388 467 1421 l 624 1314 l 733 1388 q 817 1409 786 1424 q 849 1367 849 1394 q 815 1307 849 1332 l 661 1204 q 624 1193 644 1193 z "},"Ç":{"ha":1079,"x_min":89,"x_max":992,"o":"m 625 -14 q 415 28 513 -14 q 244 147 317 71 q 130 324 171 222 q 89 543 89 425 q 130 760 89 660 q 244 937 171 861 q 414 1056 317 1013 q 625 1099 511 1099 q 809 1071 732 1099 q 964 979 886 1043 q 981 962 975 971 q 990 944 988 953 q 992 922 992 935 q 973 878 992 896 q 928 859 954 861 q 876 876 901 857 q 770 944 825 921 q 625 968 715 968 q 471 935 543 968 q 344 843 399 901 q 258 708 289 785 q 228 543 228 631 q 258 377 228 454 q 344 242 289 300 q 471 151 399 183 q 625 118 543 118 q 759 142 696 118 q 881 210 822 167 q 930 226 906 228 q 971 206 954 224 q 988 158 988 189 q 982 131 988 144 q 965 107 976 118 q 805 17 890 47 q 625 -14 719 -14 m 608 -325 q 472 -290 525 -325 q 418 -208 418 -256 q 438 -161 418 -181 q 483 -142 457 -142 q 512 -149 500 -142 q 531 -176 524 -157 q 562 -213 540 -201 q 610 -225 583 -225 q 656 -212 638 -225 q 674 -176 674 -199 q 660 -136 674 -151 q 611 -115 646 -121 q 551 -87 568 -108 q 549 -21 533 -65 l 563 18 q 592 60 572 46 q 642 75 611 75 q 694 53 676 75 q 696 -1 711 31 l 675 -49 q 781 -96 747 -64 q 814 -181 814 -128 q 789 -250 814 -217 q 718 -304 764 -283 q 608 -325 672 -325 z "},"Ĉ":{"ha":1079,"x_min":89,"x_max":992,"o":"m 625 -14 q 415 28 513 -14 q 244 147 317 71 q 130 324 171 222 q 89 543 89 425 q 130 760 89 660 q 244 937 171 861 q 414 1056 317 1013 q 625 1099 511 1099 q 809 1071 732 1099 q 964 979 886 1043 q 981 962 975 971 q 990 944 988 953 q 992 922 992 935 q 973 878 992 896 q 928 859 954 861 q 876 876 901 857 q 770 944 825 921 q 625 968 715 968 q 471 935 543 968 q 344 843 399 901 q 258 708 289 785 q 228 543 228 631 q 258 377 228 454 q 344 242 289 300 q 471 151 399 183 q 625 118 543 118 q 759 142 696 118 q 881 210 822 167 q 930 226 906 228 q 971 206 954 224 q 988 158 988 189 q 982 131 988 144 q 965 107 976 118 q 805 17 890 47 q 625 -14 719 -14 m 469 1179 q 419 1195 439 1179 q 399 1236 399 1211 q 432 1297 399 1272 l 588 1399 q 624 1410 606 1410 q 643 1408 635 1410 q 661 1399 651 1406 l 815 1297 q 849 1236 849 1272 q 829 1195 849 1211 q 779 1179 810 1179 q 755 1183 765 1179 q 733 1194 744 1186 l 624 1272 l 514 1194 q 469 1179 494 1179 z "},"Ċ":{"ha":1079,"x_min":89,"x_max":992,"o":"m 625 -14 q 415 28 513 -14 q 244 147 317 71 q 130 324 171 222 q 89 543 89 425 q 130 760 89 660 q 244 937 171 861 q 414 1056 317 1013 q 625 1099 511 1099 q 809 1071 732 1099 q 964 979 886 1043 q 981 962 975 971 q 990 944 988 953 q 992 922 992 935 q 973 878 992 896 q 928 859 954 861 q 876 876 901 857 q 770 944 825 921 q 625 968 715 968 q 471 935 543 968 q 344 843 399 901 q 258 708 289 785 q 228 543 228 631 q 258 377 228 454 q 344 242 289 300 q 471 151 399 183 q 625 118 543 118 q 759 142 696 118 q 881 210 822 167 q 930 226 906 228 q 971 206 954 224 q 988 158 988 189 q 982 131 988 144 q 965 107 976 118 q 805 17 890 47 q 625 -14 719 -14 m 624 1208 q 559 1235 586 1208 q 532 1300 532 1263 q 559 1365 532 1338 q 624 1392 586 1392 q 688 1365 661 1392 q 715 1300 715 1338 q 688 1235 715 1263 q 624 1208 661 1208 z "},"D":{"ha":1088,"x_min":139,"x_max":1000,"o":"m 211 0 q 160 21 181 0 q 139 72 139 42 l 139 1013 q 160 1065 139 1044 q 211 1085 181 1085 l 463 1085 q 680 1045 582 1085 q 850 933 778 1006 q 961 761 922 860 q 1000 543 1000 663 q 961 324 1000 424 q 850 152 922 225 q 680 40 778 79 q 463 0 582 0 l 211 0 m 283 128 l 463 128 q 669 181 579 128 q 810 328 758 235 q 861 543 861 422 q 810 758 861 665 q 669 904 758 851 q 463 957 579 957 l 283 957 l 283 128 z "},"Ð":{"ha":1088,"x_min":-1,"x_max":1000,"o":"m 69 481 q 19 497 39 481 q -1 543 -1 514 q 19 589 -1 572 q 69 606 39 606 l 461 606 q 513 589 493 606 q 533 543 533 572 q 513 497 533 514 q 461 481 493 481 l 69 481 m 211 0 q 160 21 181 0 q 139 72 139 42 l 139 1013 q 160 1065 139 1044 q 211 1085 181 1085 l 463 1085 q 680 1045 582 1085 q 850 933 778 1006 q 961 761 922 860 q 1000 543 1000 663 q 961 324 1000 424 q 850 152 922 225 q 680 40 778 79 q 463 0 582 0 l 211 0 m 283 128 l 463 128 q 669 181 579 128 q 810 328 758 235 q 861 543 861 422 q 810 758 861 665 q 669 904 758 851 q 463 957 579 957 l 283 957 l 283 128 z "},"Ď":{"ha":1088,"x_min":139,"x_max":1000,"o":"m 211 0 q 160 21 181 0 q 139 72 139 42 l 139 1013 q 160 1065 139 1044 q 211 1085 181 1085 l 463 1085 q 680 1045 582 1085 q 850 933 778 1006 q 961 761 922 860 q 1000 543 1000 663 q 961 324 1000 424 q 850 152 922 225 q 680 40 778 79 q 463 0 582 0 l 211 0 m 283 128 l 463 128 q 669 181 579 128 q 810 328 758 235 q 861 543 861 422 q 810 758 861 665 q 669 904 758 851 q 463 957 579 957 l 283 957 l 283 128 m 544 1193 q 508 1204 524 1193 l 353 1307 q 319 1367 319 1332 q 353 1408 319 1394 q 435 1388 388 1421 l 544 1314 l 654 1388 q 738 1409 707 1424 q 769 1367 769 1394 q 736 1307 769 1332 l 582 1204 q 544 1193 565 1193 z "},"Đ":{"ha":1088,"x_min":-1,"x_max":1000,"o":"m 69 481 q 19 497 39 481 q -1 543 -1 514 q 19 589 -1 572 q 69 606 39 606 l 461 606 q 513 589 493 606 q 533 543 533 572 q 513 497 533 514 q 461 481 493 481 l 69 481 m 211 0 q 160 21 181 0 q 139 72 139 42 l 139 1013 q 160 1065 139 1044 q 211 1085 181 1085 l 463 1085 q 680 1045 582 1085 q 850 933 778 1006 q 961 761 922 860 q 1000 543 1000 663 q 961 324 1000 424 q 850 152 922 225 q 680 40 778 79 q 463 0 582 0 l 211 0 m 283 128 l 463 128 q 669 181 579 128 q 810 328 758 235 q 861 543 861 422 q 810 758 861 665 q 669 904 758 851 q 463 957 579 957 l 283 957 l 283 128 z "},"E":{"ha":972,"x_min":139,"x_max":910,"o":"m 211 0 q 160 21 181 0 q 139 72 139 42 l 139 1013 q 160 1065 139 1044 q 211 1085 181 1085 l 839 1085 q 890 1066 871 1085 q 910 1017 910 1047 q 890 969 910 988 q 839 951 871 951 l 283 951 l 283 614 l 682 614 q 733 595 714 614 q 753 547 753 576 q 733 499 753 518 q 682 481 714 481 l 283 481 l 283 133 l 839 133 q 890 115 871 133 q 910 68 910 97 q 890 19 910 38 q 839 0 871 0 l 211 0 z "},"É":{"ha":972,"x_min":139,"x_max":910,"o":"m 211 0 q 160 21 181 0 q 139 72 139 42 l 139 1013 q 160 1065 139 1044 q 211 1085 181 1085 l 839 1085 q 890 1066 871 1085 q 910 1017 910 1047 q 890 969 910 988 q 839 951 871 951 l 283 951 l 283 614 l 682 614 q 733 595 714 614 q 753 547 753 576 q 733 499 753 518 q 682 481 714 481 l 283 481 l 283 133 l 839 133 q 890 115 871 133 q 910 68 910 97 q 890 19 910 38 q 839 0 871 0 l 211 0 m 547 1204 q 497 1224 517 1204 q 476 1275 476 1244 q 493 1322 476 1304 l 629 1458 q 679 1479 650 1479 q 731 1458 711 1479 q 750 1407 750 1438 q 746 1381 750 1393 q 731 1358 742 1368 l 596 1224 q 547 1204 576 1204 z "},"Ĕ":{"ha":972,"x_min":139,"x_max":910,"o":"m 211 0 q 160 21 181 0 q 139 72 139 42 l 139 1013 q 160 1065 139 1044 q 211 1085 181 1085 l 839 1085 q 890 1066 871 1085 q 910 1017 910 1047 q 890 969 910 988 q 839 951 871 951 l 283 951 l 283 614 l 682 614 q 733 595 714 614 q 753 547 753 576 q 733 499 753 518 q 682 481 714 481 l 283 481 l 283 133 l 839 133 q 890 115 871 133 q 910 68 910 97 q 890 19 910 38 q 839 0 871 0 l 211 0 m 542 1165 q 428 1188 479 1165 q 346 1251 376 1211 q 315 1339 315 1290 q 333 1390 315 1369 q 382 1410 351 1410 q 428 1394 407 1410 q 449 1353 449 1379 q 478 1300 449 1321 q 542 1279 508 1279 q 609 1300 585 1279 q 633 1353 633 1321 q 654 1394 633 1379 q 701 1410 675 1410 q 749 1390 732 1410 q 767 1339 767 1369 q 736 1251 767 1290 q 655 1188 706 1211 q 542 1165 604 1165 z "},"Ě":{"ha":972,"x_min":139,"x_max":910,"o":"m 211 0 q 160 21 181 0 q 139 72 139 42 l 139 1013 q 160 1065 139 1044 q 211 1085 181 1085 l 839 1085 q 890 1066 871 1085 q 910 1017 910 1047 q 890 969 910 988 q 839 951 871 951 l 283 951 l 283 614 l 682 614 q 733 595 714 614 q 753 547 753 576 q 733 499 753 518 q 682 481 714 481 l 283 481 l 283 133 l 839 133 q 890 115 871 133 q 910 68 910 97 q 890 19 910 38 q 839 0 871 0 l 211 0 m 542 1193 q 506 1204 521 1193 l 350 1307 q 317 1367 317 1332 q 351 1408 317 1394 q 432 1388 385 1421 l 542 1314 l 651 1388 q 735 1409 704 1424 q 767 1367 767 1394 q 733 1307 767 1332 l 579 1204 q 542 1193 563 1193 z "},"Ê":{"ha":972,"x_min":139,"x_max":910,"o":"m 211 0 q 160 21 181 0 q 139 72 139 42 l 139 1013 q 160 1065 139 1044 q 211 1085 181 1085 l 839 1085 q 890 1066 871 1085 q 910 1017 910 1047 q 890 969 910 988 q 839 951 871 951 l 283 951 l 283 614 l 682 614 q 733 595 714 614 q 753 547 753 576 q 733 499 753 518 q 682 481 714 481 l 283 481 l 283 133 l 839 133 q 890 115 871 133 q 910 68 910 97 q 890 19 910 38 q 839 0 871 0 l 211 0 m 388 1179 q 337 1195 357 1179 q 317 1236 317 1211 q 350 1297 317 1272 l 506 1399 q 542 1410 524 1410 q 561 1408 553 1410 q 579 1399 569 1406 l 733 1297 q 767 1236 767 1272 q 747 1195 767 1211 q 697 1179 728 1179 q 673 1183 683 1179 q 651 1194 663 1186 l 542 1272 l 432 1194 q 388 1179 413 1179 z "},"Ế":{"ha":972,"x_min":139,"x_max":910,"o":"m 211 0 q 160 21 181 0 q 139 72 139 42 l 139 1013 q 160 1065 139 1044 q 211 1085 181 1085 l 839 1085 q 890 1066 871 1085 q 910 1017 910 1047 q 890 969 910 988 q 839 951 871 951 l 283 951 l 283 614 l 682 614 q 733 595 714 614 q 753 547 753 576 q 733 499 753 518 q 682 481 714 481 l 283 481 l 283 133 l 839 133 q 890 115 871 133 q 910 68 910 97 q 890 19 910 38 q 839 0 871 0 l 211 0 m 388 1179 q 337 1195 357 1179 q 317 1236 317 1211 q 350 1297 317 1272 l 506 1399 q 542 1410 524 1410 q 561 1408 553 1410 q 579 1399 569 1406 l 733 1297 q 767 1236 767 1272 q 747 1195 767 1211 q 697 1179 728 1179 q 673 1183 683 1179 q 651 1194 663 1186 l 542 1272 l 432 1194 q 388 1179 413 1179 m 692 1404 q 641 1424 661 1404 q 621 1475 621 1444 q 638 1522 621 1504 l 774 1658 q 824 1679 794 1679 q 875 1658 856 1679 q 894 1607 894 1638 q 890 1581 894 1593 q 875 1558 886 1568 l 740 1424 q 692 1404 721 1404 z "},"Ệ":{"ha":972,"x_min":139,"x_max":910,"o":"m 211 0 q 160 21 181 0 q 139 72 139 42 l 139 1013 q 160 1065 139 1044 q 211 1085 181 1085 l 839 1085 q 890 1066 871 1085 q 910 1017 910 1047 q 890 969 910 988 q 839 951 871 951 l 283 951 l 283 614 l 682 614 q 733 595 714 614 q 753 547 753 576 q 733 499 753 518 q 682 481 714 481 l 283 481 l 283 133 l 839 133 q 890 115 871 133 q 910 68 910 97 q 890 19 910 38 q 839 0 871 0 l 211 0 m 388 1179 q 337 1195 357 1179 q 317 1236 317 1211 q 350 1297 317 1272 l 506 1399 q 542 1410 524 1410 q 561 1408 553 1410 q 579 1399 569 1406 l 733 1297 q 767 1236 767 1272 q 747 1195 767 1211 q 697 1179 728 1179 q 673 1183 683 1179 q 651 1194 663 1186 l 542 1272 l 432 1194 q 388 1179 413 1179 m 514 -311 q 449 -284 476 -311 q 422 -219 422 -257 q 449 -155 422 -182 q 514 -128 476 -128 q 578 -155 551 -128 q 606 -219 606 -182 q 578 -284 606 -257 q 514 -311 551 -311 z "},"Ề":{"ha":972,"x_min":139,"x_max":910,"o":"m 211 0 q 160 21 181 0 q 139 72 139 42 l 139 1013 q 160 1065 139 1044 q 211 1085 181 1085 l 839 1085 q 890 1066 871 1085 q 910 1017 910 1047 q 890 969 910 988 q 839 951 871 951 l 283 951 l 283 614 l 682 614 q 733 595 714 614 q 753 547 753 576 q 733 499 753 518 q 682 481 714 481 l 283 481 l 283 133 l 839 133 q 890 115 871 133 q 910 68 910 97 q 890 19 910 38 q 839 0 871 0 l 211 0 m 388 1179 q 337 1195 357 1179 q 317 1236 317 1211 q 350 1297 317 1272 l 506 1399 q 542 1410 524 1410 q 561 1408 553 1410 q 579 1399 569 1406 l 733 1297 q 767 1236 767 1272 q 747 1195 767 1211 q 697 1179 728 1179 q 673 1183 683 1179 q 651 1194 663 1186 l 542 1272 l 432 1194 q 388 1179 413 1179 m 682 1404 q 633 1424 651 1404 l 497 1558 q 479 1607 479 1576 q 499 1658 479 1638 q 549 1679 518 1679 q 600 1658 578 1679 l 735 1522 q 753 1475 753 1504 q 733 1424 753 1444 q 682 1404 713 1404 z "},"Ể":{"ha":972,"x_min":139,"x_max":910,"o":"m 211 0 q 160 21 181 0 q 139 72 139 42 l 139 1013 q 160 1065 139 1044 q 211 1085 181 1085 l 839 1085 q 890 1066 871 1085 q 910 1017 910 1047 q 890 969 910 988 q 839 951 871 951 l 283 951 l 283 614 l 682 614 q 733 595 714 614 q 753 547 753 576 q 733 499 753 518 q 682 481 714 481 l 283 481 l 283 133 l 839 133 q 890 115 871 133 q 910 68 910 97 q 890 19 910 38 q 839 0 871 0 l 211 0 m 394 1179 q 344 1195 364 1179 q 324 1236 324 1211 q 357 1297 324 1272 l 513 1399 q 549 1410 531 1410 q 568 1408 560 1410 q 586 1399 576 1406 l 740 1297 q 774 1236 774 1272 q 754 1195 774 1211 q 704 1179 735 1179 q 680 1183 690 1179 q 658 1194 669 1186 l 549 1272 l 439 1194 q 394 1179 419 1179 m 693 1360 q 649 1378 667 1360 q 631 1422 631 1396 l 631 1453 q 686 1521 631 1508 l 722 1529 q 763 1549 746 1535 q 779 1585 779 1563 q 763 1625 779 1613 q 719 1638 746 1638 q 683 1631 700 1638 q 654 1615 665 1624 q 633 1604 646 1608 q 608 1600 619 1600 q 572 1612 588 1600 q 557 1649 557 1624 q 579 1697 557 1679 q 640 1731 607 1719 q 717 1743 674 1743 q 839 1699 792 1743 q 886 1589 886 1654 q 841 1488 888 1519 q 729 1447 794 1456 l 756 1450 q 738 1381 756 1403 q 693 1360 719 1360 z "},"Ễ":{"ha":972,"x_min":139,"x_max":910,"o":"m 211 0 q 160 21 181 0 q 139 72 139 42 l 139 1013 q 160 1065 139 1044 q 211 1085 181 1085 l 839 1085 q 890 1066 871 1085 q 910 1017 910 1047 q 890 969 910 988 q 839 951 871 951 l 283 951 l 283 614 l 682 614 q 733 595 714 614 q 753 547 753 576 q 733 499 753 518 q 682 481 714 481 l 283 481 l 283 133 l 839 133 q 890 115 871 133 q 910 68 910 97 q 890 19 910 38 q 839 0 871 0 l 211 0 m 394 1179 q 344 1195 364 1179 q 324 1236 324 1211 q 357 1297 324 1272 l 513 1399 q 549 1410 531 1410 q 568 1408 560 1410 q 586 1399 576 1406 l 740 1297 q 774 1236 774 1272 q 754 1195 774 1211 q 704 1179 735 1179 q 680 1183 690 1179 q 658 1194 669 1186 l 549 1272 l 439 1194 q 394 1179 419 1179 m 629 1444 q 564 1460 593 1444 q 508 1501 535 1476 q 481 1526 492 1517 q 456 1535 469 1535 q 432 1524 442 1535 q 411 1496 422 1514 q 376 1466 399 1475 q 331 1467 354 1457 q 298 1501 307 1478 q 303 1547 289 1524 q 367 1624 332 1600 q 444 1649 401 1649 q 521 1626 493 1649 q 567 1588 549 1603 q 594 1568 583 1574 q 614 1563 604 1563 q 644 1583 631 1563 q 683 1615 660 1606 q 728 1615 706 1625 q 763 1579 754 1603 q 756 1532 771 1556 q 698 1465 729 1486 q 629 1444 667 1444 z "},"Ȅ":{"ha":972,"x_min":139,"x_max":910,"o":"m 211 0 q 160 21 181 0 q 139 72 139 42 l 139 1013 q 160 1065 139 1044 q 211 1085 181 1085 l 839 1085 q 890 1066 871 1085 q 910 1017 910 1047 q 890 969 910 988 q 839 951 871 951 l 283 951 l 283 614 l 682 614 q 733 595 714 614 q 753 547 753 576 q 733 499 753 518 q 682 481 714 481 l 283 481 l 283 133 l 839 133 q 890 115 871 133 q 910 68 910 97 q 890 19 910 38 q 839 0 871 0 l 211 0 m 681 1182 q 628 1218 644 1182 l 550 1382 q 544 1408 544 1394 q 565 1458 544 1436 q 617 1479 586 1479 q 658 1467 639 1479 q 682 1435 676 1454 l 735 1263 q 739 1240 739 1250 q 719 1197 739 1213 q 681 1182 700 1182 m 482 1182 q 428 1218 447 1182 l 351 1382 q 347 1396 347 1389 q 344 1408 346 1403 q 365 1458 344 1436 q 417 1479 386 1479 q 458 1467 439 1479 q 482 1435 476 1454 l 536 1263 q 538 1251 538 1257 q 539 1240 539 1244 q 520 1197 539 1213 q 482 1182 501 1182 z "},"Ë":{"ha":972,"x_min":139,"x_max":910,"o":"m 211 0 q 160 21 181 0 q 139 72 139 42 l 139 1013 q 160 1065 139 1044 q 211 1085 181 1085 l 839 1085 q 890 1066 871 1085 q 910 1017 910 1047 q 890 969 910 988 q 839 951 871 951 l 283 951 l 283 614 l 682 614 q 733 595 714 614 q 753 547 753 576 q 733 499 753 518 q 682 481 714 481 l 283 481 l 283 133 l 839 133 q 890 115 871 133 q 910 68 910 97 q 890 19 910 38 q 839 0 871 0 l 211 0 m 388 1201 q 328 1226 353 1201 q 303 1285 303 1250 q 328 1343 303 1318 q 388 1368 353 1368 q 446 1343 421 1368 q 471 1285 471 1318 q 446 1226 471 1250 q 388 1201 421 1201 m 696 1201 q 637 1226 661 1201 q 613 1285 613 1250 q 637 1343 613 1318 q 696 1368 661 1368 q 754 1343 729 1368 q 779 1285 779 1318 q 754 1226 779 1250 q 696 1201 729 1201 z "},"Ė":{"ha":972,"x_min":139,"x_max":910,"o":"m 211 0 q 160 21 181 0 q 139 72 139 42 l 139 1013 q 160 1065 139 1044 q 211 1085 181 1085 l 839 1085 q 890 1066 871 1085 q 910 1017 910 1047 q 890 969 910 988 q 839 951 871 951 l 283 951 l 283 614 l 682 614 q 733 595 714 614 q 753 547 753 576 q 733 499 753 518 q 682 481 714 481 l 283 481 l 283 133 l 839 133 q 890 115 871 133 q 910 68 910 97 q 890 19 910 38 q 839 0 871 0 l 211 0 m 542 1208 q 477 1235 504 1208 q 450 1300 450 1263 q 477 1365 450 1338 q 542 1392 504 1392 q 606 1365 579 1392 q 633 1300 633 1338 q 606 1235 633 1263 q 542 1208 579 1208 z "},"Ẹ":{"ha":972,"x_min":139,"x_max":910,"o":"m 211 0 q 160 21 181 0 q 139 72 139 42 l 139 1013 q 160 1065 139 1044 q 211 1085 181 1085 l 839 1085 q 890 1066 871 1085 q 910 1017 910 1047 q 890 969 910 988 q 839 951 871 951 l 283 951 l 283 614 l 682 614 q 733 595 714 614 q 753 547 753 576 q 733 499 753 518 q 682 481 714 481 l 283 481 l 283 133 l 839 133 q 890 115 871 133 q 910 68 910 97 q 890 19 910 38 q 839 0 871 0 l 211 0 m 514 -311 q 449 -284 476 -311 q 422 -219 422 -257 q 449 -155 422 -182 q 514 -128 476 -128 q 578 -155 551 -128 q 606 -219 606 -182 q 578 -284 606 -257 q 514 -311 551 -311 z "},"È":{"ha":972,"x_min":139,"x_max":910,"o":"m 211 0 q 160 21 181 0 q 139 72 139 42 l 139 1013 q 160 1065 139 1044 q 211 1085 181 1085 l 839 1085 q 890 1066 871 1085 q 910 1017 910 1047 q 890 969 910 988 q 839 951 871 951 l 283 951 l 283 614 l 682 614 q 733 595 714 614 q 753 547 753 576 q 733 499 753 518 q 682 481 714 481 l 283 481 l 283 133 l 839 133 q 890 115 871 133 q 910 68 910 97 q 890 19 910 38 q 839 0 871 0 l 211 0 m 538 1204 q 489 1224 507 1204 l 353 1358 q 335 1407 335 1376 q 354 1458 335 1438 q 404 1479 374 1479 q 456 1458 433 1479 l 590 1322 q 608 1275 608 1304 q 588 1224 608 1244 q 538 1204 568 1204 z "},"Ẻ":{"ha":972,"x_min":139,"x_max":910,"o":"m 211 0 q 160 21 181 0 q 139 72 139 42 l 139 1013 q 160 1065 139 1044 q 211 1085 181 1085 l 839 1085 q 890 1066 871 1085 q 910 1017 910 1047 q 890 969 910 988 q 839 951 871 951 l 283 951 l 283 614 l 682 614 q 733 595 714 614 q 753 547 753 576 q 733 499 753 518 q 682 481 714 481 l 283 481 l 283 133 l 839 133 q 890 115 871 133 q 910 68 910 97 q 890 19 910 38 q 839 0 871 0 l 211 0 m 542 1160 q 497 1178 515 1160 q 479 1222 479 1196 l 479 1253 q 535 1321 479 1308 l 571 1329 q 611 1349 594 1335 q 628 1385 628 1363 q 611 1425 628 1413 q 568 1438 594 1438 q 531 1431 549 1438 q 503 1415 514 1424 q 481 1404 494 1408 q 457 1400 468 1400 q 421 1412 436 1400 q 406 1449 406 1424 q 428 1497 406 1479 q 489 1531 456 1519 q 565 1543 522 1543 q 688 1499 640 1543 q 735 1389 735 1454 q 690 1288 736 1319 q 578 1247 643 1256 l 604 1250 q 586 1181 604 1203 q 542 1160 568 1160 z "},"Ȇ":{"ha":972,"x_min":139,"x_max":910,"o":"m 211 0 q 160 21 181 0 q 139 72 139 42 l 139 1013 q 160 1065 139 1044 q 211 1085 181 1085 l 839 1085 q 890 1066 871 1085 q 910 1017 910 1047 q 890 969 910 988 q 839 951 871 951 l 283 951 l 283 614 l 682 614 q 733 595 714 614 q 753 547 753 576 q 733 499 753 518 q 682 481 714 481 l 283 481 l 283 133 l 839 133 q 890 115 871 133 q 910 68 910 97 q 890 19 910 38 q 839 0 871 0 l 211 0 m 382 1165 q 333 1185 351 1165 q 315 1236 315 1206 q 346 1325 315 1286 q 428 1387 376 1364 q 542 1410 479 1410 q 655 1387 604 1410 q 736 1325 706 1364 q 767 1236 767 1286 q 749 1185 767 1206 q 701 1165 732 1165 q 654 1181 675 1165 q 633 1222 633 1196 q 609 1275 633 1254 q 542 1296 585 1296 q 478 1275 508 1296 q 449 1222 449 1254 q 428 1181 449 1196 q 382 1165 407 1165 z "},"Ē":{"ha":972,"x_min":139,"x_max":910,"o":"m 211 0 q 160 21 181 0 q 139 72 139 42 l 139 1013 q 160 1065 139 1044 q 211 1085 181 1085 l 839 1085 q 890 1066 871 1085 q 910 1017 910 1047 q 890 969 910 988 q 839 951 871 951 l 283 951 l 283 614 l 682 614 q 733 595 714 614 q 753 547 753 576 q 733 499 753 518 q 682 481 714 481 l 283 481 l 283 133 l 839 133 q 890 115 871 133 q 910 68 910 97 q 890 19 910 38 q 839 0 871 0 l 211 0 m 367 1224 q 316 1240 336 1224 q 296 1288 296 1257 q 316 1333 296 1318 q 367 1349 336 1349 l 714 1349 q 765 1333 744 1349 q 786 1288 786 1318 q 765 1240 786 1257 q 714 1224 744 1224 l 367 1224 z "},"Ę":{"ha":972,"x_min":139,"x_max":1049,"o":"m 211 0 q 160 21 181 0 q 139 72 139 42 l 139 1013 q 160 1065 139 1044 q 211 1085 181 1085 l 839 1085 q 890 1066 871 1085 q 910 1017 910 1047 q 890 969 910 988 q 839 951 871 951 l 283 951 l 283 614 l 682 614 q 733 595 714 614 q 753 547 753 576 q 733 499 753 518 q 682 481 714 481 l 283 481 l 283 133 l 839 133 q 890 115 871 133 q 910 68 910 97 q 890 19 910 38 q 839 0 871 0 l 211 0 m 875 -383 q 789 -360 828 -383 q 726 -297 750 -336 q 701 -210 701 -257 q 774 -68 701 -128 q 798 -45 789 -57 q 813 -24 807 -33 q 875 14 832 14 q 924 -6 904 14 q 946 -56 944 -25 q 924 -119 946 -87 q 857 -182 901 -150 q 847 -195 850 -187 q 843 -210 843 -203 q 852 -233 843 -224 q 875 -242 861 -242 q 885 -240 881 -242 q 892 -236 889 -239 l 935 -204 q 978 -190 956 -190 q 1029 -210 1010 -190 q 1049 -261 1049 -231 q 1024 -318 1049 -294 l 971 -353 q 875 -383 928 -383 z "},"Ẽ":{"ha":972,"x_min":139,"x_max":910,"o":"m 211 0 q 160 21 181 0 q 139 72 139 42 l 139 1013 q 160 1065 139 1044 q 211 1085 181 1085 l 839 1085 q 890 1066 871 1085 q 910 1017 910 1047 q 890 969 910 988 q 839 951 871 951 l 283 951 l 283 614 l 682 614 q 733 595 714 614 q 753 547 753 576 q 733 499 753 518 q 682 481 714 481 l 283 481 l 283 133 l 839 133 q 890 115 871 133 q 910 68 910 97 q 890 19 910 38 q 839 0 871 0 l 211 0 m 690 1189 q 608 1203 643 1189 q 549 1232 574 1218 q 496 1256 518 1249 q 457 1264 474 1264 q 422 1257 438 1264 q 390 1226 407 1250 q 350 1194 374 1204 q 300 1196 326 1183 q 276 1232 281 1206 q 288 1281 272 1258 q 366 1351 319 1328 q 467 1375 413 1375 q 545 1360 511 1375 q 603 1333 579 1346 q 651 1308 635 1315 q 686 1301 668 1301 q 718 1308 704 1301 q 742 1325 732 1315 q 779 1352 761 1344 q 824 1344 797 1360 q 847 1304 844 1332 q 831 1254 849 1276 q 690 1189 778 1189 z "},"F":{"ha":868,"x_min":51,"x_max":822,"o":"m 124 0 q 72 21 93 0 q 51 72 51 42 l 51 1013 q 72 1065 51 1044 q 124 1085 93 1085 l 751 1085 q 803 1066 783 1085 q 822 1017 822 1047 q 803 969 822 988 q 751 951 783 951 l 196 951 l 196 614 l 594 614 q 646 595 626 614 q 665 547 665 576 q 646 499 665 518 q 594 481 626 481 l 196 481 l 196 72 q 175 21 196 42 q 124 0 154 0 z "},"G":{"ha":1079,"x_min":89,"x_max":992,"o":"m 625 -14 q 415 28 513 -14 q 244 147 317 71 q 130 324 171 222 q 89 543 89 425 q 130 760 89 660 q 244 937 171 861 q 414 1056 317 1013 q 625 1099 511 1099 q 809 1071 732 1099 q 964 979 886 1043 q 981 962 975 971 q 990 944 988 953 q 992 922 992 935 q 973 878 992 896 q 927 858 954 860 q 876 876 900 857 q 770 944 825 921 q 625 968 715 968 q 471 935 543 968 q 344 843 399 901 q 258 708 289 785 q 228 543 228 631 q 258 377 228 454 q 344 242 289 300 q 471 151 399 183 q 625 118 543 118 q 759 142 696 118 q 881 210 822 167 q 930 226 906 228 q 971 206 954 224 q 988 158 988 189 q 983 131 988 144 q 965 107 978 118 q 806 16 892 46 q 625 -14 719 -14 m 988 158 l 849 186 l 849 435 l 657 435 q 606 453 626 435 q 585 499 585 471 q 606 544 585 526 q 657 563 626 563 l 917 563 q 968 542 949 563 q 988 490 988 522 l 988 158 z "},"Ğ":{"ha":1079,"x_min":89,"x_max":992,"o":"m 625 -14 q 415 28 513 -14 q 244 147 317 71 q 130 324 171 222 q 89 543 89 425 q 130 760 89 660 q 244 937 171 861 q 414 1056 317 1013 q 625 1099 511 1099 q 809 1071 732 1099 q 964 979 886 1043 q 981 962 975 971 q 990 944 988 953 q 992 922 992 935 q 973 878 992 896 q 927 858 954 860 q 876 876 900 857 q 770 944 825 921 q 625 968 715 968 q 471 935 543 968 q 344 843 399 901 q 258 708 289 785 q 228 543 228 631 q 258 377 228 454 q 344 242 289 300 q 471 151 399 183 q 625 118 543 118 q 759 142 696 118 q 881 210 822 167 q 930 226 906 228 q 971 206 954 224 q 988 158 988 189 q 983 131 988 144 q 965 107 978 118 q 806 16 892 46 q 625 -14 719 -14 m 988 158 l 849 186 l 849 435 l 657 435 q 606 453 626 435 q 585 499 585 471 q 606 544 585 526 q 657 563 626 563 l 917 563 q 968 542 949 563 q 988 490 988 522 l 988 158 m 624 1165 q 510 1188 561 1165 q 428 1251 458 1211 q 397 1339 397 1290 q 415 1390 397 1369 q 464 1410 433 1410 q 510 1394 489 1410 q 531 1353 531 1379 q 560 1300 531 1321 q 624 1279 590 1279 q 691 1300 667 1279 q 715 1353 715 1321 q 736 1394 715 1379 q 783 1410 757 1410 q 831 1390 814 1410 q 849 1339 849 1369 q 818 1251 849 1290 q 737 1188 788 1211 q 624 1165 686 1165 z "},"Ǧ":{"ha":1079,"x_min":89,"x_max":992,"o":"m 625 -14 q 415 28 513 -14 q 244 147 317 71 q 130 324 171 222 q 89 543 89 425 q 130 760 89 660 q 244 937 171 861 q 414 1056 317 1013 q 625 1099 511 1099 q 809 1071 732 1099 q 964 979 886 1043 q 981 962 975 971 q 990 944 988 953 q 992 922 992 935 q 973 878 992 896 q 927 858 954 860 q 876 876 900 857 q 770 944 825 921 q 625 968 715 968 q 471 935 543 968 q 344 843 399 901 q 258 708 289 785 q 228 543 228 631 q 258 377 228 454 q 344 242 289 300 q 471 151 399 183 q 625 118 543 118 q 759 142 696 118 q 881 210 822 167 q 930 226 906 228 q 971 206 954 224 q 988 158 988 189 q 983 131 988 144 q 965 107 978 118 q 806 16 892 46 q 625 -14 719 -14 m 988 158 l 849 186 l 849 435 l 657 435 q 606 453 626 435 q 585 499 585 471 q 606 544 585 526 q 657 563 626 563 l 917 563 q 968 542 949 563 q 988 490 988 522 l 988 158 m 624 1193 q 588 1204 603 1193 l 432 1307 q 399 1367 399 1332 q 433 1408 399 1394 q 514 1388 467 1421 l 624 1314 l 733 1388 q 817 1409 786 1424 q 849 1367 849 1394 q 815 1307 849 1332 l 661 1204 q 624 1193 644 1193 z "},"Ĝ":{"ha":1079,"x_min":89,"x_max":992,"o":"m 625 -14 q 415 28 513 -14 q 244 147 317 71 q 130 324 171 222 q 89 543 89 425 q 130 760 89 660 q 244 937 171 861 q 414 1056 317 1013 q 625 1099 511 1099 q 809 1071 732 1099 q 964 979 886 1043 q 981 962 975 971 q 990 944 988 953 q 992 922 992 935 q 973 878 992 896 q 927 858 954 860 q 876 876 900 857 q 770 944 825 921 q 625 968 715 968 q 471 935 543 968 q 344 843 399 901 q 258 708 289 785 q 228 543 228 631 q 258 377 228 454 q 344 242 289 300 q 471 151 399 183 q 625 118 543 118 q 759 142 696 118 q 881 210 822 167 q 930 226 906 228 q 971 206 954 224 q 988 158 988 189 q 983 131 988 144 q 965 107 978 118 q 806 16 892 46 q 625 -14 719 -14 m 988 158 l 849 186 l 849 435 l 657 435 q 606 453 626 435 q 585 499 585 471 q 606 544 585 526 q 657 563 626 563 l 917 563 q 968 542 949 563 q 988 490 988 522 l 988 158 m 469 1179 q 419 1195 439 1179 q 399 1236 399 1211 q 432 1297 399 1272 l 588 1399 q 624 1410 606 1410 q 643 1408 635 1410 q 661 1399 651 1406 l 815 1297 q 849 1236 849 1272 q 829 1195 849 1211 q 779 1179 810 1179 q 755 1183 765 1179 q 733 1194 744 1186 l 624 1272 l 514 1194 q 469 1179 494 1179 z "},"Ģ":{"ha":1079,"x_min":89,"x_max":992,"o":"m 625 -14 q 415 28 513 -14 q 244 147 317 71 q 130 324 171 222 q 89 543 89 425 q 130 760 89 660 q 244 937 171 861 q 414 1056 317 1013 q 625 1099 511 1099 q 809 1071 732 1099 q 964 979 886 1043 q 981 962 975 971 q 990 944 988 953 q 992 922 992 935 q 973 878 992 896 q 927 858 954 860 q 876 876 900 857 q 770 944 825 921 q 625 968 715 968 q 471 935 543 968 q 344 843 399 901 q 258 708 289 785 q 228 543 228 631 q 258 377 228 454 q 344 242 289 300 q 471 151 399 183 q 625 118 543 118 q 759 142 696 118 q 881 210 822 167 q 930 226 906 228 q 971 206 954 224 q 988 158 988 189 q 983 131 988 144 q 965 107 978 118 q 806 16 892 46 q 625 -14 719 -14 m 988 158 l 849 186 l 849 435 l 657 435 q 606 453 626 435 q 585 499 585 471 q 606 544 585 526 q 657 563 626 563 l 917 563 q 968 542 949 563 q 988 490 988 522 l 988 158 m 601 -343 q 524 -331 564 -343 q 456 -295 483 -319 q 428 -233 428 -271 q 442 -200 428 -212 q 476 -187 456 -187 q 510 -197 497 -187 q 534 -220 522 -207 q 563 -244 546 -233 q 613 -254 581 -254 q 669 -243 653 -254 q 686 -206 686 -232 q 660 -163 686 -178 q 582 -149 635 -149 q 534 -137 553 -149 q 515 -104 515 -126 q 596 -56 515 -56 q 731 -96 679 -56 q 782 -199 782 -136 q 731 -305 782 -267 q 601 -343 679 -343 z "},"Ġ":{"ha":1079,"x_min":89,"x_max":992,"o":"m 625 -14 q 415 28 513 -14 q 244 147 317 71 q 130 324 171 222 q 89 543 89 425 q 130 760 89 660 q 244 937 171 861 q 414 1056 317 1013 q 625 1099 511 1099 q 809 1071 732 1099 q 964 979 886 1043 q 981 962 975 971 q 990 944 988 953 q 992 922 992 935 q 973 878 992 896 q 927 858 954 860 q 876 876 900 857 q 770 944 825 921 q 625 968 715 968 q 471 935 543 968 q 344 843 399 901 q 258 708 289 785 q 228 543 228 631 q 258 377 228 454 q 344 242 289 300 q 471 151 399 183 q 625 118 543 118 q 759 142 696 118 q 881 210 822 167 q 930 226 906 228 q 971 206 954 224 q 988 158 988 189 q 983 131 988 144 q 965 107 978 118 q 806 16 892 46 q 625 -14 719 -14 m 988 158 l 849 186 l 849 435 l 657 435 q 606 453 626 435 q 585 499 585 471 q 606 544 585 526 q 657 563 626 563 l 917 563 q 968 542 949 563 q 988 490 988 522 l 988 158 m 624 1208 q 559 1235 586 1208 q 532 1300 532 1263 q 559 1365 532 1338 q 624 1392 586 1392 q 688 1365 661 1392 q 715 1300 715 1338 q 688 1235 715 1263 q 624 1208 661 1208 z "},"H":{"ha":1210,"x_min":139,"x_max":1071,"o":"m 211 0 q 160 21 181 0 q 139 72 139 42 l 139 1013 q 160 1065 139 1044 q 211 1085 181 1085 q 263 1065 243 1085 q 283 1013 283 1044 l 283 614 l 928 614 l 928 1013 q 949 1065 928 1044 q 1000 1085 969 1085 q 1051 1065 1032 1085 q 1071 1013 1071 1044 l 1071 72 q 1051 21 1071 42 q 1000 0 1032 0 q 949 21 969 0 q 928 72 928 42 l 928 486 l 283 486 l 283 72 q 263 21 283 42 q 211 0 243 0 z "},"Ħ":{"ha":1210,"x_min":32,"x_max":1178,"o":"m 211 0 q 160 21 181 0 q 139 72 139 42 l 139 1013 q 160 1065 139 1044 q 211 1085 181 1085 q 263 1065 243 1085 q 283 1013 283 1044 l 283 614 l 928 614 l 928 1013 q 949 1065 928 1044 q 1000 1085 969 1085 q 1051 1065 1032 1085 q 1071 1013 1071 1044 l 1071 72 q 1051 21 1071 42 q 1000 0 1032 0 q 949 21 969 0 q 928 72 928 42 l 928 486 l 283 486 l 283 72 q 263 21 283 42 q 211 0 243 0 m 103 786 q 52 796 72 786 q 32 835 32 806 q 52 874 32 864 q 103 883 72 883 l 1106 883 q 1158 874 1138 883 q 1178 835 1178 864 q 1158 796 1178 806 q 1106 786 1138 786 l 103 786 z "},"Ĥ":{"ha":1210,"x_min":139,"x_max":1071,"o":"m 211 0 q 160 21 181 0 q 139 72 139 42 l 139 1013 q 160 1065 139 1044 q 211 1085 181 1085 q 263 1065 243 1085 q 283 1013 283 1044 l 283 614 l 928 614 l 928 1013 q 949 1065 928 1044 q 1000 1085 969 1085 q 1051 1065 1032 1085 q 1071 1013 1071 1044 l 1071 72 q 1051 21 1071 42 q 1000 0 1032 0 q 949 21 969 0 q 928 72 928 42 l 928 486 l 283 486 l 283 72 q 263 21 283 42 q 211 0 243 0 m 451 1179 q 401 1195 421 1179 q 381 1236 381 1211 q 414 1297 381 1272 l 569 1399 q 606 1410 588 1410 q 625 1408 617 1410 q 643 1399 633 1406 l 797 1297 q 831 1236 831 1272 q 811 1195 831 1211 q 761 1179 792 1179 q 737 1183 747 1179 q 715 1194 726 1186 l 606 1272 l 496 1194 q 451 1179 476 1179 z "},"I":{"ha":422,"x_min":139,"x_max":283,"o":"m 211 0 q 160 21 181 0 q 139 72 139 42 l 139 1013 q 160 1065 139 1044 q 211 1085 181 1085 q 263 1065 243 1085 q 283 1013 283 1044 l 283 72 q 263 21 283 42 q 211 0 243 0 z "},"Ĳ":{"ha":904,"x_min":139,"x_max":765,"o":"m 431 -14 q 280 18 346 -14 q 176 106 214 50 q 139 236 139 163 q 160 288 139 268 q 211 308 181 308 q 263 288 243 308 q 283 236 283 268 q 302 174 283 201 q 354 132 321 147 q 431 117 388 117 q 529 142 486 117 q 597 214 572 168 q 621 319 621 260 l 621 1013 q 641 1065 621 1044 q 692 1085 661 1085 q 744 1065 724 1085 q 765 1013 765 1044 l 765 319 q 722 147 765 222 q 604 28 679 71 q 431 -14 529 -14 m 211 403 q 160 424 181 403 q 139 475 139 444 l 139 1013 q 160 1065 139 1044 q 211 1085 181 1085 q 263 1065 243 1085 q 283 1013 283 1044 l 283 475 q 263 424 283 444 q 211 403 243 403 z "},"Í":{"ha":422,"x_min":139,"x_max":419,"o":"m 211 0 q 160 21 181 0 q 139 72 139 42 l 139 1013 q 160 1065 139 1044 q 211 1085 181 1085 q 263 1065 243 1085 q 283 1013 283 1044 l 283 72 q 263 21 283 42 q 211 0 243 0 m 217 1204 q 166 1224 186 1204 q 146 1275 146 1244 q 163 1322 146 1304 l 299 1458 q 349 1479 319 1479 q 400 1458 381 1479 q 419 1407 419 1438 q 415 1381 419 1393 q 400 1358 411 1368 l 265 1224 q 217 1204 246 1204 z "},"Ĭ":{"ha":422,"x_min":-15,"x_max":436,"o":"m 211 0 q 160 21 181 0 q 139 72 139 42 l 139 1013 q 160 1065 139 1044 q 211 1085 181 1085 q 263 1065 243 1085 q 283 1013 283 1044 l 283 72 q 263 21 283 42 q 211 0 243 0 m 211 1165 q 97 1188 149 1165 q 15 1251 46 1211 q -15 1339 -15 1290 q 3 1390 -15 1369 q 51 1410 21 1410 q 97 1394 76 1410 q 118 1353 118 1379 q 148 1300 118 1321 q 211 1279 178 1279 q 278 1300 254 1279 q 303 1353 303 1321 q 324 1394 303 1379 q 371 1410 344 1410 q 419 1390 401 1410 q 436 1339 436 1369 q 406 1251 436 1290 q 324 1188 375 1211 q 211 1165 274 1165 z "},"Î":{"ha":422,"x_min":-14,"x_max":436,"o":"m 211 0 q 160 21 181 0 q 139 72 139 42 l 139 1013 q 160 1065 139 1044 q 211 1085 181 1085 q 263 1065 243 1085 q 283 1013 283 1044 l 283 72 q 263 21 283 42 q 211 0 243 0 m 57 1179 q 6 1195 26 1179 q -14 1236 -14 1211 q 19 1297 -14 1272 l 175 1399 q 211 1410 193 1410 q 231 1408 222 1410 q 249 1399 239 1406 l 403 1297 q 436 1236 436 1272 q 417 1195 436 1211 q 367 1179 397 1179 q 342 1183 353 1179 q 321 1194 332 1186 l 211 1272 l 101 1194 q 57 1179 82 1179 z "},"Ȉ":{"ha":422,"x_min":14,"x_max":408,"o":"m 211 0 q 160 21 181 0 q 139 72 139 42 l 139 1013 q 160 1065 139 1044 q 211 1085 181 1085 q 263 1065 243 1085 q 283 1013 283 1044 l 283 72 q 263 21 283 42 q 211 0 243 0 m 350 1182 q 297 1218 314 1182 l 219 1382 q 214 1408 214 1394 q 235 1458 214 1436 q 286 1479 256 1479 q 327 1467 308 1479 q 351 1435 346 1454 l 404 1263 q 408 1240 408 1250 q 389 1197 408 1213 q 350 1182 369 1182 m 151 1182 q 97 1218 117 1182 l 21 1382 q 16 1396 17 1389 q 14 1408 15 1403 q 35 1458 14 1436 q 86 1479 56 1479 q 127 1467 108 1479 q 151 1435 146 1454 l 206 1263 q 208 1251 207 1257 q 208 1240 208 1244 q 190 1197 208 1213 q 151 1182 171 1182 z "},"Ï":{"ha":422,"x_min":-28,"x_max":449,"o":"m 211 0 q 160 21 181 0 q 139 72 139 42 l 139 1013 q 160 1065 139 1044 q 211 1085 181 1085 q 263 1065 243 1085 q 283 1013 283 1044 l 283 72 q 263 21 283 42 q 211 0 243 0 m 57 1201 q -3 1226 22 1201 q -28 1285 -28 1250 q -3 1343 -28 1318 q 57 1368 22 1368 q 115 1343 90 1368 q 140 1285 140 1318 q 115 1226 140 1250 q 57 1201 90 1201 m 365 1201 q 306 1226 331 1201 q 282 1285 282 1250 q 306 1343 282 1318 q 365 1368 331 1368 q 424 1343 399 1368 q 449 1285 449 1318 q 424 1226 449 1250 q 365 1201 399 1201 z "},"İ":{"ha":422,"x_min":119,"x_max":303,"o":"m 211 0 q 160 21 181 0 q 139 72 139 42 l 139 1013 q 160 1065 139 1044 q 211 1085 181 1085 q 263 1065 243 1085 q 283 1013 283 1044 l 283 72 q 263 21 283 42 q 211 0 243 0 m 211 1208 q 147 1235 174 1208 q 119 1300 119 1263 q 147 1365 119 1338 q 211 1392 174 1392 q 276 1365 249 1392 q 303 1300 303 1338 q 276 1235 303 1263 q 211 1208 249 1208 z "},"Ị":{"ha":422,"x_min":119,"x_max":303,"o":"m 211 0 q 160 21 181 0 q 139 72 139 42 l 139 1013 q 160 1065 139 1044 q 211 1085 181 1085 q 263 1065 243 1085 q 283 1013 283 1044 l 283 72 q 263 21 283 42 q 211 0 243 0 m 211 -311 q 147 -284 174 -311 q 119 -219 119 -257 q 147 -155 119 -182 q 211 -128 174 -128 q 276 -155 249 -128 q 303 -219 303 -182 q 276 -284 303 -257 q 211 -311 249 -311 z "},"Ì":{"ha":422,"x_min":4,"x_max":283,"o":"m 211 0 q 160 21 181 0 q 139 72 139 42 l 139 1013 q 160 1065 139 1044 q 211 1085 181 1085 q 263 1065 243 1085 q 283 1013 283 1044 l 283 72 q 263 21 283 42 q 211 0 243 0 m 207 1204 q 158 1224 176 1204 l 22 1358 q 4 1407 4 1376 q 24 1458 4 1438 q 74 1479 43 1479 q 125 1458 103 1479 l 260 1322 q 278 1275 278 1304 q 258 1224 278 1244 q 207 1204 238 1204 z "},"Ỉ":{"ha":422,"x_min":75,"x_max":406,"o":"m 211 0 q 160 21 181 0 q 139 72 139 42 l 139 1013 q 160 1065 139 1044 q 211 1085 181 1085 q 263 1065 243 1085 q 283 1013 283 1044 l 283 72 q 263 21 283 42 q 211 0 243 0 m 211 1160 q 167 1178 185 1160 q 149 1222 149 1196 l 149 1253 q 204 1321 149 1308 l 240 1329 q 281 1349 264 1335 q 297 1385 297 1363 q 281 1425 297 1413 q 238 1438 264 1438 q 201 1431 218 1438 q 172 1415 183 1424 q 151 1404 164 1408 q 126 1400 138 1400 q 90 1412 106 1400 q 75 1449 75 1424 q 97 1497 75 1479 q 158 1531 125 1519 q 235 1543 192 1543 q 357 1499 310 1543 q 404 1389 404 1454 q 359 1288 406 1319 q 247 1247 313 1256 l 274 1250 q 256 1181 274 1203 q 211 1160 238 1160 z "},"Ȋ":{"ha":422,"x_min":-15,"x_max":436,"o":"m 211 0 q 160 21 181 0 q 139 72 139 42 l 139 1013 q 160 1065 139 1044 q 211 1085 181 1085 q 263 1065 243 1085 q 283 1013 283 1044 l 283 72 q 263 21 283 42 q 211 0 243 0 m 51 1165 q 3 1185 21 1165 q -15 1236 -15 1206 q 15 1325 -15 1286 q 97 1387 46 1364 q 211 1410 149 1410 q 324 1387 274 1410 q 406 1325 375 1364 q 436 1236 436 1286 q 419 1185 436 1206 q 371 1165 401 1165 q 324 1181 344 1165 q 303 1222 303 1196 q 278 1275 303 1254 q 211 1296 254 1296 q 148 1275 178 1296 q 118 1222 118 1254 q 97 1181 118 1196 q 51 1165 76 1165 z "},"Ī":{"ha":422,"x_min":-35,"x_max":456,"o":"m 211 0 q 160 21 181 0 q 139 72 139 42 l 139 1013 q 160 1065 139 1044 q 211 1085 181 1085 q 263 1065 243 1085 q 283 1013 283 1044 l 283 72 q 263 21 283 42 q 211 0 243 0 m 36 1224 q -15 1240 6 1224 q -35 1288 -35 1257 q -15 1333 -35 1318 q 36 1349 6 1349 l 383 1349 q 435 1333 414 1349 q 456 1288 456 1318 q 435 1240 456 1257 q 383 1224 414 1224 l 36 1224 z "},"Į":{"ha":422,"x_min":38,"x_max":385,"o":"m 211 0 q 160 21 181 0 q 139 72 139 42 l 139 1013 q 160 1065 139 1044 q 211 1085 181 1085 q 263 1065 243 1085 q 283 1013 283 1044 l 283 72 q 263 21 283 42 q 211 0 243 0 m 211 -383 q 125 -360 164 -383 q 62 -297 86 -336 q 38 -210 38 -257 q 110 -68 38 -128 q 134 -45 125 -57 q 149 -24 143 -33 q 211 14 168 14 q 260 -6 240 14 q 282 -56 281 -25 q 260 -119 282 -87 q 193 -182 238 -150 q 183 -195 186 -187 q 179 -210 179 -203 q 188 -233 179 -224 q 211 -242 197 -242 q 221 -240 217 -242 q 228 -236 225 -239 l 271 -204 q 314 -190 292 -190 q 365 -210 346 -190 q 385 -261 385 -231 q 360 -318 385 -294 l 307 -353 q 211 -383 264 -383 z "},"Ĩ":{"ha":422,"x_min":-32,"x_max":450,"o":"m 211 0 q 160 21 181 0 q 139 72 139 42 l 139 1013 q 160 1065 139 1044 q 211 1085 181 1085 q 263 1065 243 1085 q 283 1013 283 1044 l 283 72 q 263 21 283 42 q 211 0 243 0 m 308 1197 q 243 1213 272 1197 q 188 1254 214 1229 q 160 1278 171 1269 q 135 1288 149 1288 q 111 1277 121 1288 q 90 1249 101 1267 q 56 1219 78 1228 q 10 1219 33 1210 q -23 1253 -14 1231 q -18 1300 -32 1276 q 46 1377 11 1353 q 124 1401 81 1401 q 200 1378 172 1401 q 246 1340 228 1356 q 273 1321 263 1326 q 293 1315 283 1315 q 324 1336 308 1315 q 361 1368 339 1358 q 407 1368 383 1378 q 442 1332 433 1356 q 435 1285 450 1308 q 376 1218 407 1239 q 308 1197 346 1197 z "},"J":{"ha":869,"x_min":63,"x_max":731,"o":"m 396 -14 q 223 28 299 -14 q 105 147 147 71 q 63 319 63 222 q 83 372 63 351 q 135 392 104 392 q 187 372 167 392 q 207 319 207 351 q 231 214 207 260 q 298 142 256 168 q 396 117 340 117 q 494 142 451 117 q 562 214 538 168 q 586 319 586 260 l 586 1013 q 606 1065 586 1044 q 657 1085 626 1085 q 710 1065 689 1085 q 731 1013 731 1044 l 731 319 q 688 147 731 222 q 569 28 644 71 q 396 -14 494 -14 z "},"Ĵ":{"ha":869,"x_min":63,"x_max":883,"o":"m 396 -14 q 223 28 299 -14 q 105 147 147 71 q 63 319 63 222 q 83 372 63 351 q 135 392 104 392 q 187 372 167 392 q 207 319 207 351 q 231 214 207 260 q 298 142 256 168 q 396 117 340 117 q 494 142 451 117 q 562 214 538 168 q 586 319 586 260 l 586 1013 q 606 1065 586 1044 q 657 1085 626 1085 q 710 1065 689 1085 q 731 1013 731 1044 l 731 319 q 688 147 731 222 q 569 28 644 71 q 396 -14 494 -14 m 504 1179 q 453 1195 474 1179 q 433 1236 433 1211 q 467 1297 433 1272 l 622 1399 q 658 1410 640 1410 q 678 1408 669 1410 q 696 1399 686 1406 l 850 1297 q 883 1236 883 1272 q 864 1195 883 1211 q 814 1179 844 1179 q 790 1183 800 1179 q 768 1194 779 1186 l 658 1272 l 549 1194 q 504 1179 529 1179 z "},"K":{"ha":926,"x_min":139,"x_max":868,"o":"m 211 0 q 160 21 182 0 q 139 72 139 42 l 139 1013 q 160 1064 139 1043 q 211 1085 182 1085 q 263 1064 242 1085 q 283 1013 283 1043 l 283 596 l 743 1056 q 774 1078 760 1072 q 803 1085 788 1085 q 853 1064 838 1085 q 864 1015 868 1043 q 838 963 860 986 l 483 607 l 844 115 q 858 65 861 92 q 839 19 856 38 q 794 0 822 0 q 735 31 756 0 l 383 507 l 283 407 l 283 72 q 263 21 283 42 q 211 0 242 0 z "},"Ķ":{"ha":926,"x_min":139,"x_max":868,"o":"m 211 0 q 160 21 182 0 q 139 72 139 42 l 139 1013 q 160 1064 139 1043 q 211 1085 182 1085 q 263 1064 242 1085 q 283 1013 283 1043 l 283 596 l 743 1056 q 774 1078 760 1072 q 803 1085 788 1085 q 853 1064 838 1085 q 864 1015 868 1043 q 838 963 860 986 l 483 607 l 844 115 q 858 65 861 92 q 839 19 856 38 q 794 0 822 0 q 735 31 756 0 l 383 507 l 283 407 l 283 72 q 263 21 283 42 q 211 0 242 0 m 469 -343 q 392 -331 432 -343 q 324 -295 351 -319 q 296 -233 296 -271 q 310 -200 296 -212 q 344 -187 324 -187 q 378 -197 365 -187 q 402 -220 390 -207 q 431 -244 414 -233 q 481 -254 449 -254 q 538 -243 521 -254 q 554 -206 554 -232 q 528 -163 554 -178 q 450 -149 503 -149 q 402 -137 421 -149 q 383 -104 383 -126 q 464 -56 383 -56 q 599 -96 547 -56 q 650 -199 650 -136 q 599 -305 650 -267 q 469 -343 547 -343 z "},"L":{"ha":892,"x_min":139,"x_max":857,"o":"m 210 0 q 159 21 179 0 q 139 72 139 42 l 139 1013 q 160 1064 139 1043 q 210 1085 181 1085 q 261 1064 240 1085 q 282 1013 282 1043 l 282 144 l 785 144 q 836 124 815 144 q 857 72 857 103 q 836 21 857 42 q 785 0 815 0 l 210 0 z "},"Ĺ":{"ha":892,"x_min":139,"x_max":857,"o":"m 210 0 q 159 21 179 0 q 139 72 139 42 l 139 1013 q 160 1064 139 1043 q 210 1085 181 1085 q 261 1064 240 1085 q 282 1013 282 1043 l 282 144 l 785 144 q 836 124 815 144 q 857 72 857 103 q 836 21 857 42 q 785 0 815 0 l 210 0 m 215 1204 q 165 1224 185 1204 q 144 1275 144 1244 q 161 1322 144 1304 l 297 1458 q 347 1479 318 1479 q 399 1458 379 1479 q 418 1407 418 1438 q 414 1381 418 1393 q 399 1358 410 1368 l 264 1224 q 215 1204 244 1204 z "},"Ľ":{"ha":892,"x_min":139,"x_max":857,"o":"m 210 0 q 159 21 179 0 q 139 72 139 42 l 139 1013 q 160 1064 139 1043 q 210 1085 181 1085 q 261 1064 240 1085 q 282 1013 282 1043 l 282 144 l 785 144 q 836 124 815 144 q 857 72 857 103 q 836 21 857 42 q 785 0 815 0 l 210 0 m 526 699 q 499 710 508 701 q 492 736 490 718 q 514 787 494 761 q 553 841 533 813 q 578 903 574 869 q 576 951 582 932 q 563 990 569 971 q 556 1038 556 1008 q 576 1081 556 1065 q 624 1096 596 1096 q 693 1057 668 1096 q 711 965 718 1018 q 685 868 707 917 q 635 781 664 819 q 576 719 606 742 q 526 699 547 696 z "},"Ļ":{"ha":892,"x_min":139,"x_max":857,"o":"m 210 0 q 159 21 179 0 q 139 72 139 42 l 139 1013 q 160 1064 139 1043 q 210 1085 181 1085 q 261 1064 240 1085 q 282 1013 282 1043 l 282 144 l 785 144 q 836 124 815 144 q 857 72 857 103 q 836 21 857 42 q 785 0 815 0 l 210 0 m 465 -343 q 388 -331 428 -343 q 319 -295 347 -319 q 292 -233 292 -271 q 306 -200 292 -212 q 340 -187 319 -187 q 374 -197 361 -187 q 398 -220 386 -207 q 427 -244 410 -233 q 476 -254 444 -254 q 533 -243 517 -254 q 550 -206 550 -232 q 524 -163 550 -178 q 446 -149 499 -149 q 398 -137 417 -149 q 379 -104 379 -126 q 460 -56 379 -56 q 594 -96 543 -56 q 646 -199 646 -136 q 594 -305 646 -267 q 465 -343 543 -343 z "},"Ŀ":{"ha":814,"x_min":139,"x_max":857,"o":"m 210 0 q 159 21 179 0 q 139 72 139 42 l 139 1013 q 160 1064 139 1043 q 210 1085 181 1085 q 261 1064 240 1085 q 282 1013 282 1043 l 282 144 l 785 144 q 836 124 815 144 q 857 72 857 103 q 836 21 857 42 q 785 0 815 0 l 210 0 m 622 413 q 555 441 583 413 q 526 510 526 469 q 555 577 526 549 q 622 606 583 606 q 690 577 663 606 q 718 508 718 549 q 690 441 718 469 q 622 413 663 413 z "},"Ł":{"ha":922,"x_min":15,"x_max":875,"o":"m 228 0 q 176 21 197 0 q 156 72 156 42 l 156 372 l 139 354 q 90 333 118 333 q 38 354 60 333 q 15 406 15 375 q 36 456 15 435 l 156 575 l 156 1013 q 176 1065 156 1044 q 228 1085 197 1085 q 279 1065 258 1085 q 300 1013 300 1044 l 300 717 l 469 879 q 494 895 481 890 q 521 900 507 900 q 572 877 551 900 q 593 826 593 854 q 572 776 593 797 l 300 515 l 300 144 l 803 144 q 854 124 833 144 q 875 72 875 103 q 854 21 875 42 q 803 0 833 0 l 228 0 z "},"M":{"ha":1364,"x_min":139,"x_max":1225,"o":"m 211 0 q 160 21 181 0 q 139 72 139 42 l 139 1013 q 160 1065 139 1044 q 211 1085 181 1085 q 275 1046 253 1085 l 710 175 l 665 175 l 1089 1046 q 1153 1085 1111 1085 q 1204 1065 1183 1085 q 1225 1013 1225 1044 l 1225 72 q 1203 21 1225 42 q 1153 0 1182 0 q 1101 21 1122 0 q 1081 72 1081 42 l 1081 813 l 1108 819 l 744 78 q 682 42 721 42 q 615 85 636 42 l 256 806 l 283 813 l 283 72 q 263 21 283 42 q 211 0 242 0 z "},"N":{"ha":1153,"x_min":139,"x_max":1014,"o":"m 210 0 q 159 21 179 0 q 139 72 139 42 l 139 1013 q 159 1065 139 1044 q 210 1085 179 1085 q 265 1058 243 1085 l 871 253 l 871 1013 q 892 1065 871 1044 q 943 1085 913 1085 q 994 1065 975 1085 q 1014 1013 1014 1044 l 1014 72 q 994 21 1014 42 q 943 0 975 0 q 913 6 929 0 q 888 25 897 13 l 282 831 l 282 72 q 262 21 282 42 q 210 0 242 0 z "},"Ń":{"ha":1153,"x_min":139,"x_max":1014,"o":"m 210 0 q 159 21 179 0 q 139 72 139 42 l 139 1013 q 159 1065 139 1044 q 210 1085 179 1085 q 265 1058 243 1085 l 871 253 l 871 1013 q 892 1065 871 1044 q 943 1085 913 1085 q 994 1065 975 1085 q 1014 1013 1014 1044 l 1014 72 q 994 21 1014 42 q 943 0 975 0 q 913 6 929 0 q 888 25 897 13 l 282 831 l 282 72 q 262 21 282 42 q 210 0 242 0 m 582 1204 q 531 1224 551 1204 q 511 1275 511 1244 q 528 1322 511 1304 l 664 1458 q 714 1479 685 1479 q 765 1458 746 1479 q 785 1407 785 1438 q 781 1381 785 1393 q 765 1358 776 1368 l 631 1224 q 582 1204 611 1204 z "},"Ň":{"ha":1153,"x_min":139,"x_max":1014,"o":"m 210 0 q 159 21 179 0 q 139 72 139 42 l 139 1013 q 159 1065 139 1044 q 210 1085 179 1085 q 265 1058 243 1085 l 871 253 l 871 1013 q 892 1065 871 1044 q 943 1085 913 1085 q 994 1065 975 1085 q 1014 1013 1014 1044 l 1014 72 q 994 21 1014 42 q 943 0 975 0 q 913 6 929 0 q 888 25 897 13 l 282 831 l 282 72 q 262 21 282 42 q 210 0 242 0 m 576 1193 q 540 1204 556 1193 l 385 1307 q 351 1367 351 1332 q 385 1408 351 1394 q 467 1388 419 1421 l 576 1314 l 686 1388 q 770 1409 739 1424 q 801 1367 801 1394 q 768 1307 801 1332 l 614 1204 q 576 1193 597 1193 z "},"Ņ":{"ha":1153,"x_min":139,"x_max":1014,"o":"m 210 0 q 159 21 179 0 q 139 72 139 42 l 139 1013 q 159 1065 139 1044 q 210 1085 179 1085 q 265 1058 243 1085 l 871 253 l 871 1013 q 892 1065 871 1044 q 943 1085 913 1085 q 994 1065 975 1085 q 1014 1013 1014 1044 l 1014 72 q 994 21 1014 42 q 943 0 975 0 q 913 6 929 0 q 888 25 897 13 l 282 831 l 282 72 q 262 21 282 42 q 210 0 242 0 m 582 -343 q 504 -331 544 -343 q 436 -295 464 -319 q 408 -233 408 -271 q 422 -200 408 -212 q 457 -187 436 -187 q 490 -197 478 -187 q 515 -220 503 -207 q 544 -244 526 -233 q 593 -254 561 -254 q 650 -243 633 -254 q 667 -206 667 -232 q 641 -163 667 -178 q 563 -149 615 -149 q 515 -137 533 -149 q 496 -104 496 -126 q 576 -56 496 -56 q 711 -96 660 -56 q 763 -199 763 -136 q 711 -305 763 -267 q 582 -343 660 -343 z "},"Ŋ":{"ha":1040,"x_min":139,"x_max":943,"o":"m 610 -14 q 507 3 556 -14 q 421 55 458 19 q 364 144 383 90 q 364 193 354 171 q 397 224 374 215 q 447 222 424 233 q 481 182 469 210 q 529 137 494 150 q 601 124 564 124 q 758 223 715 124 q 800 524 800 322 l 800 633 q 770 806 800 735 q 682 914 740 876 q 536 951 624 951 q 402 924 460 951 q 313 847 344 896 q 282 732 282 797 l 282 943 q 394 1049 331 1011 q 546 1086 457 1086 q 760 1028 671 1086 q 896 869 849 971 q 943 633 943 767 l 943 524 q 857 123 943 260 q 610 -14 771 -14 m 210 0 q 159 21 179 0 q 139 72 139 42 l 139 1013 q 159 1065 139 1044 q 210 1085 179 1085 q 262 1065 242 1085 q 282 1013 282 1044 l 282 72 q 261 21 282 42 q 210 0 240 0 z "},"Ñ":{"ha":1153,"x_min":139,"x_max":1014,"o":"m 210 0 q 159 21 179 0 q 139 72 139 42 l 139 1013 q 159 1065 139 1044 q 210 1085 179 1085 q 265 1058 243 1085 l 871 253 l 871 1013 q 892 1065 871 1044 q 943 1085 913 1085 q 994 1065 975 1085 q 1014 1013 1014 1044 l 1014 72 q 994 21 1014 42 q 943 0 975 0 q 913 6 929 0 q 888 25 897 13 l 282 831 l 282 72 q 262 21 282 42 q 210 0 242 0 m 725 1189 q 643 1203 678 1189 q 583 1232 608 1218 q 531 1256 553 1249 q 492 1264 508 1264 q 457 1257 472 1264 q 425 1226 442 1250 q 385 1194 408 1204 q 335 1196 361 1183 q 311 1232 315 1206 q 322 1281 307 1258 q 401 1351 354 1328 q 501 1375 447 1375 q 580 1360 546 1375 q 638 1333 614 1346 q 686 1308 669 1315 q 721 1301 703 1301 q 753 1308 739 1301 q 776 1325 767 1315 q 814 1352 796 1344 q 858 1344 832 1360 q 881 1304 879 1332 q 865 1254 883 1276 q 725 1189 813 1189 z "},"O":{"ha":1279,"x_min":89,"x_max":1192,"o":"m 640 -14 q 417 27 518 -14 q 242 142 315 68 q 129 319 169 217 q 89 543 89 421 q 129 767 89 665 q 242 942 169 868 q 417 1058 315 1017 q 640 1099 518 1099 q 863 1058 763 1099 q 1038 942 964 1017 q 1151 767 1111 868 q 1192 543 1192 665 q 1151 319 1192 421 q 1038 142 1111 217 q 863 27 964 68 q 640 -14 763 -14 m 640 117 q 806 149 731 117 q 938 240 882 182 q 1023 375 993 297 q 1053 543 1053 453 q 1023 711 1053 633 q 938 847 993 789 q 806 936 882 904 q 640 968 731 968 q 474 936 550 968 q 344 847 399 904 q 258 711 289 789 q 228 543 228 633 q 258 375 228 453 q 344 240 289 297 q 474 149 399 182 q 640 117 550 117 z "},"Ó":{"ha":1279,"x_min":89,"x_max":1192,"o":"m 640 -14 q 417 27 518 -14 q 242 142 315 68 q 129 319 169 217 q 89 543 89 421 q 129 767 89 665 q 242 942 169 868 q 417 1058 315 1017 q 640 1099 518 1099 q 863 1058 763 1099 q 1038 942 964 1017 q 1151 767 1111 868 q 1192 543 1192 665 q 1151 319 1192 421 q 1038 142 1111 217 q 863 27 964 68 q 640 -14 763 -14 m 640 117 q 806 149 731 117 q 938 240 882 182 q 1023 375 993 297 q 1053 543 1053 453 q 1023 711 1053 633 q 938 847 993 789 q 806 936 882 904 q 640 968 731 968 q 474 936 550 968 q 344 847 399 904 q 258 711 289 789 q 228 543 228 633 q 258 375 228 453 q 344 240 289 297 q 474 149 399 182 q 640 117 550 117 m 646 1204 q 595 1224 615 1204 q 575 1275 575 1244 q 592 1322 575 1304 l 728 1458 q 778 1479 749 1479 q 829 1458 810 1479 q 849 1407 849 1438 q 844 1381 849 1393 q 829 1358 840 1368 l 694 1224 q 646 1204 675 1204 z "},"Ŏ":{"ha":1279,"x_min":89,"x_max":1192,"o":"m 640 -14 q 417 27 518 -14 q 242 142 315 68 q 129 319 169 217 q 89 543 89 421 q 129 767 89 665 q 242 942 169 868 q 417 1058 315 1017 q 640 1099 518 1099 q 863 1058 763 1099 q 1038 942 964 1017 q 1151 767 1111 868 q 1192 543 1192 665 q 1151 319 1192 421 q 1038 142 1111 217 q 863 27 964 68 q 640 -14 763 -14 m 640 117 q 806 149 731 117 q 938 240 882 182 q 1023 375 993 297 q 1053 543 1053 453 q 1023 711 1053 633 q 938 847 993 789 q 806 936 882 904 q 640 968 731 968 q 474 936 550 968 q 344 847 399 904 q 258 711 289 789 q 228 543 228 633 q 258 375 228 453 q 344 240 289 297 q 474 149 399 182 q 640 117 550 117 m 640 1165 q 526 1188 578 1165 q 444 1251 475 1211 q 414 1339 414 1290 q 432 1390 414 1369 q 481 1410 450 1410 q 526 1394 506 1410 q 547 1353 547 1379 q 577 1300 547 1321 q 640 1279 607 1279 q 708 1300 683 1279 q 732 1353 732 1321 q 753 1394 732 1379 q 800 1410 774 1410 q 848 1390 831 1410 q 865 1339 865 1369 q 835 1251 865 1290 q 753 1188 804 1211 q 640 1165 703 1165 z "},"Ô":{"ha":1279,"x_min":89,"x_max":1192,"o":"m 640 -14 q 417 27 518 -14 q 242 142 315 68 q 129 319 169 217 q 89 543 89 421 q 129 767 89 665 q 242 942 169 868 q 417 1058 315 1017 q 640 1099 518 1099 q 863 1058 763 1099 q 1038 942 964 1017 q 1151 767 1111 868 q 1192 543 1192 665 q 1151 319 1192 421 q 1038 142 1111 217 q 863 27 964 68 q 640 -14 763 -14 m 640 117 q 806 149 731 117 q 938 240 882 182 q 1023 375 993 297 q 1053 543 1053 453 q 1023 711 1053 633 q 938 847 993 789 q 806 936 882 904 q 640 968 731 968 q 474 936 550 968 q 344 847 399 904 q 258 711 289 789 q 228 543 228 633 q 258 375 228 453 q 344 240 289 297 q 474 149 399 182 q 640 117 550 117 m 486 1179 q 435 1195 456 1179 q 415 1236 415 1211 q 449 1297 415 1272 l 604 1399 q 640 1410 622 1410 q 660 1408 651 1410 q 678 1399 668 1406 l 832 1297 q 865 1236 865 1272 q 846 1195 865 1211 q 796 1179 826 1179 q 772 1183 782 1179 q 750 1194 761 1186 l 640 1272 l 531 1194 q 486 1179 511 1179 z "},"Ố":{"ha":1279,"x_min":89,"x_max":1192,"o":"m 640 -14 q 417 27 518 -14 q 242 142 315 68 q 129 319 169 217 q 89 543 89 421 q 129 767 89 665 q 242 942 169 868 q 417 1058 315 1017 q 640 1099 518 1099 q 863 1058 763 1099 q 1038 942 964 1017 q 1151 767 1111 868 q 1192 543 1192 665 q 1151 319 1192 421 q 1038 142 1111 217 q 863 27 964 68 q 640 -14 763 -14 m 640 117 q 806 149 731 117 q 938 240 882 182 q 1023 375 993 297 q 1053 543 1053 453 q 1023 711 1053 633 q 938 847 993 789 q 806 936 882 904 q 640 968 731 968 q 474 936 550 968 q 344 847 399 904 q 258 711 289 789 q 228 543 228 633 q 258 375 228 453 q 344 240 289 297 q 474 149 399 182 q 640 117 550 117 m 486 1179 q 435 1195 456 1179 q 415 1236 415 1211 q 449 1297 415 1272 l 604 1399 q 640 1410 622 1410 q 660 1408 651 1410 q 678 1399 668 1406 l 832 1297 q 865 1236 865 1272 q 846 1195 865 1211 q 796 1179 826 1179 q 772 1183 782 1179 q 750 1194 761 1186 l 640 1272 l 531 1194 q 486 1179 511 1179 m 790 1404 q 740 1424 760 1404 q 719 1475 719 1444 q 736 1522 719 1504 l 872 1658 q 922 1679 893 1679 q 974 1658 954 1679 q 993 1607 993 1638 q 989 1581 993 1593 q 974 1558 985 1568 l 839 1424 q 790 1404 819 1404 z "},"Ộ":{"ha":1279,"x_min":89,"x_max":1192,"o":"m 640 -14 q 417 27 518 -14 q 242 142 315 68 q 129 319 169 217 q 89 543 89 421 q 129 767 89 665 q 242 942 169 868 q 417 1058 315 1017 q 640 1099 518 1099 q 863 1058 763 1099 q 1038 942 964 1017 q 1151 767 1111 868 q 1192 543 1192 665 q 1151 319 1192 421 q 1038 142 1111 217 q 863 27 964 68 q 640 -14 763 -14 m 640 117 q 806 149 731 117 q 938 240 882 182 q 1023 375 993 297 q 1053 543 1053 453 q 1023 711 1053 633 q 938 847 993 789 q 806 936 882 904 q 640 968 731 968 q 474 936 550 968 q 344 847 399 904 q 258 711 289 789 q 228 543 228 633 q 258 375 228 453 q 344 240 289 297 q 474 149 399 182 q 640 117 550 117 m 486 1179 q 435 1195 456 1179 q 415 1236 415 1211 q 449 1297 415 1272 l 604 1399 q 640 1410 622 1410 q 660 1408 651 1410 q 678 1399 668 1406 l 832 1297 q 865 1236 865 1272 q 846 1195 865 1211 q 796 1179 826 1179 q 772 1183 782 1179 q 750 1194 761 1186 l 640 1272 l 531 1194 q 486 1179 511 1179 m 640 -311 q 576 -284 603 -311 q 549 -219 549 -257 q 576 -155 549 -182 q 640 -128 603 -128 q 705 -155 678 -128 q 732 -219 732 -182 q 705 -284 732 -257 q 640 -311 678 -311 z "},"Ồ":{"ha":1279,"x_min":89,"x_max":1192,"o":"m 640 -14 q 417 27 518 -14 q 242 142 315 68 q 129 319 169 217 q 89 543 89 421 q 129 767 89 665 q 242 942 169 868 q 417 1058 315 1017 q 640 1099 518 1099 q 863 1058 763 1099 q 1038 942 964 1017 q 1151 767 1111 868 q 1192 543 1192 665 q 1151 319 1192 421 q 1038 142 1111 217 q 863 27 964 68 q 640 -14 763 -14 m 640 117 q 806 149 731 117 q 938 240 882 182 q 1023 375 993 297 q 1053 543 1053 453 q 1023 711 1053 633 q 938 847 993 789 q 806 936 882 904 q 640 968 731 968 q 474 936 550 968 q 344 847 399 904 q 258 711 289 789 q 228 543 228 633 q 258 375 228 453 q 344 240 289 297 q 474 149 399 182 q 640 117 550 117 m 486 1179 q 435 1195 456 1179 q 415 1236 415 1211 q 449 1297 415 1272 l 604 1399 q 640 1410 622 1410 q 660 1408 651 1410 q 678 1399 668 1406 l 832 1297 q 865 1236 865 1272 q 846 1195 865 1211 q 796 1179 826 1179 q 772 1183 782 1179 q 750 1194 761 1186 l 640 1272 l 531 1194 q 486 1179 511 1179 m 781 1404 q 732 1424 750 1404 l 596 1558 q 578 1607 578 1576 q 597 1658 578 1638 q 647 1679 617 1679 q 699 1658 676 1679 l 833 1522 q 851 1475 851 1504 q 831 1424 851 1444 q 781 1404 811 1404 z "},"Ổ":{"ha":1279,"x_min":89,"x_max":1192,"o":"m 640 -14 q 417 27 518 -14 q 242 142 315 68 q 129 319 169 217 q 89 543 89 421 q 129 767 89 665 q 242 942 169 868 q 417 1058 315 1017 q 640 1099 518 1099 q 863 1058 763 1099 q 1038 942 964 1017 q 1151 767 1111 868 q 1192 543 1192 665 q 1151 319 1192 421 q 1038 142 1111 217 q 863 27 964 68 q 640 -14 763 -14 m 640 117 q 806 149 731 117 q 938 240 882 182 q 1023 375 993 297 q 1053 543 1053 453 q 1023 711 1053 633 q 938 847 993 789 q 806 936 882 904 q 640 968 731 968 q 474 936 550 968 q 344 847 399 904 q 258 711 289 789 q 228 543 228 633 q 258 375 228 453 q 344 240 289 297 q 474 149 399 182 q 640 117 550 117 m 493 1179 q 442 1195 463 1179 q 422 1236 422 1211 q 456 1297 422 1272 l 611 1399 q 647 1410 629 1410 q 667 1408 658 1410 q 685 1399 675 1406 l 839 1297 q 872 1236 872 1272 q 853 1195 872 1211 q 803 1179 833 1179 q 778 1183 789 1179 q 757 1194 768 1186 l 647 1272 l 538 1194 q 493 1179 518 1179 m 792 1360 q 747 1378 765 1360 q 729 1422 729 1396 l 729 1453 q 785 1521 729 1508 l 821 1529 q 861 1549 844 1535 q 878 1585 878 1563 q 861 1625 878 1613 q 818 1638 844 1638 q 781 1631 799 1638 q 753 1615 764 1624 q 731 1604 744 1608 q 707 1600 718 1600 q 671 1612 686 1600 q 656 1649 656 1624 q 678 1697 656 1679 q 739 1731 706 1719 q 815 1743 772 1743 q 938 1699 890 1743 q 985 1589 985 1654 q 940 1488 986 1519 q 828 1447 893 1456 l 854 1450 q 836 1381 854 1403 q 792 1360 818 1360 z "},"Ỗ":{"ha":1279,"x_min":89,"x_max":1192,"o":"m 640 -14 q 417 27 518 -14 q 242 142 315 68 q 129 319 169 217 q 89 543 89 421 q 129 767 89 665 q 242 942 169 868 q 417 1058 315 1017 q 640 1099 518 1099 q 863 1058 763 1099 q 1038 942 964 1017 q 1151 767 1111 868 q 1192 543 1192 665 q 1151 319 1192 421 q 1038 142 1111 217 q 863 27 964 68 q 640 -14 763 -14 m 640 117 q 806 149 731 117 q 938 240 882 182 q 1023 375 993 297 q 1053 543 1053 453 q 1023 711 1053 633 q 938 847 993 789 q 806 936 882 904 q 640 968 731 968 q 474 936 550 968 q 344 847 399 904 q 258 711 289 789 q 228 543 228 633 q 258 375 228 453 q 344 240 289 297 q 474 149 399 182 q 640 117 550 117 m 493 1179 q 442 1195 463 1179 q 422 1236 422 1211 q 456 1297 422 1272 l 611 1399 q 647 1410 629 1410 q 667 1408 658 1410 q 685 1399 675 1406 l 839 1297 q 872 1236 872 1272 q 853 1195 872 1211 q 803 1179 833 1179 q 778 1183 789 1179 q 757 1194 768 1186 l 647 1272 l 538 1194 q 493 1179 518 1179 m 728 1444 q 663 1460 692 1444 q 607 1501 633 1476 q 579 1526 590 1517 q 554 1535 568 1535 q 531 1524 540 1535 q 510 1496 521 1514 q 475 1466 497 1475 q 429 1467 453 1457 q 397 1501 406 1478 q 401 1547 388 1524 q 465 1624 431 1600 q 543 1649 500 1649 q 619 1626 592 1649 q 665 1588 647 1603 q 692 1568 682 1574 q 713 1563 703 1563 q 743 1583 729 1563 q 781 1615 758 1606 q 826 1615 804 1625 q 861 1579 853 1603 q 854 1532 869 1556 q 797 1465 828 1486 q 728 1444 765 1444 z "},"Ȍ":{"ha":1279,"x_min":89,"x_max":1192,"o":"m 640 -14 q 417 27 518 -14 q 242 142 315 68 q 129 319 169 217 q 89 543 89 421 q 129 767 89 665 q 242 942 169 868 q 417 1058 315 1017 q 640 1099 518 1099 q 863 1058 763 1099 q 1038 942 964 1017 q 1151 767 1111 868 q 1192 543 1192 665 q 1151 319 1192 421 q 1038 142 1111 217 q 863 27 964 68 q 640 -14 763 -14 m 640 117 q 806 149 731 117 q 938 240 882 182 q 1023 375 993 297 q 1053 543 1053 453 q 1023 711 1053 633 q 938 847 993 789 q 806 936 882 904 q 640 968 731 968 q 474 936 550 968 q 344 847 399 904 q 258 711 289 789 q 228 543 228 633 q 258 375 228 453 q 344 240 289 297 q 474 149 399 182 q 640 117 550 117 m 779 1182 q 726 1218 743 1182 l 649 1382 q 643 1408 643 1394 q 664 1458 643 1436 q 715 1479 685 1479 q 756 1467 738 1479 q 781 1435 775 1454 l 833 1263 q 838 1240 838 1250 q 818 1197 838 1213 q 779 1182 799 1182 m 581 1182 q 526 1218 546 1182 l 450 1382 q 445 1396 446 1389 q 443 1408 444 1403 q 464 1458 443 1436 q 515 1479 485 1479 q 556 1467 538 1479 q 581 1435 575 1454 l 635 1263 q 637 1251 636 1257 q 638 1240 638 1244 q 619 1197 638 1213 q 581 1182 600 1182 z "},"Ö":{"ha":1279,"x_min":89,"x_max":1192,"o":"m 640 -14 q 417 27 518 -14 q 242 142 315 68 q 129 319 169 217 q 89 543 89 421 q 129 767 89 665 q 242 942 169 868 q 417 1058 315 1017 q 640 1099 518 1099 q 863 1058 763 1099 q 1038 942 964 1017 q 1151 767 1111 868 q 1192 543 1192 665 q 1151 319 1192 421 q 1038 142 1111 217 q 863 27 964 68 q 640 -14 763 -14 m 640 117 q 806 149 731 117 q 938 240 882 182 q 1023 375 993 297 q 1053 543 1053 453 q 1023 711 1053 633 q 938 847 993 789 q 806 936 882 904 q 640 968 731 968 q 474 936 550 968 q 344 847 399 904 q 258 711 289 789 q 228 543 228 633 q 258 375 228 453 q 344 240 289 297 q 474 149 399 182 q 640 117 550 117 m 486 1201 q 426 1226 451 1201 q 401 1285 401 1250 q 426 1343 401 1318 q 486 1368 451 1368 q 544 1343 519 1368 q 569 1285 569 1318 q 544 1226 569 1250 q 486 1201 519 1201 m 794 1201 q 735 1226 760 1201 q 711 1285 711 1250 q 735 1343 711 1318 q 794 1368 760 1368 q 853 1343 828 1368 q 878 1285 878 1318 q 853 1226 878 1250 q 794 1201 828 1201 z "},"Ȫ":{"ha":1279,"x_min":89,"x_max":1192,"o":"m 640 -14 q 417 27 518 -14 q 242 142 315 68 q 129 319 169 217 q 89 543 89 421 q 129 767 89 665 q 242 942 169 868 q 417 1058 315 1017 q 640 1099 518 1099 q 863 1058 763 1099 q 1038 942 964 1017 q 1151 767 1111 868 q 1192 543 1192 665 q 1151 319 1192 421 q 1038 142 1111 217 q 863 27 964 68 q 640 -14 763 -14 m 640 117 q 806 149 731 117 q 938 240 882 182 q 1023 375 993 297 q 1053 543 1053 453 q 1023 711 1053 633 q 938 847 993 789 q 806 936 882 904 q 640 968 731 968 q 474 936 550 968 q 344 847 399 904 q 258 711 289 789 q 228 543 228 633 q 258 375 228 453 q 344 240 289 297 q 474 149 399 182 q 640 117 550 117 m 486 1201 q 426 1226 451 1201 q 401 1285 401 1250 q 426 1343 401 1318 q 486 1368 451 1368 q 544 1343 519 1368 q 569 1285 569 1318 q 544 1226 569 1250 q 486 1201 519 1201 m 794 1201 q 735 1226 760 1201 q 711 1285 711 1250 q 735 1343 711 1318 q 794 1368 760 1368 q 853 1343 828 1368 q 878 1285 878 1318 q 853 1226 878 1250 q 794 1201 828 1201 m 465 1507 q 415 1524 435 1507 q 394 1571 394 1540 q 415 1617 394 1601 q 465 1632 435 1632 l 813 1632 q 864 1617 843 1632 q 885 1571 885 1601 q 864 1524 885 1540 q 813 1507 843 1507 l 465 1507 z "},"Ȱ":{"ha":1279,"x_min":89,"x_max":1192,"o":"m 640 -14 q 417 27 518 -14 q 242 142 315 68 q 129 319 169 217 q 89 543 89 421 q 129 767 89 665 q 242 942 169 868 q 417 1058 315 1017 q 640 1099 518 1099 q 863 1058 763 1099 q 1038 942 964 1017 q 1151 767 1111 868 q 1192 543 1192 665 q 1151 319 1192 421 q 1038 142 1111 217 q 863 27 964 68 q 640 -14 763 -14 m 640 117 q 806 149 731 117 q 938 240 882 182 q 1023 375 993 297 q 1053 543 1053 453 q 1023 711 1053 633 q 938 847 993 789 q 806 936 882 904 q 640 968 731 968 q 474 936 550 968 q 344 847 399 904 q 258 711 289 789 q 228 543 228 633 q 258 375 228 453 q 344 240 289 297 q 474 149 399 182 q 640 117 550 117 m 640 1208 q 576 1235 603 1208 q 549 1300 549 1263 q 576 1365 549 1338 q 640 1392 603 1392 q 705 1365 678 1392 q 732 1300 732 1338 q 705 1235 732 1263 q 640 1208 678 1208 m 465 1478 q 415 1494 435 1478 q 394 1542 394 1511 q 415 1588 394 1572 q 465 1603 435 1603 l 813 1603 q 864 1588 843 1603 q 885 1542 885 1572 q 864 1494 885 1511 q 813 1478 843 1478 l 465 1478 z "},"Ọ":{"ha":1279,"x_min":89,"x_max":1192,"o":"m 640 -14 q 417 27 518 -14 q 242 142 315 68 q 129 319 169 217 q 89 543 89 421 q 129 767 89 665 q 242 942 169 868 q 417 1058 315 1017 q 640 1099 518 1099 q 863 1058 763 1099 q 1038 942 964 1017 q 1151 767 1111 868 q 1192 543 1192 665 q 1151 319 1192 421 q 1038 142 1111 217 q 863 27 964 68 q 640 -14 763 -14 m 640 117 q 806 149 731 117 q 938 240 882 182 q 1023 375 993 297 q 1053 543 1053 453 q 1023 711 1053 633 q 938 847 993 789 q 806 936 882 904 q 640 968 731 968 q 474 936 550 968 q 344 847 399 904 q 258 711 289 789 q 228 543 228 633 q 258 375 228 453 q 344 240 289 297 q 474 149 399 182 q 640 117 550 117 m 640 -311 q 576 -284 603 -311 q 549 -219 549 -257 q 576 -155 549 -182 q 640 -128 603 -128 q 705 -155 678 -128 q 732 -219 732 -182 q 705 -284 732 -257 q 640 -311 678 -311 z "},"Ò":{"ha":1279,"x_min":89,"x_max":1192,"o":"m 640 -14 q 417 27 518 -14 q 242 142 315 68 q 129 319 169 217 q 89 543 89 421 q 129 767 89 665 q 242 942 169 868 q 417 1058 315 1017 q 640 1099 518 1099 q 863 1058 763 1099 q 1038 942 964 1017 q 1151 767 1111 868 q 1192 543 1192 665 q 1151 319 1192 421 q 1038 142 1111 217 q 863 27 964 68 q 640 -14 763 -14 m 640 117 q 806 149 731 117 q 938 240 882 182 q 1023 375 993 297 q 1053 543 1053 453 q 1023 711 1053 633 q 938 847 993 789 q 806 936 882 904 q 640 968 731 968 q 474 936 550 968 q 344 847 399 904 q 258 711 289 789 q 228 543 228 633 q 258 375 228 453 q 344 240 289 297 q 474 149 399 182 q 640 117 550 117 m 636 1204 q 588 1224 606 1204 l 451 1358 q 433 1407 433 1376 q 453 1458 433 1438 q 503 1479 472 1479 q 554 1458 532 1479 l 689 1322 q 707 1275 707 1304 q 687 1224 707 1244 q 636 1204 667 1204 z "},"Ỏ":{"ha":1279,"x_min":89,"x_max":1192,"o":"m 640 -14 q 417 27 518 -14 q 242 142 315 68 q 129 319 169 217 q 89 543 89 421 q 129 767 89 665 q 242 942 169 868 q 417 1058 315 1017 q 640 1099 518 1099 q 863 1058 763 1099 q 1038 942 964 1017 q 1151 767 1111 868 q 1192 543 1192 665 q 1151 319 1192 421 q 1038 142 1111 217 q 863 27 964 68 q 640 -14 763 -14 m 640 117 q 806 149 731 117 q 938 240 882 182 q 1023 375 993 297 q 1053 543 1053 453 q 1023 711 1053 633 q 938 847 993 789 q 806 936 882 904 q 640 968 731 968 q 474 936 550 968 q 344 847 399 904 q 258 711 289 789 q 228 543 228 633 q 258 375 228 453 q 344 240 289 297 q 474 149 399 182 q 640 117 550 117 m 640 1160 q 596 1178 614 1160 q 578 1222 578 1196 l 578 1253 q 633 1321 578 1308 l 669 1329 q 710 1349 693 1335 q 726 1385 726 1363 q 710 1425 726 1413 q 667 1438 693 1438 q 630 1431 647 1438 q 601 1415 613 1424 q 580 1404 593 1408 q 556 1400 567 1400 q 519 1412 535 1400 q 504 1449 504 1424 q 526 1497 504 1479 q 588 1531 554 1519 q 664 1543 621 1543 q 786 1499 739 1543 q 833 1389 833 1454 q 788 1288 835 1319 q 676 1247 742 1256 l 703 1250 q 685 1181 703 1203 q 640 1160 667 1160 z "},"Ơ":{"ha":1279,"x_min":89,"x_max":1192,"o":"m 640 -14 q 417 27 518 -14 q 242 142 315 68 q 129 319 169 217 q 89 543 89 421 q 129 767 89 665 q 242 942 169 868 q 417 1058 315 1017 q 640 1099 518 1099 q 863 1058 763 1099 q 1038 942 964 1017 q 1151 767 1111 868 q 1192 543 1192 665 q 1151 319 1192 421 q 1038 142 1111 217 q 863 27 964 68 q 640 -14 763 -14 m 640 117 q 806 149 731 117 q 938 240 882 182 q 1023 375 993 297 q 1053 543 1053 453 q 1023 711 1053 633 q 938 847 993 789 q 806 936 882 904 q 640 968 731 968 q 474 936 550 968 q 344 847 399 904 q 258 711 289 789 q 228 543 228 633 q 258 375 228 453 q 344 240 289 297 q 474 149 399 182 q 640 117 550 117 m 914 906 l 914 1031 l 981 1031 q 1024 1056 1006 1031 q 1042 1124 1042 1082 l 1042 1150 q 1059 1201 1042 1182 q 1104 1219 1076 1219 q 1151 1197 1135 1219 q 1167 1140 1167 1174 l 1167 1124 q 1142 1013 1167 1063 q 1076 934 1118 963 q 981 906 1035 906 l 914 906 z "},"Ớ":{"ha":1279,"x_min":89,"x_max":1192,"o":"m 640 -14 q 417 27 518 -14 q 242 142 315 68 q 129 319 169 217 q 89 543 89 421 q 129 767 89 665 q 242 942 169 868 q 417 1058 315 1017 q 640 1099 518 1099 q 863 1058 763 1099 q 1038 942 964 1017 q 1151 767 1111 868 q 1192 543 1192 665 q 1151 319 1192 421 q 1038 142 1111 217 q 863 27 964 68 q 640 -14 763 -14 m 640 117 q 806 149 731 117 q 938 240 882 182 q 1023 375 993 297 q 1053 543 1053 453 q 1023 711 1053 633 q 938 847 993 789 q 806 936 882 904 q 640 968 731 968 q 474 936 550 968 q 344 847 399 904 q 258 711 289 789 q 228 543 228 633 q 258 375 228 453 q 344 240 289 297 q 474 149 399 182 q 640 117 550 117 m 914 906 l 914 1031 l 981 1031 q 1024 1056 1006 1031 q 1042 1124 1042 1082 l 1042 1150 q 1059 1201 1042 1182 q 1104 1219 1076 1219 q 1151 1197 1135 1219 q 1167 1140 1167 1174 l 1167 1124 q 1142 1013 1167 1063 q 1076 934 1118 963 q 981 906 1035 906 l 914 906 m 646 1204 q 595 1224 615 1204 q 575 1275 575 1244 q 592 1322 575 1304 l 728 1458 q 778 1479 749 1479 q 829 1458 810 1479 q 849 1407 849 1438 q 844 1381 849 1393 q 829 1358 840 1368 l 694 1224 q 646 1204 675 1204 z "},"Ợ":{"ha":1279,"x_min":89,"x_max":1192,"o":"m 640 -14 q 417 27 518 -14 q 242 142 315 68 q 129 319 169 217 q 89 543 89 421 q 129 767 89 665 q 242 942 169 868 q 417 1058 315 1017 q 640 1099 518 1099 q 863 1058 763 1099 q 1038 942 964 1017 q 1151 767 1111 868 q 1192 543 1192 665 q 1151 319 1192 421 q 1038 142 1111 217 q 863 27 964 68 q 640 -14 763 -14 m 640 117 q 806 149 731 117 q 938 240 882 182 q 1023 375 993 297 q 1053 543 1053 453 q 1023 711 1053 633 q 938 847 993 789 q 806 936 882 904 q 640 968 731 968 q 474 936 550 968 q 344 847 399 904 q 258 711 289 789 q 228 543 228 633 q 258 375 228 453 q 344 240 289 297 q 474 149 399 182 q 640 117 550 117 m 914 906 l 914 1031 l 981 1031 q 1024 1056 1006 1031 q 1042 1124 1042 1082 l 1042 1150 q 1059 1201 1042 1182 q 1104 1219 1076 1219 q 1151 1197 1135 1219 q 1167 1140 1167 1174 l 1167 1124 q 1142 1013 1167 1063 q 1076 934 1118 963 q 981 906 1035 906 l 914 906 m 640 -311 q 576 -284 603 -311 q 549 -219 549 -257 q 576 -155 549 -182 q 640 -128 603 -128 q 705 -155 678 -128 q 732 -219 732 -182 q 705 -284 732 -257 q 640 -311 678 -311 z "},"Ờ":{"ha":1279,"x_min":89,"x_max":1192,"o":"m 640 -14 q 417 27 518 -14 q 242 142 315 68 q 129 319 169 217 q 89 543 89 421 q 129 767 89 665 q 242 942 169 868 q 417 1058 315 1017 q 640 1099 518 1099 q 863 1058 763 1099 q 1038 942 964 1017 q 1151 767 1111 868 q 1192 543 1192 665 q 1151 319 1192 421 q 1038 142 1111 217 q 863 27 964 68 q 640 -14 763 -14 m 640 117 q 806 149 731 117 q 938 240 882 182 q 1023 375 993 297 q 1053 543 1053 453 q 1023 711 1053 633 q 938 847 993 789 q 806 936 882 904 q 640 968 731 968 q 474 936 550 968 q 344 847 399 904 q 258 711 289 789 q 228 543 228 633 q 258 375 228 453 q 344 240 289 297 q 474 149 399 182 q 640 117 550 117 m 914 906 l 914 1031 l 981 1031 q 1024 1056 1006 1031 q 1042 1124 1042 1082 l 1042 1150 q 1059 1201 1042 1182 q 1104 1219 1076 1219 q 1151 1197 1135 1219 q 1167 1140 1167 1174 l 1167 1124 q 1142 1013 1167 1063 q 1076 934 1118 963 q 981 906 1035 906 l 914 906 m 636 1204 q 588 1224 606 1204 l 451 1358 q 433 1407 433 1376 q 453 1458 433 1438 q 503 1479 472 1479 q 554 1458 532 1479 l 689 1322 q 707 1275 707 1304 q 687 1224 707 1244 q 636 1204 667 1204 z "},"Ở":{"ha":1279,"x_min":89,"x_max":1192,"o":"m 640 -14 q 417 27 518 -14 q 242 142 315 68 q 129 319 169 217 q 89 543 89 421 q 129 767 89 665 q 242 942 169 868 q 417 1058 315 1017 q 640 1099 518 1099 q 863 1058 763 1099 q 1038 942 964 1017 q 1151 767 1111 868 q 1192 543 1192 665 q 1151 319 1192 421 q 1038 142 1111 217 q 863 27 964 68 q 640 -14 763 -14 m 640 117 q 806 149 731 117 q 938 240 882 182 q 1023 375 993 297 q 1053 543 1053 453 q 1023 711 1053 633 q 938 847 993 789 q 806 936 882 904 q 640 968 731 968 q 474 936 550 968 q 344 847 399 904 q 258 711 289 789 q 228 543 228 633 q 258 375 228 453 q 344 240 289 297 q 474 149 399 182 q 640 117 550 117 m 914 906 l 914 1031 l 981 1031 q 1024 1056 1006 1031 q 1042 1124 1042 1082 l 1042 1150 q 1059 1201 1042 1182 q 1104 1219 1076 1219 q 1151 1197 1135 1219 q 1167 1140 1167 1174 l 1167 1124 q 1142 1013 1167 1063 q 1076 934 1118 963 q 981 906 1035 906 l 914 906 m 640 1160 q 596 1178 614 1160 q 578 1222 578 1196 l 578 1253 q 633 1321 578 1308 l 669 1329 q 710 1349 693 1335 q 726 1385 726 1363 q 710 1425 726 1413 q 667 1438 693 1438 q 630 1431 647 1438 q 601 1415 613 1424 q 580 1404 593 1408 q 556 1400 567 1400 q 519 1412 535 1400 q 504 1449 504 1424 q 526 1497 504 1479 q 588 1531 554 1519 q 664 1543 621 1543 q 786 1499 739 1543 q 833 1389 833 1454 q 788 1288 835 1319 q 676 1247 742 1256 l 703 1250 q 685 1181 703 1203 q 640 1160 667 1160 z "},"Ỡ":{"ha":1279,"x_min":89,"x_max":1192,"o":"m 640 -14 q 417 27 518 -14 q 242 142 315 68 q 129 319 169 217 q 89 543 89 421 q 129 767 89 665 q 242 942 169 868 q 417 1058 315 1017 q 640 1099 518 1099 q 863 1058 763 1099 q 1038 942 964 1017 q 1151 767 1111 868 q 1192 543 1192 665 q 1151 319 1192 421 q 1038 142 1111 217 q 863 27 964 68 q 640 -14 763 -14 m 640 117 q 806 149 731 117 q 938 240 882 182 q 1023 375 993 297 q 1053 543 1053 453 q 1023 711 1053 633 q 938 847 993 789 q 806 936 882 904 q 640 968 731 968 q 474 936 550 968 q 344 847 399 904 q 258 711 289 789 q 228 543 228 633 q 258 375 228 453 q 344 240 289 297 q 474 149 399 182 q 640 117 550 117 m 914 906 l 914 1031 l 981 1031 q 1024 1056 1006 1031 q 1042 1124 1042 1082 l 1042 1150 q 1059 1201 1042 1182 q 1104 1219 1076 1219 q 1151 1197 1135 1219 q 1167 1140 1167 1174 l 1167 1124 q 1142 1013 1167 1063 q 1076 934 1118 963 q 981 906 1035 906 l 914 906 m 789 1189 q 707 1203 742 1189 q 647 1232 672 1218 q 594 1256 617 1249 q 556 1264 572 1264 q 521 1257 536 1264 q 489 1226 506 1250 q 449 1194 472 1204 q 399 1196 425 1183 q 375 1232 379 1206 q 386 1281 371 1258 q 465 1351 418 1328 q 565 1375 511 1375 q 644 1360 610 1375 q 701 1333 678 1346 q 750 1308 733 1315 q 785 1301 767 1301 q 817 1308 803 1301 q 840 1325 831 1315 q 878 1352 860 1344 q 922 1344 896 1360 q 945 1304 943 1332 q 929 1254 947 1276 q 789 1189 876 1189 z "},"Ő":{"ha":1279,"x_min":89,"x_max":1192,"o":"m 640 -14 q 417 27 518 -14 q 242 142 315 68 q 129 319 169 217 q 89 543 89 421 q 129 767 89 665 q 242 942 169 868 q 417 1058 315 1017 q 640 1099 518 1099 q 863 1058 763 1099 q 1038 942 964 1017 q 1151 767 1111 868 q 1192 543 1192 665 q 1151 319 1192 421 q 1038 142 1111 217 q 863 27 964 68 q 640 -14 763 -14 m 640 117 q 806 149 731 117 q 938 240 882 182 q 1023 375 993 297 q 1053 543 1053 453 q 1023 711 1053 633 q 938 847 993 789 q 806 936 882 904 q 640 968 731 968 q 474 936 550 968 q 344 847 399 904 q 258 711 289 789 q 228 543 228 633 q 258 375 228 453 q 344 240 289 297 q 474 149 399 182 q 640 117 550 117 m 740 1182 q 702 1197 721 1182 q 683 1240 683 1213 q 684 1251 683 1244 q 686 1263 685 1257 l 740 1435 q 765 1467 746 1454 q 806 1479 783 1479 q 857 1458 836 1479 q 878 1408 878 1436 q 876 1396 876 1403 q 871 1382 875 1389 l 794 1218 q 740 1182 775 1182 m 542 1182 q 503 1197 522 1182 q 483 1240 483 1213 q 485 1251 483 1244 q 488 1263 486 1257 l 540 1435 q 565 1467 546 1454 q 606 1479 583 1479 q 658 1458 638 1479 q 678 1408 678 1436 q 672 1382 678 1394 l 594 1218 q 542 1182 578 1182 z "},"Ȏ":{"ha":1279,"x_min":89,"x_max":1192,"o":"m 640 -14 q 417 27 518 -14 q 242 142 315 68 q 129 319 169 217 q 89 543 89 421 q 129 767 89 665 q 242 942 169 868 q 417 1058 315 1017 q 640 1099 518 1099 q 863 1058 763 1099 q 1038 942 964 1017 q 1151 767 1111 868 q 1192 543 1192 665 q 1151 319 1192 421 q 1038 142 1111 217 q 863 27 964 68 q 640 -14 763 -14 m 640 117 q 806 149 731 117 q 938 240 882 182 q 1023 375 993 297 q 1053 543 1053 453 q 1023 711 1053 633 q 938 847 993 789 q 806 936 882 904 q 640 968 731 968 q 474 936 550 968 q 344 847 399 904 q 258 711 289 789 q 228 543 228 633 q 258 375 228 453 q 344 240 289 297 q 474 149 399 182 q 640 117 550 117 m 481 1165 q 432 1185 450 1165 q 414 1236 414 1206 q 444 1325 414 1286 q 526 1387 475 1364 q 640 1410 578 1410 q 753 1387 703 1410 q 835 1325 804 1364 q 865 1236 865 1286 q 848 1185 865 1206 q 800 1165 831 1165 q 753 1181 774 1165 q 732 1222 732 1196 q 708 1275 732 1254 q 640 1296 683 1296 q 577 1275 607 1296 q 547 1222 547 1254 q 526 1181 547 1196 q 481 1165 506 1165 z "},"Ō":{"ha":1279,"x_min":89,"x_max":1192,"o":"m 640 -14 q 417 27 518 -14 q 242 142 315 68 q 129 319 169 217 q 89 543 89 421 q 129 767 89 665 q 242 942 169 868 q 417 1058 315 1017 q 640 1099 518 1099 q 863 1058 763 1099 q 1038 942 964 1017 q 1151 767 1111 868 q 1192 543 1192 665 q 1151 319 1192 421 q 1038 142 1111 217 q 863 27 964 68 q 640 -14 763 -14 m 640 117 q 806 149 731 117 q 938 240 882 182 q 1023 375 993 297 q 1053 543 1053 453 q 1023 711 1053 633 q 938 847 993 789 q 806 936 882 904 q 640 968 731 968 q 474 936 550 968 q 344 847 399 904 q 258 711 289 789 q 228 543 228 633 q 258 375 228 453 q 344 240 289 297 q 474 149 399 182 q 640 117 550 117 m 465 1224 q 415 1240 435 1224 q 394 1288 394 1257 q 415 1333 394 1318 q 465 1349 435 1349 l 813 1349 q 864 1333 843 1349 q 885 1288 885 1318 q 864 1240 885 1257 q 813 1224 843 1224 l 465 1224 z "},"Ǫ":{"ha":1279,"x_min":89,"x_max":1192,"o":"m 640 -14 q 417 27 518 -14 q 242 142 315 68 q 129 319 169 217 q 89 543 89 421 q 129 767 89 665 q 242 942 169 868 q 417 1058 315 1017 q 640 1099 518 1099 q 863 1058 763 1099 q 1038 942 964 1017 q 1151 767 1111 868 q 1192 543 1192 665 q 1151 319 1192 421 q 1038 142 1111 217 q 863 27 964 68 q 640 -14 763 -14 m 640 117 q 806 149 731 117 q 938 240 882 182 q 1023 375 993 297 q 1053 543 1053 453 q 1023 711 1053 633 q 938 847 993 789 q 806 936 882 904 q 640 968 731 968 q 474 936 550 968 q 344 847 399 904 q 258 711 289 789 q 228 543 228 633 q 258 375 228 453 q 344 240 289 297 q 474 149 399 182 q 640 117 550 117 m 638 -383 q 551 -360 590 -383 q 488 -297 513 -336 q 464 -210 464 -257 q 536 -68 464 -128 q 560 -45 551 -57 q 575 -24 569 -33 q 638 14 594 14 q 687 -6 667 14 q 708 -56 707 -25 q 686 -119 708 -87 q 619 -182 664 -150 q 609 -195 613 -187 q 606 -210 606 -203 q 615 -233 606 -224 q 638 -242 624 -242 q 647 -240 643 -242 q 654 -236 651 -239 l 697 -204 q 740 -190 718 -190 q 792 -210 772 -190 q 811 -261 811 -231 q 786 -318 811 -294 l 733 -353 q 638 -383 690 -383 z "},"Ø":{"ha":1279,"x_min":74,"x_max":1200,"o":"m 124 0 q 83 26 93 0 q 92 71 74 53 l 221 200 l 265 233 l 965 933 l 1004 963 l 1117 1074 q 1146 1085 1128 1085 q 1186 1061 1172 1085 q 1178 1015 1200 1038 l 1065 903 l 1029 876 l 322 169 l 283 142 l 153 11 q 124 0 142 0 m 640 -14 q 417 27 518 -14 q 242 142 315 68 q 129 319 169 217 q 89 543 89 421 q 129 767 89 665 q 242 942 169 868 q 417 1058 315 1017 q 640 1099 518 1099 q 863 1058 763 1099 q 1038 942 964 1017 q 1151 767 1111 868 q 1192 543 1192 665 q 1151 319 1192 421 q 1038 142 1111 217 q 863 27 964 68 q 640 -14 763 -14 m 640 117 q 806 149 731 117 q 938 240 882 182 q 1023 375 993 297 q 1053 543 1053 453 q 1023 711 1053 633 q 938 847 993 789 q 806 936 882 904 q 640 968 731 968 q 474 936 550 968 q 344 847 399 904 q 258 711 289 789 q 228 543 228 633 q 258 375 228 453 q 344 240 289 297 q 474 149 399 182 q 640 117 550 117 z "},"Ǿ":{"ha":1279,"x_min":74,"x_max":1200,"o":"m 124 0 q 83 26 93 0 q 92 71 74 53 l 221 200 l 265 233 l 965 933 l 1004 963 l 1117 1074 q 1146 1085 1128 1085 q 1186 1061 1172 1085 q 1178 1015 1200 1038 l 1065 903 l 1029 876 l 322 169 l 283 142 l 153 11 q 124 0 142 0 m 640 -14 q 417 27 518 -14 q 242 142 315 68 q 129 319 169 217 q 89 543 89 421 q 129 767 89 665 q 242 942 169 868 q 417 1058 315 1017 q 640 1099 518 1099 q 863 1058 763 1099 q 1038 942 964 1017 q 1151 767 1111 868 q 1192 543 1192 665 q 1151 319 1192 421 q 1038 142 1111 217 q 863 27 964 68 q 640 -14 763 -14 m 640 117 q 806 149 731 117 q 938 240 882 182 q 1023 375 993 297 q 1053 543 1053 453 q 1023 711 1053 633 q 938 847 993 789 q 806 936 882 904 q 640 968 731 968 q 474 936 550 968 q 344 847 399 904 q 258 711 289 789 q 228 543 228 633 q 258 375 228 453 q 344 240 289 297 q 474 149 399 182 q 640 117 550 117 m 646 1204 q 595 1224 615 1204 q 575 1275 575 1244 q 592 1322 575 1304 l 728 1458 q 778 1479 749 1479 q 829 1458 810 1479 q 849 1407 849 1438 q 844 1381 849 1393 q 829 1358 840 1368 l 694 1224 q 646 1204 675 1204 z "},"Õ":{"ha":1279,"x_min":89,"x_max":1192,"o":"m 640 -14 q 417 27 518 -14 q 242 142 315 68 q 129 319 169 217 q 89 543 89 421 q 129 767 89 665 q 242 942 169 868 q 417 1058 315 1017 q 640 1099 518 1099 q 863 1058 763 1099 q 1038 942 964 1017 q 1151 767 1111 868 q 1192 543 1192 665 q 1151 319 1192 421 q 1038 142 1111 217 q 863 27 964 68 q 640 -14 763 -14 m 640 117 q 806 149 731 117 q 938 240 882 182 q 1023 375 993 297 q 1053 543 1053 453 q 1023 711 1053 633 q 938 847 993 789 q 806 936 882 904 q 640 968 731 968 q 474 936 550 968 q 344 847 399 904 q 258 711 289 789 q 228 543 228 633 q 258 375 228 453 q 344 240 289 297 q 474 149 399 182 q 640 117 550 117 m 789 1189 q 707 1203 742 1189 q 647 1232 672 1218 q 594 1256 617 1249 q 556 1264 572 1264 q 521 1257 536 1264 q 489 1226 506 1250 q 449 1194 472 1204 q 399 1196 425 1183 q 375 1232 379 1206 q 386 1281 371 1258 q 465 1351 418 1328 q 565 1375 511 1375 q 644 1360 610 1375 q 701 1333 678 1346 q 750 1308 733 1315 q 785 1301 767 1301 q 817 1308 803 1301 q 840 1325 831 1315 q 878 1352 860 1344 q 922 1344 896 1360 q 945 1304 943 1332 q 929 1254 947 1276 q 789 1189 876 1189 z "},"Ȭ":{"ha":1279,"x_min":89,"x_max":1192,"o":"m 640 -14 q 417 27 518 -14 q 242 142 315 68 q 129 319 169 217 q 89 543 89 421 q 129 767 89 665 q 242 942 169 868 q 417 1058 315 1017 q 640 1099 518 1099 q 863 1058 763 1099 q 1038 942 964 1017 q 1151 767 1111 868 q 1192 543 1192 665 q 1151 319 1192 421 q 1038 142 1111 217 q 863 27 964 68 q 640 -14 763 -14 m 640 117 q 806 149 731 117 q 938 240 882 182 q 1023 375 993 297 q 1053 543 1053 453 q 1023 711 1053 633 q 938 847 993 789 q 806 936 882 904 q 640 968 731 968 q 474 936 550 968 q 344 847 399 904 q 258 711 289 789 q 228 543 228 633 q 258 375 228 453 q 344 240 289 297 q 474 149 399 182 q 640 117 550 117 m 789 1189 q 707 1203 742 1189 q 647 1232 672 1218 q 594 1256 617 1249 q 556 1264 572 1264 q 521 1257 536 1264 q 489 1226 506 1250 q 449 1194 472 1204 q 399 1196 425 1183 q 375 1232 379 1206 q 386 1281 371 1258 q 465 1351 418 1328 q 565 1375 511 1375 q 644 1360 610 1375 q 701 1333 678 1346 q 750 1308 733 1315 q 785 1301 767 1301 q 817 1308 803 1301 q 840 1325 831 1315 q 878 1352 860 1344 q 922 1344 896 1360 q 945 1304 943 1332 q 929 1254 947 1276 q 789 1189 876 1189 m 479 1472 q 428 1489 449 1472 q 408 1536 408 1506 q 428 1582 408 1567 q 479 1597 449 1597 l 826 1597 q 878 1582 857 1597 q 899 1536 899 1567 q 878 1489 899 1506 q 826 1472 857 1472 l 479 1472 z "},"Œ":{"ha":1613,"x_min":89,"x_max":1550,"o":"m 640 -14 q 417 27 518 -14 q 242 142 315 68 q 129 319 169 217 q 89 543 89 421 q 129 767 89 665 q 242 942 169 868 q 417 1058 315 1017 q 640 1099 518 1099 q 796 1092 722 1099 q 932 1085 869 1085 l 932 925 q 803 957 876 946 q 640 968 729 968 q 474 936 550 968 q 344 847 399 904 q 258 711 289 789 q 228 543 228 633 q 258 375 228 453 q 344 240 289 297 q 474 149 399 182 q 640 117 550 117 q 928 157 818 117 l 928 0 q 794 -6 867 1 q 640 -14 722 -14 m 893 0 q 842 21 863 0 q 821 72 821 42 l 821 1013 q 842 1065 821 1044 q 893 1085 863 1085 l 1479 1085 q 1531 1066 1511 1085 q 1550 1017 1550 1047 q 1531 969 1550 988 q 1479 951 1511 951 l 965 951 l 965 614 l 1322 614 q 1374 595 1354 614 q 1393 547 1393 576 q 1374 499 1393 518 q 1322 481 1354 481 l 965 481 l 965 133 l 1479 133 q 1531 115 1511 133 q 1550 68 1550 97 q 1531 19 1550 38 q 1479 0 1511 0 l 893 0 z "},"P":{"ha":865,"x_min":139,"x_max":844,"o":"m 211 0 q 160 21 181 0 q 139 72 139 42 l 139 1013 q 160 1065 139 1044 q 211 1085 181 1085 l 489 1085 q 674 1039 593 1085 q 799 912 754 993 q 844 725 844 831 q 799 544 844 624 q 674 421 754 465 q 489 376 593 376 l 283 376 l 283 72 q 263 21 283 42 q 211 0 243 0 m 283 510 l 489 510 q 601 538 553 510 q 678 614 650 565 q 706 725 706 663 q 678 842 706 792 q 601 922 650 893 q 489 951 553 951 l 283 951 l 283 510 z "},"Þ":{"ha":865,"x_min":139,"x_max":844,"o":"m 211 0 q 160 21 181 0 q 139 72 139 42 l 139 1013 q 160 1065 139 1044 q 211 1085 181 1085 q 263 1065 243 1085 q 283 1013 283 1044 l 283 882 l 489 882 q 674 842 593 882 q 799 728 754 801 q 844 558 844 656 q 799 394 844 465 q 674 285 754 324 q 489 246 593 246 l 283 246 l 283 72 q 263 21 283 42 q 211 0 243 0 m 283 371 l 489 371 q 601 395 553 371 q 678 462 650 419 q 706 558 706 504 q 678 661 706 617 q 601 731 650 706 q 489 757 553 757 l 283 757 l 283 371 z "},"Q":{"ha":1279,"x_min":89,"x_max":1192,"o":"m 1019 22 l 729 313 q 707 362 707 335 q 729 411 707 389 q 778 433 751 433 q 828 411 806 433 l 1118 119 q 1140 71 1139 97 q 1118 22 1140 44 q 1069 0 1096 0 q 1019 22 1042 0 m 640 -14 q 417 27 518 -14 q 242 142 315 68 q 129 319 169 217 q 89 543 89 421 q 129 767 89 665 q 242 942 169 868 q 417 1058 315 1017 q 640 1099 518 1099 q 863 1058 763 1099 q 1038 942 964 1017 q 1151 767 1111 868 q 1192 543 1192 665 q 1151 319 1192 421 q 1038 142 1111 217 q 863 27 964 68 q 640 -14 763 -14 m 640 117 q 806 149 731 117 q 938 240 882 182 q 1023 375 993 297 q 1053 543 1053 453 q 1023 711 1053 633 q 938 847 993 789 q 806 936 882 904 q 640 968 731 968 q 474 936 550 968 q 344 847 399 904 q 258 711 289 789 q 228 543 228 633 q 258 375 228 453 q 344 240 289 297 q 474 149 399 182 q 640 117 550 117 z "},"R":{"ha":878,"x_min":139,"x_max":868,"o":"m 211 0 q 160 21 181 0 q 139 72 139 42 l 139 1013 q 160 1065 139 1044 q 211 1085 181 1085 l 461 1085 q 646 1041 565 1085 q 772 921 726 997 q 817 743 817 844 q 772 575 817 649 q 646 460 726 501 q 461 418 565 418 l 283 418 l 283 72 q 263 21 283 42 q 211 0 243 0 m 788 0 q 752 8 768 0 q 725 35 736 17 l 475 438 l 615 478 l 843 111 q 850 35 868 71 q 788 0 832 0 m 283 551 l 461 551 q 574 576 525 551 q 650 644 622 600 q 678 743 678 688 q 650 851 678 804 q 574 925 622 899 q 461 951 525 951 l 283 951 l 283 551 z "},"Ŕ":{"ha":878,"x_min":139,"x_max":868,"o":"m 211 0 q 160 21 181 0 q 139 72 139 42 l 139 1013 q 160 1065 139 1044 q 211 1085 181 1085 l 461 1085 q 646 1041 565 1085 q 772 921 726 997 q 817 743 817 844 q 772 575 817 649 q 646 460 726 501 q 461 418 565 418 l 283 418 l 283 72 q 263 21 283 42 q 211 0 243 0 m 788 0 q 752 8 768 0 q 725 35 736 17 l 475 438 l 615 478 l 843 111 q 850 35 868 71 q 788 0 832 0 m 283 551 l 461 551 q 574 576 525 551 q 650 644 622 600 q 678 743 678 688 q 650 851 678 804 q 574 925 622 899 q 461 951 525 951 l 283 951 l 283 551 m 489 1204 q 438 1224 458 1204 q 418 1275 418 1244 q 435 1322 418 1304 l 571 1458 q 621 1479 592 1479 q 672 1458 653 1479 q 692 1407 692 1438 q 688 1381 692 1393 q 672 1358 683 1368 l 538 1224 q 489 1204 518 1204 z "},"Ř":{"ha":878,"x_min":139,"x_max":868,"o":"m 211 0 q 160 21 181 0 q 139 72 139 42 l 139 1013 q 160 1065 139 1044 q 211 1085 181 1085 l 461 1085 q 646 1041 565 1085 q 772 921 726 997 q 817 743 817 844 q 772 575 817 649 q 646 460 726 501 q 461 418 565 418 l 283 418 l 283 72 q 263 21 283 42 q 211 0 243 0 m 788 0 q 752 8 768 0 q 725 35 736 17 l 475 438 l 615 478 l 843 111 q 850 35 868 71 q 788 0 832 0 m 283 551 l 461 551 q 574 576 525 551 q 650 644 622 600 q 678 743 678 688 q 650 851 678 804 q 574 925 622 899 q 461 951 525 951 l 283 951 l 283 551 m 483 1193 q 447 1204 463 1193 l 292 1307 q 258 1367 258 1332 q 292 1408 258 1394 q 374 1388 326 1421 l 483 1314 l 593 1388 q 677 1409 646 1424 q 708 1367 708 1394 q 675 1307 708 1332 l 521 1204 q 483 1193 504 1193 z "},"Ŗ":{"ha":878,"x_min":139,"x_max":868,"o":"m 211 0 q 160 21 181 0 q 139 72 139 42 l 139 1013 q 160 1065 139 1044 q 211 1085 181 1085 l 461 1085 q 646 1041 565 1085 q 772 921 726 997 q 817 743 817 844 q 772 575 817 649 q 646 460 726 501 q 461 418 565 418 l 283 418 l 283 72 q 263 21 283 42 q 211 0 243 0 m 788 0 q 752 8 768 0 q 725 35 736 17 l 475 438 l 615 478 l 843 111 q 850 35 868 71 q 788 0 832 0 m 283 551 l 461 551 q 574 576 525 551 q 650 644 622 600 q 678 743 678 688 q 650 851 678 804 q 574 925 622 899 q 461 951 525 951 l 283 951 l 283 551 m 489 -343 q 411 -331 451 -343 q 343 -295 371 -319 q 315 -233 315 -271 q 329 -200 315 -212 q 364 -187 343 -187 q 397 -197 385 -187 q 422 -220 410 -207 q 451 -244 433 -233 q 500 -254 468 -254 q 557 -243 540 -254 q 574 -206 574 -232 q 548 -163 574 -178 q 469 -149 522 -149 q 422 -137 440 -149 q 403 -104 403 -126 q 483 -56 403 -56 q 618 -96 567 -56 q 669 -199 669 -136 q 618 -305 669 -267 q 489 -343 567 -343 z "},"Ȑ":{"ha":878,"x_min":139,"x_max":868,"o":"m 211 0 q 160 21 181 0 q 139 72 139 42 l 139 1013 q 160 1065 139 1044 q 211 1085 181 1085 l 461 1085 q 646 1041 565 1085 q 772 921 726 997 q 817 743 817 844 q 772 575 817 649 q 646 460 726 501 q 461 418 565 418 l 283 418 l 283 72 q 263 21 283 42 q 211 0 243 0 m 788 0 q 752 8 768 0 q 725 35 736 17 l 475 438 l 615 478 l 843 111 q 850 35 868 71 q 788 0 832 0 m 283 551 l 461 551 q 574 576 525 551 q 650 644 622 600 q 678 743 678 688 q 650 851 678 804 q 574 925 622 899 q 461 951 525 951 l 283 951 l 283 551 m 622 1182 q 569 1218 586 1182 l 492 1382 q 486 1408 486 1394 q 507 1458 486 1436 q 558 1479 528 1479 q 599 1467 581 1479 q 624 1435 618 1454 l 676 1263 q 681 1240 681 1250 q 661 1197 681 1213 q 622 1182 642 1182 m 424 1182 q 369 1218 389 1182 l 293 1382 q 288 1396 289 1389 q 286 1408 288 1403 q 307 1458 286 1436 q 358 1479 328 1479 q 399 1467 381 1479 q 424 1435 418 1454 l 478 1263 q 480 1251 479 1257 q 481 1240 481 1244 q 462 1197 481 1213 q 424 1182 443 1182 z "},"Ȓ":{"ha":878,"x_min":139,"x_max":868,"o":"m 211 0 q 160 21 181 0 q 139 72 139 42 l 139 1013 q 160 1065 139 1044 q 211 1085 181 1085 l 461 1085 q 646 1041 565 1085 q 772 921 726 997 q 817 743 817 844 q 772 575 817 649 q 646 460 726 501 q 461 418 565 418 l 283 418 l 283 72 q 263 21 283 42 q 211 0 243 0 m 788 0 q 752 8 768 0 q 725 35 736 17 l 475 438 l 615 478 l 843 111 q 850 35 868 71 q 788 0 832 0 m 283 551 l 461 551 q 574 576 525 551 q 650 644 622 600 q 678 743 678 688 q 650 851 678 804 q 574 925 622 899 q 461 951 525 951 l 283 951 l 283 551 m 324 1165 q 275 1185 293 1165 q 257 1236 257 1206 q 288 1325 257 1286 q 369 1387 318 1364 q 483 1410 421 1410 q 597 1387 546 1410 q 678 1325 647 1364 q 708 1236 708 1286 q 691 1185 708 1206 q 643 1165 674 1165 q 596 1181 617 1165 q 575 1222 575 1196 q 551 1275 575 1254 q 483 1296 526 1296 q 420 1275 450 1296 q 390 1222 390 1254 q 369 1181 390 1196 q 324 1165 349 1165 z "},"S":{"ha":956,"x_min":72,"x_max":874,"o":"m 483 -14 q 314 14 394 -14 q 174 92 233 42 q 86 207 114 142 q 87 261 72 236 q 136 293 101 286 q 185 285 161 299 q 222 246 210 272 q 277 182 239 211 q 369 135 315 153 q 483 117 424 117 q 606 138 550 117 q 697 198 663 158 q 732 296 732 238 q 674 428 732 369 q 485 500 617 486 q 214 601 313 517 q 115 811 115 686 q 167 967 115 903 q 306 1064 218 1031 q 503 1097 394 1097 q 651 1074 588 1097 q 761 1008 714 1050 q 843 910 808 967 q 859 852 863 879 q 832 810 856 825 q 775 803 806 793 q 729 839 744 813 q 675 907 707 879 q 600 951 643 935 q 499 967 557 967 q 326 928 396 968 q 257 807 257 889 q 278 727 257 765 q 358 661 300 689 q 524 622 415 633 q 781 522 689 606 q 874 300 874 438 q 841 163 874 221 q 753 65 808 104 q 628 6 699 25 q 483 -14 558 -14 z "},"Ś":{"ha":956,"x_min":72,"x_max":874,"o":"m 483 -14 q 314 14 394 -14 q 174 92 233 42 q 86 207 114 142 q 87 261 72 236 q 136 293 101 286 q 185 285 161 299 q 222 246 210 272 q 277 182 239 211 q 369 135 315 153 q 483 117 424 117 q 606 138 550 117 q 697 198 663 158 q 732 296 732 238 q 674 428 732 369 q 485 500 617 486 q 214 601 313 517 q 115 811 115 686 q 167 967 115 903 q 306 1064 218 1031 q 503 1097 394 1097 q 651 1074 588 1097 q 761 1008 714 1050 q 843 910 808 967 q 859 852 863 879 q 832 810 856 825 q 775 803 806 793 q 729 839 744 813 q 675 907 707 879 q 600 951 643 935 q 499 967 557 967 q 326 928 396 968 q 257 807 257 889 q 278 727 257 765 q 358 661 300 689 q 524 622 415 633 q 781 522 689 606 q 874 300 874 438 q 841 163 874 221 q 753 65 808 104 q 628 6 699 25 q 483 -14 558 -14 m 483 1204 q 433 1224 453 1204 q 413 1275 413 1244 q 429 1322 413 1304 l 565 1458 q 615 1479 586 1479 q 667 1458 647 1479 q 686 1407 686 1438 q 682 1381 686 1393 q 667 1358 678 1368 l 532 1224 q 483 1204 513 1204 z "},"Š":{"ha":956,"x_min":72,"x_max":874,"o":"m 483 -14 q 314 14 394 -14 q 174 92 233 42 q 86 207 114 142 q 87 261 72 236 q 136 293 101 286 q 185 285 161 299 q 222 246 210 272 q 277 182 239 211 q 369 135 315 153 q 483 117 424 117 q 606 138 550 117 q 697 198 663 158 q 732 296 732 238 q 674 428 732 369 q 485 500 617 486 q 214 601 313 517 q 115 811 115 686 q 167 967 115 903 q 306 1064 218 1031 q 503 1097 394 1097 q 651 1074 588 1097 q 761 1008 714 1050 q 843 910 808 967 q 859 852 863 879 q 832 810 856 825 q 775 803 806 793 q 729 839 744 813 q 675 907 707 879 q 600 951 643 935 q 499 967 557 967 q 326 928 396 968 q 257 807 257 889 q 278 727 257 765 q 358 661 300 689 q 524 622 415 633 q 781 522 689 606 q 874 300 874 438 q 841 163 874 221 q 753 65 808 104 q 628 6 699 25 q 483 -14 558 -14 m 478 1193 q 442 1204 457 1193 l 286 1307 q 253 1367 253 1332 q 287 1408 253 1394 q 368 1388 321 1421 l 478 1314 l 588 1388 q 672 1409 640 1424 q 703 1367 703 1394 q 669 1307 703 1332 l 515 1204 q 478 1193 499 1193 z "},"Ş":{"ha":956,"x_min":72,"x_max":874,"o":"m 483 -14 q 314 14 394 -14 q 174 92 233 42 q 86 207 114 142 q 87 261 72 236 q 136 293 101 286 q 185 285 161 299 q 222 246 210 272 q 277 182 239 211 q 369 135 315 153 q 483 117 424 117 q 606 138 550 117 q 697 198 663 158 q 732 296 732 238 q 674 428 732 369 q 485 500 617 486 q 214 601 313 517 q 115 811 115 686 q 167 967 115 903 q 306 1064 218 1031 q 503 1097 394 1097 q 651 1074 588 1097 q 761 1008 714 1050 q 843 910 808 967 q 859 852 863 879 q 832 810 856 825 q 775 803 806 793 q 729 839 744 813 q 675 907 707 879 q 600 951 643 935 q 499 967 557 967 q 326 928 396 968 q 257 807 257 889 q 278 727 257 765 q 358 661 300 689 q 524 622 415 633 q 781 522 689 606 q 874 300 874 438 q 841 163 874 221 q 753 65 808 104 q 628 6 699 25 q 483 -14 558 -14 m 476 -325 q 340 -290 393 -325 q 286 -208 286 -256 q 306 -161 286 -181 q 351 -142 325 -142 q 380 -149 368 -142 q 399 -176 392 -157 q 430 -213 408 -201 q 478 -225 451 -225 q 524 -212 506 -225 q 542 -176 542 -199 q 528 -136 542 -151 q 479 -115 514 -121 q 419 -87 436 -108 q 417 -21 401 -65 l 431 18 q 460 60 440 46 q 510 75 479 75 q 562 53 544 75 q 564 -1 579 31 l 543 -49 q 649 -96 615 -64 q 682 -181 682 -128 q 657 -250 682 -217 q 586 -304 632 -283 q 476 -325 540 -325 z "},"Ŝ":{"ha":956,"x_min":72,"x_max":874,"o":"m 483 -14 q 314 14 394 -14 q 174 92 233 42 q 86 207 114 142 q 87 261 72 236 q 136 293 101 286 q 185 285 161 299 q 222 246 210 272 q 277 182 239 211 q 369 135 315 153 q 483 117 424 117 q 606 138 550 117 q 697 198 663 158 q 732 296 732 238 q 674 428 732 369 q 485 500 617 486 q 214 601 313 517 q 115 811 115 686 q 167 967 115 903 q 306 1064 218 1031 q 503 1097 394 1097 q 651 1074 588 1097 q 761 1008 714 1050 q 843 910 808 967 q 859 852 863 879 q 832 810 856 825 q 775 803 806 793 q 729 839 744 813 q 675 907 707 879 q 600 951 643 935 q 499 967 557 967 q 326 928 396 968 q 257 807 257 889 q 278 727 257 765 q 358 661 300 689 q 524 622 415 633 q 781 522 689 606 q 874 300 874 438 q 841 163 874 221 q 753 65 808 104 q 628 6 699 25 q 483 -14 558 -14 m 324 1179 q 273 1195 293 1179 q 253 1236 253 1211 q 286 1297 253 1272 l 442 1399 q 478 1410 460 1410 q 497 1408 489 1410 q 515 1399 506 1406 l 669 1297 q 703 1236 703 1272 q 683 1195 703 1211 q 633 1179 664 1179 q 609 1183 619 1179 q 588 1194 599 1186 l 478 1272 l 368 1194 q 324 1179 349 1179 z "},"Ș":{"ha":956,"x_min":72,"x_max":874,"o":"m 483 -14 q 314 14 394 -14 q 174 92 233 42 q 86 207 114 142 q 87 261 72 236 q 136 293 101 286 q 185 285 161 299 q 222 246 210 272 q 277 182 239 211 q 369 135 315 153 q 483 117 424 117 q 606 138 550 117 q 697 198 663 158 q 732 296 732 238 q 674 428 732 369 q 485 500 617 486 q 214 601 313 517 q 115 811 115 686 q 167 967 115 903 q 306 1064 218 1031 q 503 1097 394 1097 q 651 1074 588 1097 q 761 1008 714 1050 q 843 910 808 967 q 859 852 863 879 q 832 810 856 825 q 775 803 806 793 q 729 839 744 813 q 675 907 707 879 q 600 951 643 935 q 499 967 557 967 q 326 928 396 968 q 257 807 257 889 q 278 727 257 765 q 358 661 300 689 q 524 622 415 633 q 781 522 689 606 q 874 300 874 438 q 841 163 874 221 q 753 65 808 104 q 628 6 699 25 q 483 -14 558 -14 m 483 -343 q 406 -331 446 -343 q 338 -295 365 -319 q 310 -233 310 -271 q 324 -200 310 -212 q 358 -187 338 -187 q 392 -197 379 -187 q 416 -220 404 -207 q 445 -244 428 -233 q 494 -254 463 -254 q 551 -243 535 -254 q 568 -206 568 -232 q 542 -163 568 -178 q 464 -149 517 -149 q 416 -137 435 -149 q 397 -104 397 -126 q 478 -56 397 -56 q 613 -96 561 -56 q 664 -199 664 -136 q 613 -305 664 -267 q 483 -343 561 -343 z "},"ẞ":{"ha":1004,"x_min":139,"x_max":928,"o":"m 208 0 q 156 19 172 0 q 139 65 139 38 l 139 749 q 186 921 139 844 q 316 1041 233 997 q 501 1085 399 1085 q 666 1056 593 1085 q 781 983 739 1028 q 824 890 824 939 q 812 832 824 851 q 781 792 800 813 l 539 540 l 461 615 l 701 876 q 617 934 665 917 q 503 951 569 951 q 391 924 440 951 q 313 851 342 897 q 283 746 283 804 l 283 65 q 264 19 283 38 q 208 0 244 0 m 572 0 q 500 5 538 0 q 429 25 463 10 q 408 47 415 32 q 401 88 401 61 q 425 134 401 119 q 483 142 449 149 q 513 137 499 139 q 543 134 528 135 q 572 133 558 133 q 685 156 636 133 q 761 221 733 178 q 789 328 789 264 q 761 426 789 388 q 685 485 733 465 q 572 506 636 506 l 513 506 q 466 524 485 506 q 447 571 447 543 q 466 620 447 601 q 513 639 485 639 l 607 639 q 767 602 694 639 q 884 496 840 565 q 928 328 928 426 q 883 158 928 232 q 757 42 838 85 q 572 0 676 0 z "},"Ə":{"ha":1181,"x_min":89,"x_max":1093,"o":"m 607 -12 q 401 27 496 -12 q 237 139 307 67 q 128 308 167 211 q 89 518 89 404 q 115 581 89 557 q 182 606 142 606 l 1022 606 l 1022 478 l 149 478 l 231 501 q 285 305 235 392 q 419 167 335 218 q 607 117 504 117 q 786 172 707 117 q 911 322 865 226 q 957 536 957 417 q 902 760 957 663 q 751 912 847 857 q 535 967 656 967 q 402 946 465 967 q 285 889 339 925 q 239 876 263 874 q 199 897 215 879 q 183 941 182 917 q 203 981 183 965 q 358 1067 274 1038 q 549 1097 443 1097 q 763 1056 664 1097 q 937 938 863 1014 q 1052 760 1011 863 q 1093 536 1093 658 q 1056 319 1093 419 q 953 145 1019 219 q 799 29 888 71 q 607 -12 711 -12 z "},"T":{"ha":918,"x_min":21,"x_max":897,"o":"m 460 0 q 408 21 429 0 q 388 72 388 42 l 388 1085 l 532 1085 l 532 72 q 511 21 532 42 q 460 0 490 0 m 88 951 q 40 970 58 951 q 21 1018 21 989 q 40 1066 21 1047 q 88 1085 58 1085 l 831 1085 q 878 1066 860 1085 q 897 1018 897 1047 q 878 970 897 989 q 831 951 860 951 l 88 951 z "},"Ŧ":{"ha":918,"x_min":21,"x_max":897,"o":"m 460 0 q 408 21 429 0 q 388 72 388 42 l 388 1085 l 532 1085 l 532 72 q 511 21 532 42 q 460 0 490 0 m 88 951 q 40 970 58 951 q 21 1018 21 989 q 40 1066 21 1047 q 88 1085 58 1085 l 831 1085 q 878 1066 860 1085 q 897 1018 897 1047 q 878 970 897 989 q 831 951 860 951 l 88 951 m 235 481 q 184 497 204 481 q 164 543 164 514 q 184 589 164 572 q 235 606 204 606 l 682 606 q 734 589 714 606 q 754 543 754 572 q 734 497 754 514 q 682 481 714 481 l 235 481 z "},"Ť":{"ha":918,"x_min":21,"x_max":897,"o":"m 460 0 q 408 21 429 0 q 388 72 388 42 l 388 1085 l 532 1085 l 532 72 q 511 21 532 42 q 460 0 490 0 m 88 951 q 40 970 58 951 q 21 1018 21 989 q 40 1066 21 1047 q 88 1085 58 1085 l 831 1085 q 878 1066 860 1085 q 897 1018 897 1047 q 878 970 897 989 q 831 951 860 951 l 88 951 m 460 1193 q 424 1204 439 1193 l 268 1307 q 235 1367 235 1332 q 269 1408 235 1394 q 350 1388 303 1421 l 460 1314 l 569 1388 q 653 1409 622 1424 q 685 1367 685 1394 q 651 1307 685 1332 l 497 1204 q 460 1193 481 1193 z "},"Ţ":{"ha":918,"x_min":21,"x_max":897,"o":"m 460 0 q 408 21 429 0 q 388 72 388 42 l 388 1085 l 532 1085 l 532 72 q 511 21 532 42 q 460 0 490 0 m 88 951 q 40 970 58 951 q 21 1018 21 989 q 40 1066 21 1047 q 88 1085 58 1085 l 831 1085 q 878 1066 860 1085 q 897 1018 897 1047 q 878 970 897 989 q 831 951 860 951 l 88 951 m 458 -325 q 322 -290 375 -325 q 268 -208 268 -256 q 288 -161 268 -181 q 333 -142 307 -142 q 362 -149 350 -142 q 381 -176 374 -157 q 412 -213 390 -201 q 460 -225 433 -225 q 506 -212 488 -225 q 524 -176 524 -199 q 510 -136 524 -151 q 461 -115 496 -121 q 401 -87 418 -108 q 399 -21 383 -65 l 413 18 q 442 60 422 46 q 492 75 461 75 q 544 53 526 75 q 546 -1 561 31 l 525 -49 q 631 -96 597 -64 q 664 -181 664 -128 q 639 -250 664 -217 q 568 -304 614 -283 q 458 -325 522 -325 z "},"Ț":{"ha":918,"x_min":21,"x_max":897,"o":"m 460 0 q 408 21 429 0 q 388 72 388 42 l 388 1085 l 532 1085 l 532 72 q 511 21 532 42 q 460 0 490 0 m 88 951 q 40 970 58 951 q 21 1018 21 989 q 40 1066 21 1047 q 88 1085 58 1085 l 831 1085 q 878 1066 860 1085 q 897 1018 897 1047 q 878 970 897 989 q 831 951 860 951 l 88 951 m 465 -343 q 388 -331 428 -343 q 319 -295 347 -319 q 292 -233 292 -271 q 306 -200 292 -212 q 340 -187 319 -187 q 374 -197 361 -187 q 398 -220 386 -207 q 427 -244 410 -233 q 476 -254 444 -254 q 533 -243 517 -254 q 550 -206 550 -232 q 524 -163 550 -178 q 446 -149 499 -149 q 398 -137 417 -149 q 379 -104 379 -126 q 460 -56 379 -56 q 594 -96 543 -56 q 646 -199 646 -136 q 594 -305 646 -267 q 465 -343 543 -343 z "},"U":{"ha":1174,"x_min":139,"x_max":1035,"o":"m 593 -22 q 357 27 460 -22 q 197 164 254 76 q 139 364 139 251 l 139 1013 q 160 1065 139 1044 q 211 1085 181 1085 q 263 1065 243 1085 q 283 1013 283 1044 l 283 364 q 323 231 283 289 q 433 141 363 174 q 593 108 503 108 q 748 141 681 108 q 853 231 815 174 q 892 364 892 289 l 892 1013 q 913 1065 892 1044 q 964 1085 933 1085 q 1015 1065 996 1085 q 1035 1013 1035 1044 l 1035 364 q 978 164 1035 251 q 822 27 922 76 q 593 -22 722 -22 z "},"Ú":{"ha":1174,"x_min":139,"x_max":1035,"o":"m 593 -22 q 357 27 460 -22 q 197 164 254 76 q 139 364 139 251 l 139 1013 q 160 1065 139 1044 q 211 1085 181 1085 q 263 1065 243 1085 q 283 1013 283 1044 l 283 364 q 323 231 283 289 q 433 141 363 174 q 593 108 503 108 q 748 141 681 108 q 853 231 815 174 q 892 364 892 289 l 892 1013 q 913 1065 892 1044 q 964 1085 933 1085 q 1015 1065 996 1085 q 1035 1013 1035 1044 l 1035 364 q 978 164 1035 251 q 822 27 922 76 q 593 -22 722 -22 m 593 1204 q 542 1224 563 1204 q 522 1275 522 1244 q 539 1322 522 1304 l 675 1458 q 725 1479 696 1479 q 776 1458 757 1479 q 796 1407 796 1438 q 792 1381 796 1393 q 776 1358 788 1368 l 642 1224 q 593 1204 622 1204 z "},"Ŭ":{"ha":1174,"x_min":139,"x_max":1035,"o":"m 593 -22 q 357 27 460 -22 q 197 164 254 76 q 139 364 139 251 l 139 1013 q 160 1065 139 1044 q 211 1085 181 1085 q 263 1065 243 1085 q 283 1013 283 1044 l 283 364 q 323 231 283 289 q 433 141 363 174 q 593 108 503 108 q 748 141 681 108 q 853 231 815 174 q 892 364 892 289 l 892 1013 q 913 1065 892 1044 q 964 1085 933 1085 q 1015 1065 996 1085 q 1035 1013 1035 1044 l 1035 364 q 978 164 1035 251 q 822 27 922 76 q 593 -22 722 -22 m 588 1165 q 474 1188 525 1165 q 392 1251 422 1211 q 361 1339 361 1290 q 379 1390 361 1369 q 428 1410 397 1410 q 474 1394 453 1410 q 494 1353 494 1379 q 524 1300 494 1321 q 588 1279 554 1279 q 655 1300 631 1279 q 679 1353 679 1321 q 700 1394 679 1379 q 747 1410 721 1410 q 795 1390 778 1410 q 813 1339 813 1369 q 782 1251 813 1290 q 701 1188 751 1211 q 588 1165 650 1165 z "},"Û":{"ha":1174,"x_min":139,"x_max":1035,"o":"m 593 -22 q 357 27 460 -22 q 197 164 254 76 q 139 364 139 251 l 139 1013 q 160 1065 139 1044 q 211 1085 181 1085 q 263 1065 243 1085 q 283 1013 283 1044 l 283 364 q 323 231 283 289 q 433 141 363 174 q 593 108 503 108 q 748 141 681 108 q 853 231 815 174 q 892 364 892 289 l 892 1013 q 913 1065 892 1044 q 964 1085 933 1085 q 1015 1065 996 1085 q 1035 1013 1035 1044 l 1035 364 q 978 164 1035 251 q 822 27 922 76 q 593 -22 722 -22 m 433 1179 q 383 1195 403 1179 q 363 1236 363 1211 q 396 1297 363 1272 l 551 1399 q 588 1410 569 1410 q 607 1408 599 1410 q 625 1399 615 1406 l 779 1297 q 813 1236 813 1272 q 793 1195 813 1211 q 743 1179 774 1179 q 719 1183 729 1179 q 697 1194 708 1186 l 588 1272 l 478 1194 q 433 1179 458 1179 z "},"Ȕ":{"ha":1174,"x_min":139,"x_max":1035,"o":"m 593 -22 q 357 27 460 -22 q 197 164 254 76 q 139 364 139 251 l 139 1013 q 160 1065 139 1044 q 211 1085 181 1085 q 263 1065 243 1085 q 283 1013 283 1044 l 283 364 q 323 231 283 289 q 433 141 363 174 q 593 108 503 108 q 748 141 681 108 q 853 231 815 174 q 892 364 892 289 l 892 1013 q 913 1065 892 1044 q 964 1085 933 1085 q 1015 1065 996 1085 q 1035 1013 1035 1044 l 1035 364 q 978 164 1035 251 q 822 27 922 76 q 593 -22 722 -22 m 726 1182 q 674 1218 690 1182 l 596 1382 q 590 1408 590 1394 q 611 1458 590 1436 q 663 1479 632 1479 q 703 1467 685 1479 q 728 1435 722 1454 l 781 1263 q 785 1240 785 1250 q 765 1197 785 1213 q 726 1182 746 1182 m 528 1182 q 474 1218 493 1182 l 397 1382 q 392 1396 393 1389 q 390 1408 392 1403 q 411 1458 390 1436 q 463 1479 432 1479 q 503 1467 485 1479 q 528 1435 522 1454 l 582 1263 q 584 1251 583 1257 q 585 1240 585 1244 q 566 1197 585 1213 q 528 1182 547 1182 z "},"Ü":{"ha":1174,"x_min":139,"x_max":1035,"o":"m 593 -22 q 357 27 460 -22 q 197 164 254 76 q 139 364 139 251 l 139 1013 q 160 1065 139 1044 q 211 1085 181 1085 q 263 1065 243 1085 q 283 1013 283 1044 l 283 364 q 323 231 283 289 q 433 141 363 174 q 593 108 503 108 q 748 141 681 108 q 853 231 815 174 q 892 364 892 289 l 892 1013 q 913 1065 892 1044 q 964 1085 933 1085 q 1015 1065 996 1085 q 1035 1013 1035 1044 l 1035 364 q 978 164 1035 251 q 822 27 922 76 q 593 -22 722 -22 m 433 1201 q 374 1226 399 1201 q 349 1285 349 1250 q 374 1343 349 1318 q 433 1368 399 1368 q 492 1343 467 1368 q 517 1285 517 1318 q 492 1226 517 1250 q 433 1201 467 1201 m 742 1201 q 683 1226 707 1201 q 658 1285 658 1250 q 683 1343 658 1318 q 742 1368 707 1368 q 800 1343 775 1368 q 825 1285 825 1318 q 800 1226 825 1250 q 742 1201 775 1201 z "},"Ụ":{"ha":1174,"x_min":139,"x_max":1035,"o":"m 593 -22 q 357 27 460 -22 q 197 164 254 76 q 139 364 139 251 l 139 1013 q 160 1065 139 1044 q 211 1085 181 1085 q 263 1065 243 1085 q 283 1013 283 1044 l 283 364 q 323 231 283 289 q 433 141 363 174 q 593 108 503 108 q 748 141 681 108 q 853 231 815 174 q 892 364 892 289 l 892 1013 q 913 1065 892 1044 q 964 1085 933 1085 q 1015 1065 996 1085 q 1035 1013 1035 1044 l 1035 364 q 978 164 1035 251 q 822 27 922 76 q 593 -22 722 -22 m 588 -311 q 523 -284 550 -311 q 496 -219 496 -257 q 523 -155 496 -182 q 588 -128 550 -128 q 652 -155 625 -128 q 679 -219 679 -182 q 652 -284 679 -257 q 588 -311 625 -311 z "},"Ù":{"ha":1174,"x_min":139,"x_max":1035,"o":"m 593 -22 q 357 27 460 -22 q 197 164 254 76 q 139 364 139 251 l 139 1013 q 160 1065 139 1044 q 211 1085 181 1085 q 263 1065 243 1085 q 283 1013 283 1044 l 283 364 q 323 231 283 289 q 433 141 363 174 q 593 108 503 108 q 748 141 681 108 q 853 231 815 174 q 892 364 892 289 l 892 1013 q 913 1065 892 1044 q 964 1085 933 1085 q 1015 1065 996 1085 q 1035 1013 1035 1044 l 1035 364 q 978 164 1035 251 q 822 27 922 76 q 593 -22 722 -22 m 583 1204 q 535 1224 553 1204 l 399 1358 q 381 1407 381 1376 q 400 1458 381 1438 q 450 1479 419 1479 q 501 1458 479 1479 l 636 1322 q 654 1275 654 1304 q 634 1224 654 1244 q 583 1204 614 1204 z "},"Ủ":{"ha":1174,"x_min":139,"x_max":1035,"o":"m 593 -22 q 357 27 460 -22 q 197 164 254 76 q 139 364 139 251 l 139 1013 q 160 1065 139 1044 q 211 1085 181 1085 q 263 1065 243 1085 q 283 1013 283 1044 l 283 364 q 323 231 283 289 q 433 141 363 174 q 593 108 503 108 q 748 141 681 108 q 853 231 815 174 q 892 364 892 289 l 892 1013 q 913 1065 892 1044 q 964 1085 933 1085 q 1015 1065 996 1085 q 1035 1013 1035 1044 l 1035 364 q 978 164 1035 251 q 822 27 922 76 q 593 -22 722 -22 m 588 1160 q 543 1178 561 1160 q 525 1222 525 1196 l 525 1253 q 581 1321 525 1308 l 617 1329 q 657 1349 640 1335 q 674 1385 674 1363 q 657 1425 674 1413 q 614 1438 640 1438 q 577 1431 594 1438 q 549 1415 560 1424 q 527 1404 540 1408 q 503 1400 514 1400 q 467 1412 482 1400 q 451 1449 451 1424 q 474 1497 451 1479 q 535 1531 501 1519 q 611 1543 568 1543 q 733 1499 686 1543 q 781 1389 781 1454 q 735 1288 782 1319 q 624 1247 689 1256 l 650 1250 q 632 1181 650 1203 q 588 1160 614 1160 z "},"Ư":{"ha":1174,"x_min":139,"x_max":1217,"o":"m 593 -22 q 357 27 460 -22 q 197 164 254 76 q 139 364 139 251 l 139 1013 q 160 1065 139 1044 q 211 1085 181 1085 q 263 1065 243 1085 q 283 1013 283 1044 l 283 364 q 323 231 283 289 q 433 141 363 174 q 593 108 503 108 q 748 141 681 108 q 853 231 815 174 q 892 364 892 289 l 892 1013 q 913 1065 892 1044 q 964 1085 933 1085 q 1015 1065 996 1085 q 1035 1013 1035 1044 l 1035 364 q 978 164 1035 251 q 822 27 922 76 q 593 -22 722 -22 m 964 960 l 964 1085 l 1031 1085 q 1074 1110 1056 1085 q 1092 1178 1092 1136 l 1092 1204 q 1109 1255 1092 1236 q 1154 1274 1126 1274 q 1201 1251 1185 1274 q 1217 1194 1217 1228 l 1217 1178 q 1192 1067 1217 1117 q 1126 988 1168 1017 q 1031 960 1085 960 l 964 960 z "},"Ứ":{"ha":1174,"x_min":139,"x_max":1217,"o":"m 593 -22 q 357 27 460 -22 q 197 164 254 76 q 139 364 139 251 l 139 1013 q 160 1065 139 1044 q 211 1085 181 1085 q 263 1065 243 1085 q 283 1013 283 1044 l 283 364 q 323 231 283 289 q 433 141 363 174 q 593 108 503 108 q 748 141 681 108 q 853 231 815 174 q 892 364 892 289 l 892 1013 q 913 1065 892 1044 q 964 1085 933 1085 q 1015 1065 996 1085 q 1035 1013 1035 1044 l 1035 364 q 978 164 1035 251 q 822 27 922 76 q 593 -22 722 -22 m 964 960 l 964 1085 l 1031 1085 q 1074 1110 1056 1085 q 1092 1178 1092 1136 l 1092 1204 q 1109 1255 1092 1236 q 1154 1274 1126 1274 q 1201 1251 1185 1274 q 1217 1194 1217 1228 l 1217 1178 q 1192 1067 1217 1117 q 1126 988 1168 1017 q 1031 960 1085 960 l 964 960 m 593 1204 q 542 1224 563 1204 q 522 1275 522 1244 q 539 1322 522 1304 l 675 1458 q 725 1479 696 1479 q 776 1458 757 1479 q 796 1407 796 1438 q 792 1381 796 1393 q 776 1358 788 1368 l 642 1224 q 593 1204 622 1204 z "},"Ự":{"ha":1174,"x_min":139,"x_max":1217,"o":"m 593 -22 q 357 27 460 -22 q 197 164 254 76 q 139 364 139 251 l 139 1013 q 160 1065 139 1044 q 211 1085 181 1085 q 263 1065 243 1085 q 283 1013 283 1044 l 283 364 q 323 231 283 289 q 433 141 363 174 q 593 108 503 108 q 748 141 681 108 q 853 231 815 174 q 892 364 892 289 l 892 1013 q 913 1065 892 1044 q 964 1085 933 1085 q 1015 1065 996 1085 q 1035 1013 1035 1044 l 1035 364 q 978 164 1035 251 q 822 27 922 76 q 593 -22 722 -22 m 964 960 l 964 1085 l 1031 1085 q 1074 1110 1056 1085 q 1092 1178 1092 1136 l 1092 1204 q 1109 1255 1092 1236 q 1154 1274 1126 1274 q 1201 1251 1185 1274 q 1217 1194 1217 1228 l 1217 1178 q 1192 1067 1217 1117 q 1126 988 1168 1017 q 1031 960 1085 960 l 964 960 m 588 -311 q 523 -284 550 -311 q 496 -219 496 -257 q 523 -155 496 -182 q 588 -128 550 -128 q 652 -155 625 -128 q 679 -219 679 -182 q 652 -284 679 -257 q 588 -311 625 -311 z "},"Ừ":{"ha":1174,"x_min":139,"x_max":1217,"o":"m 593 -22 q 357 27 460 -22 q 197 164 254 76 q 139 364 139 251 l 139 1013 q 160 1065 139 1044 q 211 1085 181 1085 q 263 1065 243 1085 q 283 1013 283 1044 l 283 364 q 323 231 283 289 q 433 141 363 174 q 593 108 503 108 q 748 141 681 108 q 853 231 815 174 q 892 364 892 289 l 892 1013 q 913 1065 892 1044 q 964 1085 933 1085 q 1015 1065 996 1085 q 1035 1013 1035 1044 l 1035 364 q 978 164 1035 251 q 822 27 922 76 q 593 -22 722 -22 m 964 960 l 964 1085 l 1031 1085 q 1074 1110 1056 1085 q 1092 1178 1092 1136 l 1092 1204 q 1109 1255 1092 1236 q 1154 1274 1126 1274 q 1201 1251 1185 1274 q 1217 1194 1217 1228 l 1217 1178 q 1192 1067 1217 1117 q 1126 988 1168 1017 q 1031 960 1085 960 l 964 960 m 583 1204 q 535 1224 553 1204 l 399 1358 q 381 1407 381 1376 q 400 1458 381 1438 q 450 1479 419 1479 q 501 1458 479 1479 l 636 1322 q 654 1275 654 1304 q 634 1224 654 1244 q 583 1204 614 1204 z "},"Ử":{"ha":1174,"x_min":139,"x_max":1217,"o":"m 593 -22 q 357 27 460 -22 q 197 164 254 76 q 139 364 139 251 l 139 1013 q 160 1065 139 1044 q 211 1085 181 1085 q 263 1065 243 1085 q 283 1013 283 1044 l 283 364 q 323 231 283 289 q 433 141 363 174 q 593 108 503 108 q 748 141 681 108 q 853 231 815 174 q 892 364 892 289 l 892 1013 q 913 1065 892 1044 q 964 1085 933 1085 q 1015 1065 996 1085 q 1035 1013 1035 1044 l 1035 364 q 978 164 1035 251 q 822 27 922 76 q 593 -22 722 -22 m 964 960 l 964 1085 l 1031 1085 q 1074 1110 1056 1085 q 1092 1178 1092 1136 l 1092 1204 q 1109 1255 1092 1236 q 1154 1274 1126 1274 q 1201 1251 1185 1274 q 1217 1194 1217 1228 l 1217 1178 q 1192 1067 1217 1117 q 1126 988 1168 1017 q 1031 960 1085 960 l 964 960 m 588 1160 q 543 1178 561 1160 q 525 1222 525 1196 l 525 1253 q 581 1321 525 1308 l 617 1329 q 657 1349 640 1335 q 674 1385 674 1363 q 657 1425 674 1413 q 614 1438 640 1438 q 577 1431 594 1438 q 549 1415 560 1424 q 527 1404 540 1408 q 503 1400 514 1400 q 467 1412 482 1400 q 451 1449 451 1424 q 474 1497 451 1479 q 535 1531 501 1519 q 611 1543 568 1543 q 733 1499 686 1543 q 781 1389 781 1454 q 735 1288 782 1319 q 624 1247 689 1256 l 650 1250 q 632 1181 650 1203 q 588 1160 614 1160 z "},"Ữ":{"ha":1174,"x_min":139,"x_max":1217,"o":"m 593 -22 q 357 27 460 -22 q 197 164 254 76 q 139 364 139 251 l 139 1013 q 160 1065 139 1044 q 211 1085 181 1085 q 263 1065 243 1085 q 283 1013 283 1044 l 283 364 q 323 231 283 289 q 433 141 363 174 q 593 108 503 108 q 748 141 681 108 q 853 231 815 174 q 892 364 892 289 l 892 1013 q 913 1065 892 1044 q 964 1085 933 1085 q 1015 1065 996 1085 q 1035 1013 1035 1044 l 1035 364 q 978 164 1035 251 q 822 27 922 76 q 593 -22 722 -22 m 964 960 l 964 1085 l 1031 1085 q 1074 1110 1056 1085 q 1092 1178 1092 1136 l 1092 1204 q 1109 1255 1092 1236 q 1154 1274 1126 1274 q 1201 1251 1185 1274 q 1217 1194 1217 1228 l 1217 1178 q 1192 1067 1217 1117 q 1126 988 1168 1017 q 1031 960 1085 960 l 964 960 m 736 1189 q 654 1203 689 1189 q 594 1232 619 1218 q 542 1256 564 1249 q 503 1264 519 1264 q 468 1257 483 1264 q 436 1226 453 1250 q 396 1194 419 1204 q 346 1196 372 1183 q 322 1232 326 1206 q 333 1281 318 1258 q 412 1351 365 1328 q 513 1375 458 1375 q 591 1360 557 1375 q 649 1333 625 1346 q 697 1308 681 1315 q 732 1301 714 1301 q 764 1308 750 1301 q 788 1325 778 1315 q 825 1352 807 1344 q 869 1344 843 1360 q 892 1304 890 1332 q 876 1254 894 1276 q 736 1189 824 1189 z "},"Ű":{"ha":1174,"x_min":139,"x_max":1035,"o":"m 593 -22 q 357 27 460 -22 q 197 164 254 76 q 139 364 139 251 l 139 1013 q 160 1065 139 1044 q 211 1085 181 1085 q 263 1065 243 1085 q 283 1013 283 1044 l 283 364 q 323 231 283 289 q 433 141 363 174 q 593 108 503 108 q 748 141 681 108 q 853 231 815 174 q 892 364 892 289 l 892 1013 q 913 1065 892 1044 q 964 1085 933 1085 q 1015 1065 996 1085 q 1035 1013 1035 1044 l 1035 364 q 978 164 1035 251 q 822 27 922 76 q 593 -22 722 -22 m 688 1182 q 649 1197 668 1182 q 631 1240 631 1213 q 631 1251 631 1244 q 633 1263 632 1257 l 688 1435 q 712 1467 693 1454 q 753 1479 731 1479 q 804 1458 783 1479 q 825 1408 825 1436 q 823 1396 824 1403 q 818 1382 822 1389 l 742 1218 q 688 1182 722 1182 m 489 1182 q 450 1197 469 1182 q 431 1240 431 1213 q 432 1251 431 1244 q 435 1263 433 1257 l 488 1435 q 512 1467 493 1454 q 553 1479 531 1479 q 605 1458 585 1479 q 625 1408 625 1436 q 619 1382 625 1394 l 542 1218 q 489 1182 525 1182 z "},"Ȗ":{"ha":1174,"x_min":139,"x_max":1035,"o":"m 593 -22 q 357 27 460 -22 q 197 164 254 76 q 139 364 139 251 l 139 1013 q 160 1065 139 1044 q 211 1085 181 1085 q 263 1065 243 1085 q 283 1013 283 1044 l 283 364 q 323 231 283 289 q 433 141 363 174 q 593 108 503 108 q 748 141 681 108 q 853 231 815 174 q 892 364 892 289 l 892 1013 q 913 1065 892 1044 q 964 1085 933 1085 q 1015 1065 996 1085 q 1035 1013 1035 1044 l 1035 364 q 978 164 1035 251 q 822 27 922 76 q 593 -22 722 -22 m 428 1165 q 379 1185 397 1165 q 361 1236 361 1206 q 392 1325 361 1286 q 474 1387 422 1364 q 588 1410 525 1410 q 701 1387 650 1410 q 782 1325 751 1364 q 813 1236 813 1286 q 795 1185 813 1206 q 747 1165 778 1165 q 700 1181 721 1165 q 679 1222 679 1196 q 655 1275 679 1254 q 588 1296 631 1296 q 524 1275 554 1296 q 494 1222 494 1254 q 474 1181 494 1196 q 428 1165 453 1165 z "},"Ū":{"ha":1174,"x_min":139,"x_max":1035,"o":"m 593 -22 q 357 27 460 -22 q 197 164 254 76 q 139 364 139 251 l 139 1013 q 160 1065 139 1044 q 211 1085 181 1085 q 263 1065 243 1085 q 283 1013 283 1044 l 283 364 q 323 231 283 289 q 433 141 363 174 q 593 108 503 108 q 748 141 681 108 q 853 231 815 174 q 892 364 892 289 l 892 1013 q 913 1065 892 1044 q 964 1085 933 1085 q 1015 1065 996 1085 q 1035 1013 1035 1044 l 1035 364 q 978 164 1035 251 q 822 27 922 76 q 593 -22 722 -22 m 413 1224 q 362 1240 382 1224 q 342 1288 342 1257 q 362 1333 342 1318 q 413 1349 382 1349 l 760 1349 q 811 1333 790 1349 q 832 1288 832 1318 q 811 1240 832 1257 q 760 1224 790 1224 l 413 1224 z "},"Ų":{"ha":1174,"x_min":139,"x_max":1035,"o":"m 593 -22 q 357 27 460 -22 q 197 164 254 76 q 139 364 139 251 l 139 1013 q 160 1065 139 1044 q 211 1085 181 1085 q 263 1065 243 1085 q 283 1013 283 1044 l 283 364 q 323 231 283 289 q 433 141 363 174 q 593 108 503 108 q 748 141 681 108 q 853 231 815 174 q 892 364 892 289 l 892 1013 q 913 1065 892 1044 q 964 1085 933 1085 q 1015 1065 996 1085 q 1035 1013 1035 1044 l 1035 364 q 978 164 1035 251 q 822 27 922 76 q 593 -22 722 -22 m 722 -300 q 636 -276 675 -300 q 573 -213 597 -253 q 549 -126 549 -174 q 621 15 549 -44 q 645 38 636 26 q 660 60 654 50 q 722 97 679 97 q 772 78 751 97 q 793 28 792 58 q 771 -35 793 -4 q 704 -99 749 -67 q 694 -112 697 -104 q 690 -126 690 -119 q 699 -149 690 -140 q 722 -158 708 -158 q 732 -157 728 -158 q 739 -153 736 -156 l 782 -121 q 825 -107 803 -107 q 876 -127 857 -107 q 896 -178 896 -147 q 871 -235 896 -211 l 818 -269 q 722 -300 775 -300 z "},"Ů":{"ha":1174,"x_min":139,"x_max":1035,"o":"m 593 -22 q 357 27 460 -22 q 197 164 254 76 q 139 364 139 251 l 139 1013 q 160 1065 139 1044 q 211 1085 181 1085 q 263 1065 243 1085 q 283 1013 283 1044 l 283 364 q 323 231 283 289 q 433 141 363 174 q 593 108 503 108 q 748 141 681 108 q 853 231 815 174 q 892 364 892 289 l 892 1013 q 913 1065 892 1044 q 964 1085 933 1085 q 1015 1065 996 1085 q 1035 1013 1035 1044 l 1035 364 q 978 164 1035 251 q 822 27 922 76 q 593 -22 722 -22 m 588 1139 q 481 1181 522 1139 q 439 1288 439 1222 q 481 1395 439 1353 q 588 1438 522 1438 q 694 1395 653 1438 q 736 1288 736 1353 q 694 1181 736 1222 q 588 1139 653 1139 m 588 1217 q 639 1237 619 1217 q 658 1288 658 1257 q 639 1340 658 1319 q 588 1360 619 1360 q 536 1340 557 1360 q 515 1288 515 1319 q 536 1237 515 1257 q 588 1217 557 1217 z "},"Ũ":{"ha":1174,"x_min":139,"x_max":1035,"o":"m 593 -22 q 357 27 460 -22 q 197 164 254 76 q 139 364 139 251 l 139 1013 q 160 1065 139 1044 q 211 1085 181 1085 q 263 1065 243 1085 q 283 1013 283 1044 l 283 364 q 323 231 283 289 q 433 141 363 174 q 593 108 503 108 q 748 141 681 108 q 853 231 815 174 q 892 364 892 289 l 892 1013 q 913 1065 892 1044 q 964 1085 933 1085 q 1015 1065 996 1085 q 1035 1013 1035 1044 l 1035 364 q 978 164 1035 251 q 822 27 922 76 q 593 -22 722 -22 m 736 1189 q 654 1203 689 1189 q 594 1232 619 1218 q 542 1256 564 1249 q 503 1264 519 1264 q 468 1257 483 1264 q 436 1226 453 1250 q 396 1194 419 1204 q 346 1196 372 1183 q 322 1232 326 1206 q 333 1281 318 1258 q 412 1351 365 1328 q 513 1375 458 1375 q 591 1360 557 1375 q 649 1333 625 1346 q 697 1308 681 1315 q 732 1301 714 1301 q 764 1308 750 1301 q 788 1325 778 1315 q 825 1352 807 1344 q 869 1344 843 1360 q 892 1304 890 1332 q 876 1254 894 1276 q 736 1189 824 1189 z "},"V":{"ha":1024,"x_min":19,"x_max":1004,"o":"m 511 0 q 446 46 467 0 l 39 976 q 35 1054 19 1024 q 93 1085 50 1085 q 160 1042 142 1085 l 517 185 l 501 185 l 865 1042 q 891 1076 876 1067 q 931 1085 906 1085 q 988 1055 972 1085 q 988 989 1004 1025 l 576 46 q 551 12 567 24 q 511 0 535 0 z "},"W":{"ha":1303,"x_min":4,"x_max":1293,"o":"m 369 0 q 325 15 344 0 q 297 57 306 31 l 18 985 q 20 1058 4 1031 q 72 1085 36 1085 q 115 1072 96 1085 q 143 1031 135 1058 l 386 183 l 356 183 l 581 1022 q 606 1057 586 1043 q 650 1071 625 1071 q 692 1059 672 1071 q 718 1024 713 1047 l 944 183 l 917 183 l 1161 1038 q 1232 1085 1175 1085 q 1282 1055 1271 1085 q 1282 985 1293 1025 l 1003 58 q 974 16 993 32 q 931 0 956 0 q 885 17 904 0 q 858 57 867 33 l 635 921 l 668 921 l 442 58 q 413 16 432 32 q 369 0 394 0 z "},"Ẃ":{"ha":1303,"x_min":4,"x_max":1293,"o":"m 369 0 q 325 15 344 0 q 297 57 306 31 l 18 985 q 20 1058 4 1031 q 72 1085 36 1085 q 115 1072 96 1085 q 143 1031 135 1058 l 386 183 l 356 183 l 581 1022 q 606 1057 586 1043 q 650 1071 625 1071 q 692 1059 672 1071 q 718 1024 713 1047 l 944 183 l 917 183 l 1161 1038 q 1232 1085 1175 1085 q 1282 1055 1271 1085 q 1282 985 1293 1025 l 1003 58 q 974 16 993 32 q 931 0 956 0 q 885 17 904 0 q 858 57 867 33 l 635 921 l 668 921 l 442 58 q 413 16 432 32 q 369 0 394 0 m 657 1204 q 606 1224 626 1204 q 586 1275 586 1244 q 603 1322 586 1304 l 739 1458 q 789 1479 760 1479 q 840 1458 821 1479 q 860 1407 860 1438 q 856 1381 860 1393 q 840 1358 851 1368 l 706 1224 q 657 1204 686 1204 z "},"Ŵ":{"ha":1303,"x_min":4,"x_max":1293,"o":"m 369 0 q 325 15 344 0 q 297 57 306 31 l 18 985 q 20 1058 4 1031 q 72 1085 36 1085 q 115 1072 96 1085 q 143 1031 135 1058 l 386 183 l 356 183 l 581 1022 q 606 1057 586 1043 q 650 1071 625 1071 q 692 1059 672 1071 q 718 1024 713 1047 l 944 183 l 917 183 l 1161 1038 q 1232 1085 1175 1085 q 1282 1055 1271 1085 q 1282 985 1293 1025 l 1003 58 q 974 16 993 32 q 931 0 956 0 q 885 17 904 0 q 858 57 867 33 l 635 921 l 668 921 l 442 58 q 413 16 432 32 q 369 0 394 0 m 497 1179 q 447 1195 467 1179 q 426 1236 426 1211 q 460 1297 426 1272 l 615 1399 q 651 1410 633 1410 q 671 1408 663 1410 q 689 1399 679 1406 l 843 1297 q 876 1236 876 1272 q 857 1195 876 1211 q 807 1179 838 1179 q 783 1183 793 1179 q 761 1194 772 1186 l 651 1272 l 542 1194 q 497 1179 522 1179 z "},"Ẅ":{"ha":1303,"x_min":4,"x_max":1293,"o":"m 369 0 q 325 15 344 0 q 297 57 306 31 l 18 985 q 20 1058 4 1031 q 72 1085 36 1085 q 115 1072 96 1085 q 143 1031 135 1058 l 386 183 l 356 183 l 581 1022 q 606 1057 586 1043 q 650 1071 625 1071 q 692 1059 672 1071 q 718 1024 713 1047 l 944 183 l 917 183 l 1161 1038 q 1232 1085 1175 1085 q 1282 1055 1271 1085 q 1282 985 1293 1025 l 1003 58 q 974 16 993 32 q 931 0 956 0 q 885 17 904 0 q 858 57 867 33 l 635 921 l 668 921 l 442 58 q 413 16 432 32 q 369 0 394 0 m 497 1201 q 438 1226 463 1201 q 413 1285 413 1250 q 438 1343 413 1318 q 497 1368 463 1368 q 556 1343 531 1368 q 581 1285 581 1318 q 556 1226 581 1250 q 497 1201 531 1201 m 806 1201 q 747 1226 771 1201 q 722 1285 722 1250 q 747 1343 722 1318 q 806 1368 771 1368 q 864 1343 839 1368 q 889 1285 889 1318 q 864 1226 889 1250 q 806 1201 839 1201 z "},"Ẁ":{"ha":1303,"x_min":4,"x_max":1293,"o":"m 369 0 q 325 15 344 0 q 297 57 306 31 l 18 985 q 20 1058 4 1031 q 72 1085 36 1085 q 115 1072 96 1085 q 143 1031 135 1058 l 386 183 l 356 183 l 581 1022 q 606 1057 586 1043 q 650 1071 625 1071 q 692 1059 672 1071 q 718 1024 713 1047 l 944 183 l 917 183 l 1161 1038 q 1232 1085 1175 1085 q 1282 1055 1271 1085 q 1282 985 1293 1025 l 1003 58 q 974 16 993 32 q 931 0 956 0 q 885 17 904 0 q 858 57 867 33 l 635 921 l 668 921 l 442 58 q 413 16 432 32 q 369 0 394 0 m 647 1204 q 599 1224 617 1204 l 463 1358 q 444 1407 444 1376 q 464 1458 444 1438 q 514 1479 483 1479 q 565 1458 543 1479 l 700 1322 q 718 1275 718 1304 q 698 1224 718 1244 q 647 1204 678 1204 z "},"X":{"ha":994,"x_min":69,"x_max":935,"o":"m 135 0 q 86 20 103 0 q 69 67 69 40 q 86 117 69 94 l 436 583 l 499 639 l 818 1064 q 869 1085 838 1085 q 915 1067 899 1085 q 933 1022 932 1049 q 918 971 935 996 l 581 521 l 521 468 l 185 21 q 135 0 164 0 m 861 0 q 830 6 843 0 q 806 26 817 13 l 482 475 l 431 518 l 104 971 q 90 1019 88 993 q 110 1065 93 1046 q 157 1085 128 1085 q 208 1064 193 1085 l 517 636 l 569 593 l 913 117 q 928 67 929 94 q 909 19 926 39 q 861 0 892 0 z "},"Y":{"ha":931,"x_min":4,"x_max":926,"o":"m 464 0 q 414 21 435 0 q 393 72 393 42 l 393 396 l 22 972 q 8 1027 4 1001 q 33 1069 13 1053 q 79 1085 53 1085 q 117 1074 103 1085 q 143 1044 131 1064 l 496 485 l 440 485 l 799 1050 q 825 1076 810 1067 q 863 1085 840 1085 q 904 1067 888 1085 q 924 1024 921 1050 q 910 972 926 999 l 536 396 l 536 72 q 515 21 536 42 q 464 0 494 0 z "},"Ý":{"ha":931,"x_min":4,"x_max":926,"o":"m 464 0 q 414 21 435 0 q 393 72 393 42 l 393 396 l 22 972 q 8 1027 4 1001 q 33 1069 13 1053 q 79 1085 53 1085 q 117 1074 103 1085 q 143 1044 131 1064 l 496 485 l 440 485 l 799 1050 q 825 1076 810 1067 q 863 1085 840 1085 q 904 1067 888 1085 q 924 1024 921 1050 q 910 972 926 999 l 536 396 l 536 72 q 515 21 536 42 q 464 0 494 0 m 471 1204 q 420 1224 440 1204 q 400 1275 400 1244 q 417 1322 400 1304 l 553 1458 q 603 1479 574 1479 q 654 1458 635 1479 q 674 1407 674 1438 q 669 1381 674 1393 q 654 1358 665 1368 l 519 1224 q 471 1204 500 1204 z "},"Ŷ":{"ha":931,"x_min":4,"x_max":926,"o":"m 464 0 q 414 21 435 0 q 393 72 393 42 l 393 396 l 22 972 q 8 1027 4 1001 q 33 1069 13 1053 q 79 1085 53 1085 q 117 1074 103 1085 q 143 1044 131 1064 l 496 485 l 440 485 l 799 1050 q 825 1076 810 1067 q 863 1085 840 1085 q 904 1067 888 1085 q 924 1024 921 1050 q 910 972 926 999 l 536 396 l 536 72 q 515 21 536 42 q 464 0 494 0 m 311 1179 q 260 1195 281 1179 q 240 1236 240 1211 q 274 1297 240 1272 l 429 1399 q 465 1410 447 1410 q 485 1408 476 1410 q 503 1399 493 1406 l 657 1297 q 690 1236 690 1272 q 671 1195 690 1211 q 621 1179 651 1179 q 597 1183 607 1179 q 575 1194 586 1186 l 465 1272 l 356 1194 q 311 1179 336 1179 z "},"Ÿ":{"ha":931,"x_min":4,"x_max":926,"o":"m 464 0 q 414 21 435 0 q 393 72 393 42 l 393 396 l 22 972 q 8 1027 4 1001 q 33 1069 13 1053 q 79 1085 53 1085 q 117 1074 103 1085 q 143 1044 131 1064 l 496 485 l 440 485 l 799 1050 q 825 1076 810 1067 q 863 1085 840 1085 q 904 1067 888 1085 q 924 1024 921 1050 q 910 972 926 999 l 536 396 l 536 72 q 515 21 536 42 q 464 0 494 0 m 311 1201 q 251 1226 276 1201 q 226 1285 226 1250 q 251 1343 226 1318 q 311 1368 276 1368 q 369 1343 344 1368 q 394 1285 394 1318 q 369 1226 394 1250 q 311 1201 344 1201 m 619 1201 q 560 1226 585 1201 q 536 1285 536 1250 q 560 1343 536 1318 q 619 1368 585 1368 q 678 1343 653 1368 q 703 1285 703 1318 q 678 1226 703 1250 q 619 1201 653 1201 z "},"Ỵ":{"ha":931,"x_min":4,"x_max":926,"o":"m 464 0 q 414 21 435 0 q 393 72 393 42 l 393 396 l 22 972 q 8 1027 4 1001 q 33 1069 13 1053 q 79 1085 53 1085 q 117 1074 103 1085 q 143 1044 131 1064 l 496 485 l 440 485 l 799 1050 q 825 1076 810 1067 q 863 1085 840 1085 q 904 1067 888 1085 q 924 1024 921 1050 q 910 972 926 999 l 536 396 l 536 72 q 515 21 536 42 q 464 0 494 0 m 465 -311 q 401 -284 428 -311 q 374 -219 374 -257 q 401 -155 374 -182 q 465 -128 428 -128 q 530 -155 503 -128 q 557 -219 557 -182 q 530 -284 557 -257 q 465 -311 503 -311 z "},"Ỳ":{"ha":931,"x_min":4,"x_max":926,"o":"m 464 0 q 414 21 435 0 q 393 72 393 42 l 393 396 l 22 972 q 8 1027 4 1001 q 33 1069 13 1053 q 79 1085 53 1085 q 117 1074 103 1085 q 143 1044 131 1064 l 496 485 l 440 485 l 799 1050 q 825 1076 810 1067 q 863 1085 840 1085 q 904 1067 888 1085 q 924 1024 921 1050 q 910 972 926 999 l 536 396 l 536 72 q 515 21 536 42 q 464 0 494 0 m 461 1204 q 413 1224 431 1204 l 276 1358 q 258 1407 258 1376 q 278 1458 258 1438 q 328 1479 297 1479 q 379 1458 357 1479 l 514 1322 q 532 1275 532 1304 q 512 1224 532 1244 q 461 1204 492 1204 z "},"Ỷ":{"ha":931,"x_min":4,"x_max":926,"o":"m 464 0 q 414 21 435 0 q 393 72 393 42 l 393 396 l 22 972 q 8 1027 4 1001 q 33 1069 13 1053 q 79 1085 53 1085 q 117 1074 103 1085 q 143 1044 131 1064 l 496 485 l 440 485 l 799 1050 q 825 1076 810 1067 q 863 1085 840 1085 q 904 1067 888 1085 q 924 1024 921 1050 q 910 972 926 999 l 536 396 l 536 72 q 515 21 536 42 q 464 0 494 0 m 465 1160 q 421 1178 439 1160 q 403 1222 403 1196 l 403 1253 q 458 1321 403 1308 l 494 1329 q 535 1349 518 1335 q 551 1385 551 1363 q 535 1425 551 1413 q 492 1438 518 1438 q 455 1431 472 1438 q 426 1415 438 1424 q 405 1404 418 1408 q 381 1400 392 1400 q 344 1412 360 1400 q 329 1449 329 1424 q 351 1497 329 1479 q 413 1531 379 1519 q 489 1543 446 1543 q 611 1499 564 1543 q 658 1389 658 1454 q 613 1288 660 1319 q 501 1247 567 1256 l 528 1250 q 510 1181 528 1203 q 465 1160 492 1160 z "},"Ȳ":{"ha":931,"x_min":4,"x_max":926,"o":"m 464 0 q 414 21 435 0 q 393 72 393 42 l 393 396 l 22 972 q 8 1027 4 1001 q 33 1069 13 1053 q 79 1085 53 1085 q 117 1074 103 1085 q 143 1044 131 1064 l 496 485 l 440 485 l 799 1050 q 825 1076 810 1067 q 863 1085 840 1085 q 904 1067 888 1085 q 924 1024 921 1050 q 910 972 926 999 l 536 396 l 536 72 q 515 21 536 42 q 464 0 494 0 m 290 1224 q 240 1240 260 1224 q 219 1288 219 1257 q 240 1333 219 1318 q 290 1349 260 1349 l 638 1349 q 689 1333 668 1349 q 710 1288 710 1318 q 689 1240 710 1257 q 638 1224 668 1224 l 290 1224 z "},"Ỹ":{"ha":931,"x_min":4,"x_max":926,"o":"m 464 0 q 414 21 435 0 q 393 72 393 42 l 393 396 l 22 972 q 8 1027 4 1001 q 33 1069 13 1053 q 79 1085 53 1085 q 117 1074 103 1085 q 143 1044 131 1064 l 496 485 l 440 485 l 799 1050 q 825 1076 810 1067 q 863 1085 840 1085 q 904 1067 888 1085 q 924 1024 921 1050 q 910 972 926 999 l 536 396 l 536 72 q 515 21 536 42 q 464 0 494 0 m 614 1189 q 532 1203 567 1189 q 472 1232 497 1218 q 419 1256 442 1249 q 381 1264 397 1264 q 346 1257 361 1264 q 314 1226 331 1250 q 274 1194 297 1204 q 224 1196 250 1183 q 200 1232 204 1206 q 211 1281 196 1258 q 290 1351 243 1328 q 390 1375 336 1375 q 469 1360 435 1375 q 526 1333 503 1346 q 575 1308 558 1315 q 610 1301 592 1301 q 642 1308 628 1301 q 665 1325 656 1315 q 703 1352 685 1344 q 747 1344 721 1360 q 770 1304 768 1332 q 754 1254 772 1276 q 614 1189 701 1189 z "},"Z":{"ha":1031,"x_min":74,"x_max":957,"o":"m 147 0 q 97 21 115 0 q 76 69 78 42 q 90 117 74 96 l 769 957 l 161 957 q 109 974 126 957 q 93 1018 92 992 q 113 1066 92 1047 q 164 1085 133 1085 l 881 1085 q 932 1065 913 1085 q 954 1019 951 1046 q 939 971 957 992 l 257 128 l 881 128 q 932 109 913 128 q 951 65 951 90 q 932 17 951 35 q 881 0 913 0 l 147 0 z "},"Ź":{"ha":1031,"x_min":74,"x_max":957,"o":"m 147 0 q 97 21 115 0 q 76 69 78 42 q 90 117 74 96 l 769 957 l 161 957 q 109 974 126 957 q 93 1018 92 992 q 113 1066 92 1047 q 164 1085 133 1085 l 881 1085 q 932 1065 913 1085 q 954 1019 951 1046 q 939 971 957 992 l 257 128 l 881 128 q 932 109 913 128 q 951 65 951 90 q 932 17 951 35 q 881 0 913 0 l 147 0 m 521 1204 q 470 1224 490 1204 q 450 1275 450 1244 q 467 1322 450 1304 l 603 1458 q 653 1479 624 1479 q 704 1458 685 1479 q 724 1407 724 1438 q 719 1381 724 1393 q 704 1358 715 1368 l 569 1224 q 521 1204 550 1204 z "},"Ž":{"ha":1031,"x_min":74,"x_max":957,"o":"m 147 0 q 97 21 115 0 q 76 69 78 42 q 90 117 74 96 l 769 957 l 161 957 q 109 974 126 957 q 93 1018 92 992 q 113 1066 92 1047 q 164 1085 133 1085 l 881 1085 q 932 1065 913 1085 q 954 1019 951 1046 q 939 971 957 992 l 257 128 l 881 128 q 932 109 913 128 q 951 65 951 90 q 932 17 951 35 q 881 0 913 0 l 147 0 m 515 1193 q 479 1204 494 1193 l 324 1307 q 290 1367 290 1332 q 324 1408 290 1394 q 406 1388 358 1421 l 515 1314 l 625 1388 q 709 1409 678 1424 q 740 1367 740 1394 q 707 1307 740 1332 l 553 1204 q 515 1193 536 1193 z "},"Ż":{"ha":1031,"x_min":74,"x_max":957,"o":"m 147 0 q 97 21 115 0 q 76 69 78 42 q 90 117 74 96 l 769 957 l 161 957 q 109 974 126 957 q 93 1018 92 992 q 113 1066 92 1047 q 164 1085 133 1085 l 881 1085 q 932 1065 913 1085 q 954 1019 951 1046 q 939 971 957 992 l 257 128 l 881 128 q 932 109 913 128 q 951 65 951 90 q 932 17 951 35 q 881 0 913 0 l 147 0 m 515 1208 q 451 1235 478 1208 q 424 1300 424 1263 q 451 1365 424 1338 q 515 1392 478 1392 q 580 1365 553 1392 q 607 1300 607 1338 q 580 1235 607 1263 q 515 1208 553 1208 z "},"a":{"ha":938,"x_min":86,"x_max":851,"o":"m 442 -6 q 260 45 340 -6 q 133 183 179 96 q 86 379 86 269 q 137 576 86 489 q 274 715 188 664 q 469 765 361 765 q 664 715 578 765 q 801 576 750 664 q 851 379 851 489 l 797 379 q 751 183 797 269 q 624 45 704 96 q 442 -6 543 -6 m 469 119 q 596 153 540 119 q 683 247 651 188 q 715 379 715 306 q 683 513 715 454 q 596 606 651 572 q 469 640 540 640 q 344 606 400 640 q 255 513 288 572 q 222 379 222 454 q 255 247 222 306 q 344 153 288 188 q 469 119 400 119 m 781 -1 q 730 19 750 -1 q 710 69 710 39 l 710 282 l 736 429 l 851 379 l 851 69 q 831 19 851 39 q 781 -1 811 -1 z "},"á":{"ha":938,"x_min":86,"x_max":851,"o":"m 442 -6 q 260 45 340 -6 q 133 183 179 96 q 86 379 86 269 q 137 576 86 489 q 274 715 188 664 q 469 765 361 765 q 664 715 578 765 q 801 576 750 664 q 851 379 851 489 l 797 379 q 751 183 797 269 q 624 45 704 96 q 442 -6 543 -6 m 469 119 q 596 153 540 119 q 683 247 651 188 q 715 379 715 306 q 683 513 715 454 q 596 606 651 572 q 469 640 540 640 q 344 606 400 640 q 255 513 288 572 q 222 379 222 454 q 255 247 222 306 q 344 153 288 188 q 469 119 400 119 m 781 -1 q 730 19 750 -1 q 710 69 710 39 l 710 282 l 736 429 l 851 379 l 851 69 q 831 19 851 39 q 781 -1 811 -1 m 475 879 q 424 899 444 879 q 404 950 404 919 q 421 997 404 979 l 557 1133 q 607 1154 578 1154 q 658 1133 639 1154 q 678 1082 678 1113 q 674 1056 678 1068 q 658 1033 669 1043 l 524 899 q 475 879 504 879 z "},"ă":{"ha":938,"x_min":86,"x_max":851,"o":"m 442 -6 q 260 45 340 -6 q 133 183 179 96 q 86 379 86 269 q 137 576 86 489 q 274 715 188 664 q 469 765 361 765 q 664 715 578 765 q 801 576 750 664 q 851 379 851 489 l 797 379 q 751 183 797 269 q 624 45 704 96 q 442 -6 543 -6 m 469 119 q 596 153 540 119 q 683 247 651 188 q 715 379 715 306 q 683 513 715 454 q 596 606 651 572 q 469 640 540 640 q 344 606 400 640 q 255 513 288 572 q 222 379 222 454 q 255 247 222 306 q 344 153 288 188 q 469 119 400 119 m 781 -1 q 730 19 750 -1 q 710 69 710 39 l 710 282 l 736 429 l 851 379 l 851 69 q 831 19 851 39 q 781 -1 811 -1 m 469 840 q 356 863 407 840 q 274 926 304 886 q 243 1014 243 965 q 261 1065 243 1044 q 310 1085 279 1085 q 356 1069 335 1085 q 376 1028 376 1054 q 406 975 376 996 q 469 954 436 954 q 537 975 513 954 q 561 1028 561 996 q 582 1069 561 1054 q 629 1085 603 1085 q 677 1065 660 1085 q 694 1014 694 1044 q 664 926 694 965 q 583 863 633 886 q 469 840 532 840 z "},"ắ":{"ha":938,"x_min":86,"x_max":851,"o":"m 442 -6 q 260 45 340 -6 q 133 183 179 96 q 86 379 86 269 q 137 576 86 489 q 274 715 188 664 q 469 765 361 765 q 664 715 578 765 q 801 576 750 664 q 851 379 851 489 l 797 379 q 751 183 797 269 q 624 45 704 96 q 442 -6 543 -6 m 469 119 q 596 153 540 119 q 683 247 651 188 q 715 379 715 306 q 683 513 715 454 q 596 606 651 572 q 469 640 540 640 q 344 606 400 640 q 255 513 288 572 q 222 379 222 454 q 255 247 222 306 q 344 153 288 188 q 469 119 400 119 m 781 -1 q 730 19 750 -1 q 710 69 710 39 l 710 282 l 736 429 l 851 379 l 851 69 q 831 19 851 39 q 781 -1 811 -1 m 469 840 q 356 863 407 840 q 274 926 304 886 q 243 1014 243 965 q 261 1065 243 1044 q 310 1085 279 1085 q 356 1069 335 1085 q 376 1028 376 1054 q 406 975 376 996 q 469 954 436 954 q 537 975 513 954 q 561 1028 561 996 q 582 1069 561 1054 q 629 1085 603 1085 q 677 1065 660 1085 q 694 1014 694 1044 q 664 926 694 965 q 583 863 633 886 q 469 840 532 840 m 475 1121 q 424 1141 444 1121 q 404 1192 404 1161 q 421 1239 404 1221 l 557 1375 q 607 1396 578 1396 q 658 1375 639 1396 q 678 1324 678 1354 q 674 1297 678 1310 q 658 1275 669 1285 l 524 1140 q 475 1121 504 1121 z "},"ặ":{"ha":938,"x_min":86,"x_max":851,"o":"m 442 -6 q 260 45 340 -6 q 133 183 179 96 q 86 379 86 269 q 137 576 86 489 q 274 715 188 664 q 469 765 361 765 q 664 715 578 765 q 801 576 750 664 q 851 379 851 489 l 797 379 q 751 183 797 269 q 624 45 704 96 q 442 -6 543 -6 m 469 119 q 596 153 540 119 q 683 247 651 188 q 715 379 715 306 q 683 513 715 454 q 596 606 651 572 q 469 640 540 640 q 344 606 400 640 q 255 513 288 572 q 222 379 222 454 q 255 247 222 306 q 344 153 288 188 q 469 119 400 119 m 781 -1 q 730 19 750 -1 q 710 69 710 39 l 710 282 l 736 429 l 851 379 l 851 69 q 831 19 851 39 q 781 -1 811 -1 m 469 840 q 356 863 407 840 q 274 926 304 886 q 243 1014 243 965 q 261 1065 243 1044 q 310 1085 279 1085 q 356 1069 335 1085 q 376 1028 376 1054 q 406 975 376 996 q 469 954 436 954 q 537 975 513 954 q 561 1028 561 996 q 582 1069 561 1054 q 629 1085 603 1085 q 677 1065 660 1085 q 694 1014 694 1044 q 664 926 694 965 q 583 863 633 886 q 469 840 532 840 m 469 -311 q 405 -284 432 -311 q 378 -219 378 -257 q 405 -155 378 -182 q 469 -128 432 -128 q 534 -155 507 -128 q 561 -219 561 -182 q 534 -284 561 -257 q 469 -311 507 -311 z "},"ằ":{"ha":938,"x_min":86,"x_max":851,"o":"m 442 -6 q 260 45 340 -6 q 133 183 179 96 q 86 379 86 269 q 137 576 86 489 q 274 715 188 664 q 469 765 361 765 q 664 715 578 765 q 801 576 750 664 q 851 379 851 489 l 797 379 q 751 183 797 269 q 624 45 704 96 q 442 -6 543 -6 m 469 119 q 596 153 540 119 q 683 247 651 188 q 715 379 715 306 q 683 513 715 454 q 596 606 651 572 q 469 640 540 640 q 344 606 400 640 q 255 513 288 572 q 222 379 222 454 q 255 247 222 306 q 344 153 288 188 q 469 119 400 119 m 781 -1 q 730 19 750 -1 q 710 69 710 39 l 710 282 l 736 429 l 851 379 l 851 69 q 831 19 851 39 q 781 -1 811 -1 m 469 840 q 356 863 407 840 q 274 926 304 886 q 243 1014 243 965 q 261 1065 243 1044 q 310 1085 279 1085 q 356 1069 335 1085 q 376 1028 376 1054 q 406 975 376 996 q 469 954 436 954 q 537 975 513 954 q 561 1028 561 996 q 582 1069 561 1054 q 629 1085 603 1085 q 677 1065 660 1085 q 694 1014 694 1044 q 664 926 694 965 q 583 863 633 886 q 469 840 532 840 m 465 1121 q 417 1140 435 1121 l 281 1275 q 263 1324 263 1293 q 282 1375 263 1354 q 332 1396 301 1396 q 383 1375 361 1396 l 518 1239 q 536 1192 536 1221 q 516 1141 536 1161 q 465 1121 496 1121 z "},"ẳ":{"ha":938,"x_min":86,"x_max":851,"o":"m 442 -6 q 260 45 340 -6 q 133 183 179 96 q 86 379 86 269 q 137 576 86 489 q 274 715 188 664 q 469 765 361 765 q 664 715 578 765 q 801 576 750 664 q 851 379 851 489 l 797 379 q 751 183 797 269 q 624 45 704 96 q 442 -6 543 -6 m 469 119 q 596 153 540 119 q 683 247 651 188 q 715 379 715 306 q 683 513 715 454 q 596 606 651 572 q 469 640 540 640 q 344 606 400 640 q 255 513 288 572 q 222 379 222 454 q 255 247 222 306 q 344 153 288 188 q 469 119 400 119 m 781 -1 q 730 19 750 -1 q 710 69 710 39 l 710 282 l 736 429 l 851 379 l 851 69 q 831 19 851 39 q 781 -1 811 -1 m 469 840 q 356 863 407 840 q 274 926 304 886 q 243 1014 243 965 q 261 1065 243 1044 q 310 1085 279 1085 q 356 1069 335 1085 q 376 1028 376 1054 q 406 975 376 996 q 469 954 436 954 q 537 975 513 954 q 561 1028 561 996 q 582 1069 561 1054 q 629 1085 603 1085 q 677 1065 660 1085 q 694 1014 694 1044 q 664 926 694 965 q 583 863 633 886 q 469 840 532 840 m 469 1076 q 425 1094 443 1076 q 407 1139 407 1113 l 407 1169 q 463 1238 407 1225 l 499 1246 q 539 1265 522 1251 q 556 1301 556 1279 q 539 1342 556 1329 q 496 1354 522 1354 q 459 1347 476 1354 q 431 1332 442 1340 q 409 1321 422 1325 q 385 1317 396 1317 q 349 1328 364 1317 q 333 1365 333 1340 q 356 1414 333 1396 q 417 1448 383 1436 q 493 1460 450 1460 q 615 1415 568 1460 q 663 1306 663 1371 q 617 1204 664 1236 q 506 1164 571 1172 l 532 1167 q 514 1098 532 1119 q 469 1076 496 1076 z "},"ẵ":{"ha":938,"x_min":86,"x_max":851,"o":"m 442 -6 q 260 45 340 -6 q 133 183 179 96 q 86 379 86 269 q 137 576 86 489 q 274 715 188 664 q 469 765 361 765 q 664 715 578 765 q 801 576 750 664 q 851 379 851 489 l 797 379 q 751 183 797 269 q 624 45 704 96 q 442 -6 543 -6 m 469 119 q 596 153 540 119 q 683 247 651 188 q 715 379 715 306 q 683 513 715 454 q 596 606 651 572 q 469 640 540 640 q 344 606 400 640 q 255 513 288 572 q 222 379 222 454 q 255 247 222 306 q 344 153 288 188 q 469 119 400 119 m 781 -1 q 730 19 750 -1 q 710 69 710 39 l 710 282 l 736 429 l 851 379 l 851 69 q 831 19 851 39 q 781 -1 811 -1 m 471 840 q 357 863 408 840 q 275 926 306 886 q 244 1014 244 965 q 263 1065 244 1044 q 311 1085 281 1085 q 357 1069 336 1085 q 378 1028 378 1054 q 408 975 378 996 q 471 954 438 954 q 538 975 514 954 q 563 1028 563 996 q 583 1069 563 1054 q 631 1085 604 1085 q 678 1065 661 1085 q 696 1014 696 1044 q 665 926 696 965 q 584 863 635 886 q 471 840 533 840 m 568 1114 q 503 1130 532 1114 q 447 1171 474 1146 q 419 1195 431 1186 q 394 1204 408 1204 q 371 1194 381 1204 q 350 1165 361 1183 q 315 1135 338 1144 q 269 1136 293 1126 q 237 1170 246 1147 q 242 1217 228 1193 q 306 1294 271 1269 q 383 1318 340 1318 q 460 1295 432 1318 q 506 1257 488 1272 q 533 1238 522 1243 q 553 1232 543 1232 q 583 1253 569 1232 q 622 1285 599 1275 q 667 1285 644 1294 q 701 1249 693 1272 q 694 1201 710 1225 q 637 1135 668 1156 q 568 1114 606 1114 z "},"ǎ":{"ha":938,"x_min":86,"x_max":851,"o":"m 442 -6 q 260 45 340 -6 q 133 183 179 96 q 86 379 86 269 q 137 576 86 489 q 274 715 188 664 q 469 765 361 765 q 664 715 578 765 q 801 576 750 664 q 851 379 851 489 l 797 379 q 751 183 797 269 q 624 45 704 96 q 442 -6 543 -6 m 469 119 q 596 153 540 119 q 683 247 651 188 q 715 379 715 306 q 683 513 715 454 q 596 606 651 572 q 469 640 540 640 q 344 606 400 640 q 255 513 288 572 q 222 379 222 454 q 255 247 222 306 q 344 153 288 188 q 469 119 400 119 m 781 -1 q 730 19 750 -1 q 710 69 710 39 l 710 282 l 736 429 l 851 379 l 851 69 q 831 19 851 39 q 781 -1 811 -1 m 469 868 q 433 879 449 868 l 278 982 q 244 1042 244 1007 q 278 1083 244 1069 q 360 1063 313 1096 l 469 989 l 579 1063 q 663 1084 632 1099 q 694 1042 694 1069 q 661 982 694 1007 l 507 879 q 469 868 490 868 z "},"â":{"ha":938,"x_min":86,"x_max":851,"o":"m 442 -6 q 260 45 340 -6 q 133 183 179 96 q 86 379 86 269 q 137 576 86 489 q 274 715 188 664 q 469 765 361 765 q 664 715 578 765 q 801 576 750 664 q 851 379 851 489 l 797 379 q 751 183 797 269 q 624 45 704 96 q 442 -6 543 -6 m 469 119 q 596 153 540 119 q 683 247 651 188 q 715 379 715 306 q 683 513 715 454 q 596 606 651 572 q 469 640 540 640 q 344 606 400 640 q 255 513 288 572 q 222 379 222 454 q 255 247 222 306 q 344 153 288 188 q 469 119 400 119 m 781 -1 q 730 19 750 -1 q 710 69 710 39 l 710 282 l 736 429 l 851 379 l 851 69 q 831 19 851 39 q 781 -1 811 -1 m 315 854 q 265 870 285 854 q 244 911 244 886 q 278 972 244 947 l 433 1074 q 469 1085 451 1085 q 489 1083 481 1085 q 507 1074 497 1081 l 661 972 q 694 911 694 947 q 675 870 694 886 q 625 854 656 854 q 601 858 611 854 q 579 869 590 861 l 469 947 l 360 869 q 315 854 340 854 z "},"ấ":{"ha":938,"x_min":86,"x_max":851,"o":"m 442 -6 q 260 45 340 -6 q 133 183 179 96 q 86 379 86 269 q 137 576 86 489 q 274 715 188 664 q 469 765 361 765 q 664 715 578 765 q 801 576 750 664 q 851 379 851 489 l 797 379 q 751 183 797 269 q 624 45 704 96 q 442 -6 543 -6 m 469 119 q 596 153 540 119 q 683 247 651 188 q 715 379 715 306 q 683 513 715 454 q 596 606 651 572 q 469 640 540 640 q 344 606 400 640 q 255 513 288 572 q 222 379 222 454 q 255 247 222 306 q 344 153 288 188 q 469 119 400 119 m 781 -1 q 730 19 750 -1 q 710 69 710 39 l 710 282 l 736 429 l 851 379 l 851 69 q 831 19 851 39 q 781 -1 811 -1 m 315 854 q 265 870 285 854 q 244 911 244 886 q 278 972 244 947 l 433 1074 q 469 1085 451 1085 q 489 1083 481 1085 q 507 1074 497 1081 l 661 972 q 694 911 694 947 q 675 870 694 886 q 625 854 656 854 q 601 858 611 854 q 579 869 590 861 l 469 947 l 360 869 q 315 854 340 854 m 619 1079 q 569 1099 589 1079 q 549 1150 549 1119 q 565 1197 549 1179 l 701 1333 q 751 1354 722 1354 q 803 1333 783 1354 q 822 1282 822 1313 q 818 1256 822 1268 q 803 1233 814 1243 l 668 1099 q 619 1079 649 1079 z "},"ậ":{"ha":938,"x_min":86,"x_max":851,"o":"m 442 -6 q 260 45 340 -6 q 133 183 179 96 q 86 379 86 269 q 137 576 86 489 q 274 715 188 664 q 469 765 361 765 q 664 715 578 765 q 801 576 750 664 q 851 379 851 489 l 797 379 q 751 183 797 269 q 624 45 704 96 q 442 -6 543 -6 m 469 119 q 596 153 540 119 q 683 247 651 188 q 715 379 715 306 q 683 513 715 454 q 596 606 651 572 q 469 640 540 640 q 344 606 400 640 q 255 513 288 572 q 222 379 222 454 q 255 247 222 306 q 344 153 288 188 q 469 119 400 119 m 781 -1 q 730 19 750 -1 q 710 69 710 39 l 710 282 l 736 429 l 851 379 l 851 69 q 831 19 851 39 q 781 -1 811 -1 m 315 854 q 265 870 285 854 q 244 911 244 886 q 278 972 244 947 l 433 1074 q 469 1085 451 1085 q 489 1083 481 1085 q 507 1074 497 1081 l 661 972 q 694 911 694 947 q 675 870 694 886 q 625 854 656 854 q 601 858 611 854 q 579 869 590 861 l 469 947 l 360 869 q 315 854 340 854 m 469 -311 q 405 -284 432 -311 q 378 -219 378 -257 q 405 -155 378 -182 q 469 -128 432 -128 q 534 -155 507 -128 q 561 -219 561 -182 q 534 -284 561 -257 q 469 -311 507 -311 z "},"ầ":{"ha":938,"x_min":86,"x_max":851,"o":"m 442 -6 q 260 45 340 -6 q 133 183 179 96 q 86 379 86 269 q 137 576 86 489 q 274 715 188 664 q 469 765 361 765 q 664 715 578 765 q 801 576 750 664 q 851 379 851 489 l 797 379 q 751 183 797 269 q 624 45 704 96 q 442 -6 543 -6 m 469 119 q 596 153 540 119 q 683 247 651 188 q 715 379 715 306 q 683 513 715 454 q 596 606 651 572 q 469 640 540 640 q 344 606 400 640 q 255 513 288 572 q 222 379 222 454 q 255 247 222 306 q 344 153 288 188 q 469 119 400 119 m 781 -1 q 730 19 750 -1 q 710 69 710 39 l 710 282 l 736 429 l 851 379 l 851 69 q 831 19 851 39 q 781 -1 811 -1 m 315 854 q 265 870 285 854 q 244 911 244 886 q 278 972 244 947 l 433 1074 q 469 1085 451 1085 q 489 1083 481 1085 q 507 1074 497 1081 l 661 972 q 694 911 694 947 q 675 870 694 886 q 625 854 656 854 q 601 858 611 854 q 579 869 590 861 l 469 947 l 360 869 q 315 854 340 854 m 610 1079 q 561 1099 579 1079 l 425 1233 q 407 1282 407 1251 q 426 1333 407 1313 q 476 1354 446 1354 q 528 1333 506 1354 l 663 1197 q 681 1150 681 1179 q 660 1099 681 1119 q 610 1079 640 1079 z "},"ẩ":{"ha":938,"x_min":86,"x_max":851,"o":"m 442 -6 q 260 45 340 -6 q 133 183 179 96 q 86 379 86 269 q 137 576 86 489 q 274 715 188 664 q 469 765 361 765 q 664 715 578 765 q 801 576 750 664 q 851 379 851 489 l 797 379 q 751 183 797 269 q 624 45 704 96 q 442 -6 543 -6 m 469 119 q 596 153 540 119 q 683 247 651 188 q 715 379 715 306 q 683 513 715 454 q 596 606 651 572 q 469 640 540 640 q 344 606 400 640 q 255 513 288 572 q 222 379 222 454 q 255 247 222 306 q 344 153 288 188 q 469 119 400 119 m 781 -1 q 730 19 750 -1 q 710 69 710 39 l 710 282 l 736 429 l 851 379 l 851 69 q 831 19 851 39 q 781 -1 811 -1 m 322 854 q 272 870 292 854 q 251 911 251 886 q 285 972 251 947 l 440 1074 q 476 1085 458 1085 q 496 1083 488 1085 q 514 1074 504 1081 l 668 972 q 701 911 701 947 q 682 870 701 886 q 632 854 663 854 q 608 858 618 854 q 586 869 597 861 l 476 947 l 367 869 q 322 854 347 854 m 621 1035 q 576 1053 594 1035 q 558 1097 558 1071 l 558 1128 q 614 1196 558 1183 l 650 1204 q 690 1224 674 1210 q 707 1260 707 1238 q 690 1300 707 1288 q 647 1313 674 1313 q 610 1306 628 1313 q 582 1290 593 1299 q 560 1279 574 1283 q 536 1275 547 1275 q 500 1287 515 1275 q 485 1324 485 1299 q 507 1372 485 1354 q 568 1406 535 1394 q 644 1418 601 1418 q 767 1374 719 1418 q 814 1264 814 1329 q 769 1163 815 1194 q 657 1122 722 1131 l 683 1125 q 665 1056 683 1078 q 621 1035 647 1035 z "},"ẫ":{"ha":938,"x_min":86,"x_max":851,"o":"m 442 -6 q 260 45 340 -6 q 133 183 179 96 q 86 379 86 269 q 137 576 86 489 q 274 715 188 664 q 469 765 361 765 q 664 715 578 765 q 801 576 750 664 q 851 379 851 489 l 797 379 q 751 183 797 269 q 624 45 704 96 q 442 -6 543 -6 m 469 119 q 596 153 540 119 q 683 247 651 188 q 715 379 715 306 q 683 513 715 454 q 596 606 651 572 q 469 640 540 640 q 344 606 400 640 q 255 513 288 572 q 222 379 222 454 q 255 247 222 306 q 344 153 288 188 q 469 119 400 119 m 781 -1 q 730 19 750 -1 q 710 69 710 39 l 710 282 l 736 429 l 851 379 l 851 69 q 831 19 851 39 q 781 -1 811 -1 m 322 854 q 272 870 292 854 q 251 911 251 886 q 285 972 251 947 l 440 1074 q 476 1085 458 1085 q 496 1083 488 1085 q 514 1074 504 1081 l 668 972 q 701 911 701 947 q 682 870 701 886 q 632 854 663 854 q 608 858 618 854 q 586 869 597 861 l 476 947 l 367 869 q 322 854 347 854 m 557 1119 q 492 1135 521 1119 q 436 1176 463 1151 q 408 1201 419 1192 q 383 1210 397 1210 q 360 1199 369 1210 q 339 1171 350 1189 q 304 1141 326 1150 q 258 1142 282 1132 q 226 1176 235 1153 q 231 1222 217 1199 q 294 1299 260 1275 q 372 1324 329 1324 q 449 1301 421 1324 q 494 1263 476 1278 q 522 1243 511 1249 q 542 1238 532 1238 q 572 1258 558 1238 q 610 1290 588 1281 q 656 1290 633 1300 q 690 1254 682 1278 q 683 1207 699 1231 q 626 1140 657 1161 q 557 1119 594 1119 z "},"ȁ":{"ha":938,"x_min":86,"x_max":851,"o":"m 442 -6 q 260 45 340 -6 q 133 183 179 96 q 86 379 86 269 q 137 576 86 489 q 274 715 188 664 q 469 765 361 765 q 664 715 578 765 q 801 576 750 664 q 851 379 851 489 l 797 379 q 751 183 797 269 q 624 45 704 96 q 442 -6 543 -6 m 469 119 q 596 153 540 119 q 683 247 651 188 q 715 379 715 306 q 683 513 715 454 q 596 606 651 572 q 469 640 540 640 q 344 606 400 640 q 255 513 288 572 q 222 379 222 454 q 255 247 222 306 q 344 153 288 188 q 469 119 400 119 m 781 -1 q 730 19 750 -1 q 710 69 710 39 l 710 282 l 736 429 l 851 379 l 851 69 q 831 19 851 39 q 781 -1 811 -1 m 608 857 q 556 893 572 857 l 478 1057 q 472 1083 472 1069 q 493 1133 472 1111 q 544 1154 514 1154 q 585 1142 567 1154 q 610 1110 604 1129 l 663 938 q 667 915 667 925 q 647 872 667 888 q 608 857 628 857 m 410 857 q 356 893 375 857 l 279 1057 q 274 1071 275 1064 q 272 1083 274 1078 q 293 1133 272 1111 q 344 1154 314 1154 q 385 1142 367 1154 q 410 1110 404 1129 l 464 938 q 466 926 465 932 q 467 915 467 919 q 448 872 467 888 q 410 857 429 857 z "},"ä":{"ha":938,"x_min":86,"x_max":851,"o":"m 442 -6 q 260 45 340 -6 q 133 183 179 96 q 86 379 86 269 q 137 576 86 489 q 274 715 188 664 q 469 765 361 765 q 664 715 578 765 q 801 576 750 664 q 851 379 851 489 l 797 379 q 751 183 797 269 q 624 45 704 96 q 442 -6 543 -6 m 469 119 q 596 153 540 119 q 683 247 651 188 q 715 379 715 306 q 683 513 715 454 q 596 606 651 572 q 469 640 540 640 q 344 606 400 640 q 255 513 288 572 q 222 379 222 454 q 255 247 222 306 q 344 153 288 188 q 469 119 400 119 m 781 -1 q 730 19 750 -1 q 710 69 710 39 l 710 282 l 736 429 l 851 379 l 851 69 q 831 19 851 39 q 781 -1 811 -1 m 315 876 q 256 901 281 876 q 231 960 231 925 q 256 1018 231 993 q 315 1043 281 1043 q 374 1018 349 1043 q 399 960 399 993 q 374 901 399 925 q 315 876 349 876 m 624 876 q 565 901 589 876 q 540 960 540 925 q 565 1018 540 993 q 624 1043 589 1043 q 682 1018 657 1043 q 707 960 707 993 q 682 901 707 925 q 624 876 657 876 z "},"ạ":{"ha":938,"x_min":86,"x_max":851,"o":"m 442 -6 q 260 45 340 -6 q 133 183 179 96 q 86 379 86 269 q 137 576 86 489 q 274 715 188 664 q 469 765 361 765 q 664 715 578 765 q 801 576 750 664 q 851 379 851 489 l 797 379 q 751 183 797 269 q 624 45 704 96 q 442 -6 543 -6 m 469 119 q 596 153 540 119 q 683 247 651 188 q 715 379 715 306 q 683 513 715 454 q 596 606 651 572 q 469 640 540 640 q 344 606 400 640 q 255 513 288 572 q 222 379 222 454 q 255 247 222 306 q 344 153 288 188 q 469 119 400 119 m 781 -1 q 730 19 750 -1 q 710 69 710 39 l 710 282 l 736 429 l 851 379 l 851 69 q 831 19 851 39 q 781 -1 811 -1 m 469 -311 q 405 -284 432 -311 q 378 -219 378 -257 q 405 -155 378 -182 q 469 -128 432 -128 q 534 -155 507 -128 q 561 -219 561 -182 q 534 -284 561 -257 q 469 -311 507 -311 z "},"à":{"ha":938,"x_min":86,"x_max":851,"o":"m 442 -6 q 260 45 340 -6 q 133 183 179 96 q 86 379 86 269 q 137 576 86 489 q 274 715 188 664 q 469 765 361 765 q 664 715 578 765 q 801 576 750 664 q 851 379 851 489 l 797 379 q 751 183 797 269 q 624 45 704 96 q 442 -6 543 -6 m 469 119 q 596 153 540 119 q 683 247 651 188 q 715 379 715 306 q 683 513 715 454 q 596 606 651 572 q 469 640 540 640 q 344 606 400 640 q 255 513 288 572 q 222 379 222 454 q 255 247 222 306 q 344 153 288 188 q 469 119 400 119 m 781 -1 q 730 19 750 -1 q 710 69 710 39 l 710 282 l 736 429 l 851 379 l 851 69 q 831 19 851 39 q 781 -1 811 -1 m 465 879 q 417 899 435 879 l 281 1033 q 263 1082 263 1051 q 282 1133 263 1113 q 332 1154 301 1154 q 383 1133 361 1154 l 518 997 q 536 950 536 979 q 516 899 536 919 q 465 879 496 879 z "},"ả":{"ha":938,"x_min":86,"x_max":851,"o":"m 442 -6 q 260 45 340 -6 q 133 183 179 96 q 86 379 86 269 q 137 576 86 489 q 274 715 188 664 q 469 765 361 765 q 664 715 578 765 q 801 576 750 664 q 851 379 851 489 l 797 379 q 751 183 797 269 q 624 45 704 96 q 442 -6 543 -6 m 469 119 q 596 153 540 119 q 683 247 651 188 q 715 379 715 306 q 683 513 715 454 q 596 606 651 572 q 469 640 540 640 q 344 606 400 640 q 255 513 288 572 q 222 379 222 454 q 255 247 222 306 q 344 153 288 188 q 469 119 400 119 m 781 -1 q 730 19 750 -1 q 710 69 710 39 l 710 282 l 736 429 l 851 379 l 851 69 q 831 19 851 39 q 781 -1 811 -1 m 469 835 q 425 853 443 835 q 407 897 407 871 l 407 928 q 463 996 407 983 l 499 1004 q 539 1024 522 1010 q 556 1060 556 1038 q 539 1100 556 1088 q 496 1113 522 1113 q 459 1106 476 1113 q 431 1090 442 1099 q 409 1079 422 1083 q 385 1075 396 1075 q 349 1087 364 1075 q 333 1124 333 1099 q 356 1172 333 1154 q 417 1206 383 1194 q 493 1218 450 1218 q 615 1174 568 1218 q 663 1064 663 1129 q 617 963 664 994 q 506 922 571 931 l 532 925 q 514 856 532 878 q 469 835 496 835 z "},"ȃ":{"ha":938,"x_min":86,"x_max":851,"o":"m 442 -6 q 260 45 340 -6 q 133 183 179 96 q 86 379 86 269 q 137 576 86 489 q 274 715 188 664 q 469 765 361 765 q 664 715 578 765 q 801 576 750 664 q 851 379 851 489 l 797 379 q 751 183 797 269 q 624 45 704 96 q 442 -6 543 -6 m 469 119 q 596 153 540 119 q 683 247 651 188 q 715 379 715 306 q 683 513 715 454 q 596 606 651 572 q 469 640 540 640 q 344 606 400 640 q 255 513 288 572 q 222 379 222 454 q 255 247 222 306 q 344 153 288 188 q 469 119 400 119 m 781 -1 q 730 19 750 -1 q 710 69 710 39 l 710 282 l 736 429 l 851 379 l 851 69 q 831 19 851 39 q 781 -1 811 -1 m 310 840 q 261 860 279 840 q 243 911 243 881 q 274 1000 243 961 q 356 1062 304 1039 q 469 1085 407 1085 q 583 1062 532 1085 q 664 1000 633 1039 q 694 911 694 961 q 677 860 694 881 q 629 840 660 840 q 582 856 603 840 q 561 897 561 871 q 537 950 561 929 q 469 971 513 971 q 406 950 436 971 q 376 897 376 929 q 356 856 376 871 q 310 840 335 840 z "},"ā":{"ha":938,"x_min":86,"x_max":851,"o":"m 442 -6 q 260 45 340 -6 q 133 183 179 96 q 86 379 86 269 q 137 576 86 489 q 274 715 188 664 q 469 765 361 765 q 664 715 578 765 q 801 576 750 664 q 851 379 851 489 l 797 379 q 751 183 797 269 q 624 45 704 96 q 442 -6 543 -6 m 469 119 q 596 153 540 119 q 683 247 651 188 q 715 379 715 306 q 683 513 715 454 q 596 606 651 572 q 469 640 540 640 q 344 606 400 640 q 255 513 288 572 q 222 379 222 454 q 255 247 222 306 q 344 153 288 188 q 469 119 400 119 m 781 -1 q 730 19 750 -1 q 710 69 710 39 l 710 282 l 736 429 l 851 379 l 851 69 q 831 19 851 39 q 781 -1 811 -1 m 294 899 q 244 915 264 899 q 224 963 224 932 q 244 1008 224 993 q 294 1024 264 1024 l 642 1024 q 693 1008 672 1024 q 714 963 714 993 q 693 915 714 932 q 642 899 672 899 l 294 899 z "},"ą":{"ha":938,"x_min":86,"x_max":1017,"o":"m 442 -6 q 260 45 340 -6 q 133 183 179 96 q 86 379 86 269 q 137 576 86 489 q 274 715 188 664 q 469 765 361 765 q 664 715 578 765 q 801 576 750 664 q 851 379 851 489 l 797 379 q 751 183 797 269 q 624 45 704 96 q 442 -6 543 -6 m 469 119 q 596 153 540 119 q 683 247 651 188 q 715 379 715 306 q 683 513 715 454 q 596 606 651 572 q 469 640 540 640 q 344 606 400 640 q 255 513 288 572 q 222 379 222 454 q 255 247 222 306 q 344 153 288 188 q 469 119 400 119 m 781 -1 q 730 19 750 -1 q 710 69 710 39 l 710 282 l 736 429 l 851 379 l 851 69 q 831 19 851 39 q 781 -1 811 -1 m 843 -383 q 757 -360 796 -383 q 694 -297 718 -336 q 669 -210 669 -257 q 742 -68 669 -128 q 766 -45 757 -57 q 781 -24 775 -33 q 843 14 800 14 q 892 -6 872 14 q 914 -56 913 -25 q 892 -119 914 -87 q 825 -182 869 -150 q 815 -195 818 -187 q 811 -210 811 -203 q 820 -233 811 -224 q 843 -242 829 -242 q 853 -240 849 -242 q 860 -236 857 -239 l 903 -204 q 946 -190 924 -190 q 997 -210 978 -190 q 1017 -261 1017 -231 q 992 -318 1017 -294 l 939 -353 q 843 -383 896 -383 z "},"å":{"ha":938,"x_min":86,"x_max":851,"o":"m 442 -6 q 260 45 340 -6 q 133 183 179 96 q 86 379 86 269 q 137 576 86 489 q 274 715 188 664 q 469 765 361 765 q 664 715 578 765 q 801 576 750 664 q 851 379 851 489 l 797 379 q 751 183 797 269 q 624 45 704 96 q 442 -6 543 -6 m 469 119 q 596 153 540 119 q 683 247 651 188 q 715 379 715 306 q 683 513 715 454 q 596 606 651 572 q 469 640 540 640 q 344 606 400 640 q 255 513 288 572 q 222 379 222 454 q 255 247 222 306 q 344 153 288 188 q 469 119 400 119 m 781 -1 q 730 19 750 -1 q 710 69 710 39 l 710 282 l 736 429 l 851 379 l 851 69 q 831 19 851 39 q 781 -1 811 -1 m 469 814 q 363 856 404 814 q 321 963 321 897 q 363 1070 321 1028 q 469 1113 404 1113 q 576 1070 535 1113 q 618 963 618 1028 q 576 856 618 897 q 469 814 535 814 m 469 892 q 521 912 501 892 q 540 963 540 932 q 521 1015 540 994 q 469 1035 501 1035 q 418 1015 439 1035 q 397 963 397 994 q 418 912 397 932 q 469 892 439 892 z "},"ǻ":{"ha":938,"x_min":86,"x_max":851,"o":"m 442 -6 q 260 45 340 -6 q 133 183 179 96 q 86 379 86 269 q 137 576 86 489 q 274 715 188 664 q 469 765 361 765 q 664 715 578 765 q 801 576 750 664 q 851 379 851 489 l 797 379 q 751 183 797 269 q 624 45 704 96 q 442 -6 543 -6 m 469 119 q 596 153 540 119 q 683 247 651 188 q 715 379 715 306 q 683 513 715 454 q 596 606 651 572 q 469 640 540 640 q 344 606 400 640 q 255 513 288 572 q 222 379 222 454 q 255 247 222 306 q 344 153 288 188 q 469 119 400 119 m 781 -1 q 730 19 750 -1 q 710 69 710 39 l 710 282 l 736 429 l 851 379 l 851 69 q 831 19 851 39 q 781 -1 811 -1 m 469 814 q 363 856 404 814 q 321 963 321 897 q 363 1070 321 1028 q 469 1113 404 1113 q 576 1070 535 1113 q 618 963 618 1028 q 576 856 618 897 q 469 814 535 814 m 469 892 q 521 912 501 892 q 540 963 540 932 q 521 1015 540 994 q 469 1035 501 1035 q 418 1015 439 1035 q 397 963 397 994 q 418 912 397 932 q 469 892 439 892 m 475 1163 q 424 1183 444 1163 q 404 1233 404 1203 q 421 1281 404 1263 l 557 1417 q 607 1438 578 1438 q 658 1417 639 1438 q 678 1365 678 1396 q 674 1339 678 1351 q 658 1317 669 1326 l 524 1182 q 475 1163 504 1163 z "},"ã":{"ha":938,"x_min":86,"x_max":851,"o":"m 442 -6 q 260 45 340 -6 q 133 183 179 96 q 86 379 86 269 q 137 576 86 489 q 274 715 188 664 q 469 765 361 765 q 664 715 578 765 q 801 576 750 664 q 851 379 851 489 l 797 379 q 751 183 797 269 q 624 45 704 96 q 442 -6 543 -6 m 469 119 q 596 153 540 119 q 683 247 651 188 q 715 379 715 306 q 683 513 715 454 q 596 606 651 572 q 469 640 540 640 q 344 606 400 640 q 255 513 288 572 q 222 379 222 454 q 255 247 222 306 q 344 153 288 188 q 469 119 400 119 m 781 -1 q 730 19 750 -1 q 710 69 710 39 l 710 282 l 736 429 l 851 379 l 851 69 q 831 19 851 39 q 781 -1 811 -1 m 618 864 q 536 878 571 864 q 476 907 501 893 q 424 931 446 924 q 385 939 401 939 q 350 932 365 939 q 318 901 335 925 q 278 869 301 879 q 228 871 254 858 q 204 907 208 881 q 215 956 200 933 q 294 1026 247 1003 q 394 1050 340 1050 q 473 1035 439 1050 q 531 1008 507 1021 q 579 983 563 990 q 614 976 596 976 q 646 983 632 976 q 669 1000 660 990 q 707 1027 689 1019 q 751 1019 725 1035 q 774 979 772 1007 q 758 929 776 951 q 618 864 706 864 z "},"æ":{"ha":1499,"x_min":86,"x_max":1443,"o":"m 1118 -6 q 920 44 1007 -6 q 785 180 833 93 q 736 379 736 267 q 783 580 736 493 q 910 716 829 667 q 1097 765 992 765 q 1283 717 1206 765 q 1402 585 1361 669 q 1443 392 1443 501 q 1425 348 1443 365 q 1379 331 1407 331 l 819 331 l 819 442 l 1375 442 l 1318 403 q 1290 527 1317 472 q 1215 614 1264 582 q 1097 646 1167 646 q 962 611 1018 646 q 876 516 906 576 q 847 379 847 456 q 882 243 847 303 q 978 149 917 183 q 1118 114 1039 114 q 1206 130 1161 114 q 1279 167 1251 146 q 1325 183 1300 182 q 1367 168 1350 185 q 1392 122 1390 146 q 1369 79 1393 97 q 1252 19 1322 43 q 1118 -6 1182 -6 m 442 -6 q 260 45 340 -6 q 133 183 179 96 q 86 379 86 269 q 137 576 86 489 q 274 715 188 664 q 469 765 361 765 q 664 715 578 765 q 801 576 750 664 q 851 379 851 489 l 797 379 q 751 183 797 269 q 624 45 704 96 q 442 -6 543 -6 m 469 119 q 596 153 540 119 q 683 247 651 188 q 715 379 715 306 q 683 513 715 454 q 596 606 651 572 q 469 640 540 640 q 344 606 400 640 q 255 513 288 572 q 222 379 222 454 q 255 247 222 306 q 344 153 288 188 q 469 119 400 119 m 781 -1 q 730 19 750 -1 q 710 69 710 39 l 710 282 l 736 429 l 851 379 l 851 69 q 831 19 851 39 q 781 -1 811 -1 z "},"ǽ":{"ha":1499,"x_min":86,"x_max":1443,"o":"m 1118 -6 q 920 44 1007 -6 q 785 180 833 93 q 736 379 736 267 q 783 580 736 493 q 910 716 829 667 q 1097 765 992 765 q 1283 717 1206 765 q 1402 585 1361 669 q 1443 392 1443 501 q 1425 348 1443 365 q 1379 331 1407 331 l 819 331 l 819 442 l 1375 442 l 1318 403 q 1290 527 1317 472 q 1215 614 1264 582 q 1097 646 1167 646 q 962 611 1018 646 q 876 516 906 576 q 847 379 847 456 q 882 243 847 303 q 978 149 917 183 q 1118 114 1039 114 q 1206 130 1161 114 q 1279 167 1251 146 q 1325 183 1300 182 q 1367 168 1350 185 q 1392 122 1390 146 q 1369 79 1393 97 q 1252 19 1322 43 q 1118 -6 1182 -6 m 442 -6 q 260 45 340 -6 q 133 183 179 96 q 86 379 86 269 q 137 576 86 489 q 274 715 188 664 q 469 765 361 765 q 664 715 578 765 q 801 576 750 664 q 851 379 851 489 l 797 379 q 751 183 797 269 q 624 45 704 96 q 442 -6 543 -6 m 469 119 q 596 153 540 119 q 683 247 651 188 q 715 379 715 306 q 683 513 715 454 q 596 606 651 572 q 469 640 540 640 q 344 606 400 640 q 255 513 288 572 q 222 379 222 454 q 255 247 222 306 q 344 153 288 188 q 469 119 400 119 m 781 -1 q 730 19 750 -1 q 710 69 710 39 l 710 282 l 736 429 l 851 379 l 851 69 q 831 19 851 39 q 781 -1 811 -1 m 771 879 q 720 899 740 879 q 700 950 700 919 q 717 997 700 979 l 853 1133 q 903 1154 874 1154 q 954 1133 935 1154 q 974 1082 974 1113 q 969 1056 974 1068 q 954 1033 965 1043 l 819 899 q 771 879 800 879 z "},"b":{"ha":976,"x_min":125,"x_max":890,"o":"m 507 -6 q 313 45 399 -6 q 176 183 226 96 q 125 381 126 271 l 125 1014 q 145 1065 125 1046 q 196 1085 165 1085 q 247 1065 228 1085 q 267 1014 267 1046 l 267 639 q 384 731 315 697 q 535 765 453 765 q 717 715 636 765 q 844 577 797 664 q 890 381 890 490 q 840 183 890 271 q 703 45 789 96 q 507 -6 617 -6 m 507 119 q 633 153 578 119 q 722 247 689 188 q 754 381 754 307 q 722 514 754 456 q 633 606 689 572 q 507 640 578 640 q 381 606 438 640 q 293 514 325 572 q 261 381 261 456 q 293 247 261 307 q 381 153 325 188 q 507 119 438 119 z "},"c":{"ha":835,"x_min":86,"x_max":754,"o":"m 469 -6 q 272 45 358 -6 q 135 183 185 96 q 86 379 86 269 q 135 579 86 492 q 268 716 183 667 q 463 765 353 765 q 613 734 544 765 q 735 640 681 703 q 749 594 754 618 q 718 553 743 571 q 675 544 699 539 q 632 568 651 549 q 463 640 564 640 q 338 608 392 640 q 253 517 283 575 q 222 379 222 458 q 253 246 222 304 q 340 153 285 188 q 469 119 396 119 q 555 131 518 119 q 622 168 592 143 q 668 188 644 186 q 710 175 692 190 q 736 131 733 156 q 719 88 739 107 q 469 -6 619 -6 z "},"ć":{"ha":835,"x_min":86,"x_max":754,"o":"m 469 -6 q 272 45 358 -6 q 135 183 185 96 q 86 379 86 269 q 135 579 86 492 q 268 716 183 667 q 463 765 353 765 q 613 734 544 765 q 735 640 681 703 q 749 594 754 618 q 718 553 743 571 q 675 544 699 539 q 632 568 651 549 q 463 640 564 640 q 338 608 392 640 q 253 517 283 575 q 222 379 222 458 q 253 246 222 304 q 340 153 285 188 q 469 119 396 119 q 555 131 518 119 q 622 168 592 143 q 668 188 644 186 q 710 175 692 190 q 736 131 733 156 q 719 88 739 107 q 469 -6 619 -6 m 468 879 q 417 899 438 879 q 397 950 397 919 q 414 997 397 979 l 550 1133 q 600 1154 571 1154 q 651 1133 632 1154 q 671 1082 671 1113 q 667 1056 671 1068 q 651 1033 663 1043 l 517 899 q 468 879 497 879 z "},"č":{"ha":835,"x_min":86,"x_max":754,"o":"m 469 -6 q 272 45 358 -6 q 135 183 185 96 q 86 379 86 269 q 135 579 86 492 q 268 716 183 667 q 463 765 353 765 q 613 734 544 765 q 735 640 681 703 q 749 594 754 618 q 718 553 743 571 q 675 544 699 539 q 632 568 651 549 q 463 640 564 640 q 338 608 392 640 q 253 517 283 575 q 222 379 222 458 q 253 246 222 304 q 340 153 285 188 q 469 119 396 119 q 555 131 518 119 q 622 168 592 143 q 668 188 644 186 q 710 175 692 190 q 736 131 733 156 q 719 88 739 107 q 469 -6 619 -6 m 463 868 q 426 879 442 868 l 271 982 q 238 1042 238 1007 q 272 1083 238 1069 q 353 1063 306 1096 l 463 989 l 572 1063 q 656 1084 625 1099 q 688 1042 688 1069 q 654 982 688 1007 l 500 879 q 463 868 483 868 z "},"ç":{"ha":835,"x_min":86,"x_max":754,"o":"m 469 -6 q 272 45 358 -6 q 135 183 185 96 q 86 379 86 269 q 135 579 86 492 q 268 716 183 667 q 463 765 353 765 q 613 734 544 765 q 735 640 681 703 q 749 594 754 618 q 718 553 743 571 q 675 544 699 539 q 632 568 651 549 q 463 640 564 640 q 338 608 392 640 q 253 517 283 575 q 222 379 222 458 q 253 246 222 304 q 340 153 285 188 q 469 119 396 119 q 555 131 518 119 q 622 168 592 143 q 668 188 644 186 q 710 175 692 190 q 736 131 733 156 q 719 88 739 107 q 469 -6 619 -6 m 444 -325 q 308 -290 361 -325 q 254 -208 254 -256 q 274 -161 254 -181 q 319 -142 293 -142 q 348 -149 336 -142 q 367 -176 360 -157 q 398 -213 376 -201 q 446 -225 419 -225 q 492 -212 474 -225 q 510 -176 510 -199 q 496 -136 510 -151 q 447 -115 482 -121 q 387 -87 404 -108 q 385 -21 369 -65 l 399 18 q 428 60 408 46 q 478 75 447 75 q 530 53 513 75 q 532 -1 547 31 l 511 -49 q 617 -96 583 -64 q 650 -181 650 -128 q 625 -250 650 -217 q 554 -304 600 -283 q 444 -325 508 -325 z "},"ĉ":{"ha":835,"x_min":86,"x_max":754,"o":"m 469 -6 q 272 45 358 -6 q 135 183 185 96 q 86 379 86 269 q 135 579 86 492 q 268 716 183 667 q 463 765 353 765 q 613 734 544 765 q 735 640 681 703 q 749 594 754 618 q 718 553 743 571 q 675 544 699 539 q 632 568 651 549 q 463 640 564 640 q 338 608 392 640 q 253 517 283 575 q 222 379 222 458 q 253 246 222 304 q 340 153 285 188 q 469 119 396 119 q 555 131 518 119 q 622 168 592 143 q 668 188 644 186 q 710 175 692 190 q 736 131 733 156 q 719 88 739 107 q 469 -6 619 -6 m 308 854 q 258 870 278 854 q 238 911 238 886 q 271 972 238 947 l 426 1074 q 463 1085 444 1085 q 482 1083 474 1085 q 500 1074 490 1081 l 654 972 q 688 911 688 947 q 668 870 688 886 q 618 854 649 854 q 594 858 604 854 q 572 869 583 861 l 463 947 l 353 869 q 308 854 333 854 z "},"ċ":{"ha":835,"x_min":86,"x_max":754,"o":"m 469 -6 q 272 45 358 -6 q 135 183 185 96 q 86 379 86 269 q 135 579 86 492 q 268 716 183 667 q 463 765 353 765 q 613 734 544 765 q 735 640 681 703 q 749 594 754 618 q 718 553 743 571 q 675 544 699 539 q 632 568 651 549 q 463 640 564 640 q 338 608 392 640 q 253 517 283 575 q 222 379 222 458 q 253 246 222 304 q 340 153 285 188 q 469 119 396 119 q 555 131 518 119 q 622 168 592 143 q 668 188 644 186 q 710 175 692 190 q 736 131 733 156 q 719 88 739 107 q 469 -6 619 -6 m 463 883 q 398 910 425 883 q 371 975 371 938 q 398 1040 371 1013 q 463 1067 425 1067 q 527 1040 500 1067 q 554 975 554 1013 q 527 910 554 938 q 463 883 500 883 z "},"d":{"ha":976,"x_min":86,"x_max":851,"o":"m 469 -6 q 274 45 361 -6 q 137 183 188 96 q 86 381 86 271 q 133 577 86 490 q 260 715 179 664 q 442 765 340 765 q 593 731 524 765 q 710 639 663 697 l 710 1014 q 730 1065 710 1046 q 781 1085 750 1085 q 832 1065 813 1085 q 851 1014 851 1046 l 851 381 q 801 183 851 271 q 664 45 750 96 q 469 -6 578 -6 m 469 119 q 596 153 540 119 q 683 247 651 188 q 715 381 715 307 q 683 514 715 456 q 596 606 651 572 q 469 640 540 640 q 344 606 400 640 q 255 514 288 572 q 222 381 222 456 q 255 247 222 307 q 344 153 288 188 q 469 119 400 119 z "},"ð":{"ha":935,"x_min":86,"x_max":838,"o":"m 456 -6 q 264 40 347 -6 q 133 167 181 86 q 86 353 86 249 q 130 538 86 458 q 251 664 174 618 q 428 710 328 710 q 605 664 528 710 q 726 538 682 618 q 769 353 769 458 l 838 353 q 788 167 838 249 q 653 40 739 86 q 456 -6 567 -6 m 456 119 q 583 149 528 119 q 670 232 639 179 q 701 353 701 285 q 670 473 701 421 q 583 555 639 525 q 456 585 528 585 q 335 555 388 585 q 252 473 282 525 q 222 353 222 421 q 252 232 222 285 q 335 149 282 179 q 456 119 388 119 m 731 353 l 728 496 q 706 686 725 608 q 641 818 686 764 q 519 914 596 872 q 325 994 442 956 q 274 1024 288 1007 q 271 1068 261 1042 q 304 1096 281 1093 q 356 1088 328 1099 q 587 983 494 1038 q 734 863 679 929 q 813 710 789 796 q 836 510 836 624 l 838 353 l 731 353 m 349 838 q 325 860 332 847 q 329 894 318 874 l 463 1135 q 488 1156 474 1154 q 521 1147 503 1158 q 547 1120 542 1135 q 543 1090 551 1106 l 410 849 q 385 831 401 835 q 349 838 368 826 z "},"ď":{"ha":1117,"x_min":86,"x_max":1136,"o":"m 469 -6 q 274 45 361 -6 q 137 183 188 96 q 86 381 86 271 q 133 577 86 490 q 260 715 179 664 q 442 765 340 765 q 593 731 524 765 q 710 639 663 697 l 710 1014 q 730 1065 710 1046 q 781 1085 750 1085 q 832 1065 813 1085 q 851 1014 851 1046 l 851 381 q 801 183 851 271 q 664 45 750 96 q 469 -6 578 -6 m 469 119 q 596 153 540 119 q 683 247 651 188 q 715 381 715 307 q 683 514 715 456 q 596 606 651 572 q 469 640 540 640 q 344 606 400 640 q 255 514 288 572 q 222 381 222 456 q 255 247 222 307 q 344 153 288 188 q 469 119 400 119 m 944 699 q 917 710 926 701 q 910 736 908 718 q 932 787 913 761 q 972 841 951 813 q 996 903 992 869 q 994 951 1000 932 q 981 990 988 971 q 974 1038 974 1008 q 994 1081 974 1065 q 1042 1096 1014 1096 q 1111 1057 1086 1096 q 1129 965 1136 1018 q 1103 868 1125 917 q 1053 781 1082 819 q 994 719 1024 742 q 944 699 965 696 z "},"đ":{"ha":976,"x_min":86,"x_max":976,"o":"m 513 846 q 462 863 482 846 q 442 901 442 879 q 462 944 442 931 q 513 957 482 957 l 904 957 q 956 944 936 957 q 976 901 976 931 q 956 863 976 879 q 904 846 936 846 l 513 846 m 469 -6 q 274 45 361 -6 q 137 183 188 96 q 86 381 86 271 q 133 577 86 490 q 260 715 179 664 q 442 765 340 765 q 593 731 524 765 q 710 639 663 697 l 710 1014 q 730 1065 710 1046 q 781 1085 750 1085 q 832 1065 813 1085 q 851 1014 851 1046 l 851 381 q 801 183 851 271 q 664 45 750 96 q 469 -6 578 -6 m 469 119 q 596 153 540 119 q 683 247 651 188 q 715 381 715 307 q 683 514 715 456 q 596 606 651 572 q 469 640 540 640 q 344 606 400 640 q 255 514 288 572 q 222 381 222 456 q 255 247 222 307 q 344 153 288 188 q 469 119 400 119 z "},"e":{"ha":863,"x_min":86,"x_max":807,"o":"m 482 -6 q 277 44 367 -6 q 137 180 188 93 q 86 379 86 267 q 134 580 86 493 q 267 716 182 667 q 461 765 351 765 q 647 717 569 765 q 766 585 725 669 q 807 392 807 501 q 789 348 807 365 q 743 331 771 331 l 183 331 l 183 442 l 739 442 l 682 403 q 654 527 681 472 q 579 614 628 582 q 461 646 531 646 q 326 611 382 646 q 240 516 269 576 q 211 379 211 456 q 246 243 211 303 q 342 149 281 183 q 482 114 403 114 q 570 130 525 114 q 643 167 615 146 q 688 183 664 182 q 731 168 713 183 q 756 122 754 147 q 733 79 757 97 q 616 18 686 42 q 482 -6 546 -6 z "},"é":{"ha":863,"x_min":86,"x_max":807,"o":"m 482 -6 q 277 44 367 -6 q 137 180 188 93 q 86 379 86 267 q 134 580 86 493 q 267 716 182 667 q 461 765 351 765 q 647 717 569 765 q 766 585 725 669 q 807 392 807 501 q 789 348 807 365 q 743 331 771 331 l 183 331 l 183 442 l 739 442 l 682 403 q 654 527 681 472 q 579 614 628 582 q 461 646 531 646 q 326 611 382 646 q 240 516 269 576 q 211 379 211 456 q 246 243 211 303 q 342 149 281 183 q 482 114 403 114 q 570 130 525 114 q 643 167 615 146 q 688 183 664 182 q 731 168 713 183 q 756 122 754 147 q 733 79 757 97 q 616 18 686 42 q 482 -6 546 -6 m 453 879 q 402 899 422 879 q 382 950 382 919 q 399 997 382 979 l 535 1133 q 585 1154 556 1154 q 636 1133 617 1154 q 656 1082 656 1113 q 651 1056 656 1068 q 636 1033 647 1043 l 501 899 q 453 879 482 879 z "},"ĕ":{"ha":863,"x_min":86,"x_max":807,"o":"m 482 -6 q 277 44 367 -6 q 137 180 188 93 q 86 379 86 267 q 134 580 86 493 q 267 716 182 667 q 461 765 351 765 q 647 717 569 765 q 766 585 725 669 q 807 392 807 501 q 789 348 807 365 q 743 331 771 331 l 183 331 l 183 442 l 739 442 l 682 403 q 654 527 681 472 q 579 614 628 582 q 461 646 531 646 q 326 611 382 646 q 240 516 269 576 q 211 379 211 456 q 246 243 211 303 q 342 149 281 183 q 482 114 403 114 q 570 130 525 114 q 643 167 615 146 q 688 183 664 182 q 731 168 713 183 q 756 122 754 147 q 733 79 757 97 q 616 18 686 42 q 482 -6 546 -6 m 447 840 q 333 863 385 840 q 251 926 282 886 q 221 1014 221 965 q 239 1065 221 1044 q 288 1085 257 1085 q 333 1069 313 1085 q 354 1028 354 1054 q 384 975 354 996 q 447 954 414 954 q 515 975 490 954 q 539 1028 539 996 q 560 1069 539 1054 q 607 1085 581 1085 q 655 1065 638 1085 q 672 1014 672 1044 q 642 926 672 965 q 560 863 611 886 q 447 840 510 840 z "},"ě":{"ha":863,"x_min":86,"x_max":807,"o":"m 482 -6 q 277 44 367 -6 q 137 180 188 93 q 86 379 86 267 q 134 580 86 493 q 267 716 182 667 q 461 765 351 765 q 647 717 569 765 q 766 585 725 669 q 807 392 807 501 q 789 348 807 365 q 743 331 771 331 l 183 331 l 183 442 l 739 442 l 682 403 q 654 527 681 472 q 579 614 628 582 q 461 646 531 646 q 326 611 382 646 q 240 516 269 576 q 211 379 211 456 q 246 243 211 303 q 342 149 281 183 q 482 114 403 114 q 570 130 525 114 q 643 167 615 146 q 688 183 664 182 q 731 168 713 183 q 756 122 754 147 q 733 79 757 97 q 616 18 686 42 q 482 -6 546 -6 m 447 868 q 411 879 426 868 l 256 982 q 222 1042 222 1007 q 256 1083 222 1069 q 338 1063 290 1096 l 447 989 l 557 1063 q 641 1084 610 1099 q 672 1042 672 1069 q 639 982 672 1007 l 485 879 q 447 868 468 868 z "},"ê":{"ha":863,"x_min":86,"x_max":807,"o":"m 482 -6 q 277 44 367 -6 q 137 180 188 93 q 86 379 86 267 q 134 580 86 493 q 267 716 182 667 q 461 765 351 765 q 647 717 569 765 q 766 585 725 669 q 807 392 807 501 q 789 348 807 365 q 743 331 771 331 l 183 331 l 183 442 l 739 442 l 682 403 q 654 527 681 472 q 579 614 628 582 q 461 646 531 646 q 326 611 382 646 q 240 516 269 576 q 211 379 211 456 q 246 243 211 303 q 342 149 281 183 q 482 114 403 114 q 570 130 525 114 q 643 167 615 146 q 688 183 664 182 q 731 168 713 183 q 756 122 754 147 q 733 79 757 97 q 616 18 686 42 q 482 -6 546 -6 m 293 854 q 242 870 263 854 q 222 911 222 886 q 256 972 222 947 l 411 1074 q 447 1085 429 1085 q 467 1083 458 1085 q 485 1074 475 1081 l 639 972 q 672 911 672 947 q 653 870 672 886 q 603 854 633 854 q 578 858 589 854 q 557 869 568 861 l 447 947 l 338 869 q 293 854 318 854 z "}}}
